<?xml version="1.0" encoding="utf-8"?>
<!-- Generator: Adobe Illustrator 22.1.0, SVG Export Plug-In . SVG Version: 6.00 Build 0)  -->
<svg version="1.1" xmlns="http://www.w3.org/2000/svg" xmlns:xlink="http://www.w3.org/1999/xlink" x="0px" y="0px"
	 viewBox="0 0 3000 259" style="enable-background:new 0 0 3000 259;" xml:space="preserve">
<style type="text/css">
	.st0{fill:#FFFFFF;opacity:0.4;}
	.st1{fill:#003745;stroke:#FFFFFF;stroke-width:0.5;stroke-miterlimit:10;opacity:0.4;}
</style>
<g id="Layer_2">
	<g>
		<g>
			<polygon class="st0" points="0,257.5 0.1,258 971.8,-1.1 969.9,-1.1 			"/>
			<polygon class="st0" points="968,-1.1 -0.1,257 0,257.5 969.9,-1.1 			"/>
			<polygon class="st0" points="985.6,-1.1 49.9,257 50,257.5 987.4,-1.1 			"/>
			<polygon class="st0" points="50,257.5 50.1,258 989.3,-1.1 987.4,-1.1 			"/>
			<rect x="1499.5" y="-0.1" class="st0" width="0.5" height="257.6"/>
			<rect x="1500" y="-0.1" class="st0" width="0.5" height="257.6"/>
			<polygon class="st0" points="1481.7,-0.2 1449.5,257.4 1450,257.5 1482.2,-0.2 			"/>
			<polygon class="st0" points="1450,257.5 1450.5,257.6 1482.7,-0.2 1482.2,-0.2 			"/>
			<polygon class="st0" points="1003.2,-1.1 99.9,257 100,257.5 1005,-1.1 			"/>
			<polygon class="st0" points="100,257.5 100.1,258 1006.8,-1.1 1005,-1.1 			"/>
			<polygon class="st0" points="150,257.5 150.1,258 1024.3,-1 1022.6,-1 			"/>
			<polygon class="st0" points="1020.8,-1 149.9,257 150,257.5 1022.6,-1 			"/>
			<polygon class="st0" points="1038.4,-1 199.9,257 200,257.5 1040.1,-1 			"/>
			<polygon class="st0" points="200,257.5 200.1,258 1041.8,-1 1040.1,-1 			"/>
			<polygon class="st0" points="250,257.5 250.2,258 1059.3,-1 1057.7,-1 			"/>
			<polygon class="st0" points="1056.1,-1 249.8,257 250,257.5 1057.7,-1 			"/>
			<polygon class="st0" points="1073.7,-0.9 299.8,257 300,257.5 1075.3,-0.9 			"/>
			<polygon class="st0" points="300,257.5 300.2,258 1076.9,-0.9 1075.3,-0.9 			"/>
			<polygon class="st0" points="1091.4,-0.9 349.8,257 350,257.5 1092.9,-0.9 			"/>
			<polygon class="st0" points="350,257.5 350.2,258 1094.4,-0.9 1092.9,-0.9 			"/>
			<polygon class="st0" points="400,257.5 400.2,258 1112,-0.9 1110.5,-0.9 			"/>
			<polygon class="st0" points="1109.1,-0.9 399.8,257 400,257.5 1110.5,-0.9 			"/>
			<polygon class="st0" points="450,257.5 450.2,258 1129.5,-0.8 1128.1,-0.8 			"/>
			<polygon class="st0" points="1126.7,-0.8 449.8,257 450,257.5 1128.1,-0.8 			"/>
			<polygon class="st0" points="1400,257.5 1400.5,257.6 1464.9,-0.2 1464.4,-0.2 			"/>
			<polygon class="st0" points="1463.9,-0.2 1399.5,257.4 1400,257.5 1464.4,-0.2 			"/>
			<polygon class="st0" points="1350,257.5 1350.5,257.7 1447.2,-0.2 1446.6,-0.2 			"/>
			<polygon class="st0" points="1446.1,-0.2 1349.5,257.3 1350,257.5 1446.6,-0.2 			"/>
			<polygon class="st0" points="1300,257.5 1300.4,257.7 1429.4,-0.3 1428.9,-0.3 			"/>
			<polygon class="st0" points="1428.3,-0.3 1299.6,257.3 1300,257.5 1428.9,-0.3 			"/>
			<polygon class="st0" points="1410.5,-0.3 1249.6,257.2 1250,257.5 1411.1,-0.3 			"/>
			<polygon class="st0" points="1250,257.5 1250.4,257.8 1411.7,-0.3 1411.1,-0.3 			"/>
			<polygon class="st0" points="1200,257.5 1200.4,257.8 1394,-0.3 1393.4,-0.3 			"/>
			<polygon class="st0" points="1392.7,-0.3 1199.6,257.2 1200,257.5 1393.4,-0.3 			"/>
			<polygon class="st0" points="1375,-0.4 1149.6,257.2 1150,257.5 1375.6,-0.4 			"/>
			<polygon class="st0" points="1150,257.5 1150.4,257.8 1376.3,-0.4 1375.6,-0.4 			"/>
			<polygon class="st0" points="1100,257.5 1100.4,257.9 1358.6,-0.4 1357.9,-0.4 			"/>
			<polygon class="st0" points="1357.2,-0.4 1099.6,257.1 1100,257.5 1357.9,-0.4 			"/>
			<polygon class="st0" points="1050,257.5 1050.3,257.9 1340.9,-0.4 1340.2,-0.4 			"/>
			<polygon class="st0" points="1339.4,-0.4 1049.7,257.1 1050,257.5 1340.2,-0.4 			"/>
			<polygon class="st0" points="1000,257.5 1000.3,257.9 1323.2,-0.5 1322.4,-0.5 			"/>
			<polygon class="st0" points="1321.7,-0.5 999.7,257.1 1000,257.5 1322.4,-0.5 			"/>
			<polygon class="st0" points="1303.9,-0.5 949.7,257.1 950,257.5 1304.7,-0.5 			"/>
			<polygon class="st0" points="950,257.5 950.3,257.9 1305.6,-0.5 1304.7,-0.5 			"/>
			<polygon class="st0" points="900,257.5 900.3,257.9 1287.9,-0.5 1287,-0.5 			"/>
			<polygon class="st0" points="1286.1,-0.5 899.7,257.1 900,257.5 1287,-0.5 			"/>
			<polygon class="st0" points="850,257.5 850.3,257.9 1270.3,-0.6 1269.3,-0.6 			"/>
			<polygon class="st0" points="1268.4,-0.6 849.7,257.1 850,257.5 1269.3,-0.6 			"/>
			<polygon class="st0" points="1250.7,-0.6 799.8,257.1 800,257.5 1251.7,-0.6 			"/>
			<polygon class="st0" points="800,257.5 800.2,257.9 1252.7,-0.6 1251.7,-0.6 			"/>
			<polygon class="st0" points="1232.9,-0.6 749.8,257.1 750,257.5 1234,-0.6 			"/>
			<polygon class="st0" points="750,257.5 750.2,257.9 1235.1,-0.6 1234,-0.6 			"/>
			<polygon class="st0" points="1215.2,-0.7 699.8,257.1 700,257.5 1216.3,-0.7 			"/>
			<polygon class="st0" points="700,257.5 700.2,257.9 1217.4,-0.7 1216.3,-0.7 			"/>
			<polygon class="st0" points="1197.5,-0.7 649.8,257 650,257.5 1198.7,-0.7 			"/>
			<polygon class="st0" points="650,257.5 650.2,258 1199.8,-0.7 1198.7,-0.7 			"/>
			<polygon class="st0" points="1179.8,-0.7 599.8,257 600,257.5 1181,-0.7 			"/>
			<polygon class="st0" points="600,257.5 600.2,258 1182.2,-0.7 1181,-0.7 			"/>
			<polygon class="st0" points="550,257.5 550.2,258 1164.7,-0.8 1163.4,-0.8 			"/>
			<polygon class="st0" points="1162.1,-0.8 549.8,257 550,257.5 1163.4,-0.8 			"/>
			<polygon class="st0" points="500,257.5 500.2,258 1147.1,-0.8 1145.7,-0.8 			"/>
			<polygon class="st0" points="1144.4,-0.8 499.8,257 500,257.5 1145.7,-0.8 			"/>
			<polygon class="st0" points="844.9,-1.4 -0.1,181.3 0,181.8 847.3,-1.4 			"/>
			<polygon class="st0" points="0,181.8 0.1,182.3 849.6,-1.4 847.3,-1.4 			"/>
			<polygon class="st0" points="0,190.8 0.1,191.3 867.1,-1.3 864.8,-1.3 			"/>
			<polygon class="st0" points="862.5,-1.3 -0.1,190.3 0,190.8 864.8,-1.3 			"/>
			<polygon class="st0" points="0,173.3 0.1,173.8 832.2,-1.4 829.8,-1.4 			"/>
			<polygon class="st0" points="827.4,-1.4 -0.1,172.8 0,173.3 829.8,-1.4 			"/>
			<polygon class="st0" points="809.9,-1.4 -0.1,164.7 0,165.2 812.3,-1.4 			"/>
			<polygon class="st0" points="0,165.2 0.1,165.7 814.8,-1.4 812.3,-1.4 			"/>
			<polygon class="st0" points="0,157.5 0.1,158 797.4,-1.5 794.9,-1.5 			"/>
			<polygon class="st0" points="792.3,-1.5 -0.1,157 0,157.5 794.9,-1.5 			"/>
			<polygon class="st0" points="774.8,-1.5 -0.1,149.7 0,150.2 777.4,-1.5 			"/>
			<polygon class="st0" points="0,150.2 0.1,150.7 780,-1.5 777.4,-1.5 			"/>
			<polygon class="st0" points="0,143.2 0.1,143.7 762.6,-1.5 760,-1.5 			"/>
			<polygon class="st0" points="757.3,-1.5 -0.1,142.7 0,143.2 760,-1.5 			"/>
			<polygon class="st0" points="0,68 499.2,-2 495.7,-2 -0.1,67.5 0.1,68.5 502.8,-2 499.2,-2 			"/>
			<polygon class="st0" points="0,71.8 516.6,-2 513.1,-2 -0.1,71.3 0.1,72.3 520,-2 516.6,-2 			"/>
			<polygon class="st0" points="0,75.7 0.1,76.2 537.3,-2 533.9,-2 			"/>
			<polygon class="st0" points="530.5,-2 -0.1,75.2 0,75.7 533.9,-2 			"/>
			<polygon class="st0" points="0,79.7 551.2,-1.9 547.9,-1.9 -0.1,79.2 0.1,80.2 554.6,-1.9 551.2,-1.9 			"/>
			<polygon class="st0" points="0,83.9 0.1,84.4 571.9,-1.9 568.6,-1.9 			"/>
			<polygon class="st0" points="565.3,-1.9 -0.1,83.4 0,83.9 568.6,-1.9 			"/>
			<polygon class="st0" points="0,88.3 585.9,-1.9 582.7,-1.9 -0.1,87.8 0.1,88.8 589.2,-1.9 585.9,-1.9 			"/>
			<polygon class="st0" points="0,92.8 0.1,93.3 606.5,-1.8 603.3,-1.8 			"/>
			<polygon class="st0" points="600.1,-1.8 -0.1,92.3 0,92.8 603.3,-1.8 			"/>
			<polygon class="st0" points="0,97.5 0.1,98 623.8,-1.8 620.7,-1.8 			"/>
			<polygon class="st0" points="617.5,-1.8 -0.1,97 0,97.5 620.7,-1.8 			"/>
			<polygon class="st0" points="0,102.4 638.1,-1.8 635,-1.8 -0.1,101.9 0.1,102.9 641.1,-1.8 638.1,-1.8 			"/>
			<polygon class="st0" points="652.4,-1.7 -0.1,107 0,107.5 655.4,-1.7 			"/>
			<polygon class="st0" points="0,107.5 0.1,108 658.5,-1.7 655.4,-1.7 			"/>
			<polygon class="st0" points="739.8,-1.6 -0.1,136.1 0,136.6 742.5,-1.6 			"/>
			<polygon class="st0" points="0,136.6 0.1,137.1 745.2,-1.6 742.5,-1.6 			"/>
			<polygon class="st0" points="0,130.2 725.1,-1.6 722.3,-1.6 -0.1,129.7 0.1,130.7 727.9,-1.6 725.1,-1.6 			"/>
			<polygon class="st0" points="0,124.2 707.7,-1.6 704.8,-1.6 -0.1,123.7 0.1,124.7 710.5,-1.6 707.7,-1.6 			"/>
			<polygon class="st0" points="0,118.4 0.1,118.9 693.1,-1.7 690.3,-1.7 			"/>
			<polygon class="st0" points="687.4,-1.7 -0.1,117.9 0,118.4 690.3,-1.7 			"/>
			<polygon class="st0" points="0,112.8 672.8,-1.7 669.9,-1.7 -0.1,112.3 0.1,113.3 675.8,-1.7 672.8,-1.7 			"/>
			<polygon class="st0" points="950.4,-1.2 -0.1,244.1 0,244.6 952.3,-1.2 			"/>
			<polygon class="st0" points="0,244.6 0.1,245.1 954.3,-1.2 952.3,-1.2 			"/>
			<polygon class="st0" points="0,232.5 0.1,233 936.9,-1.2 934.8,-1.2 			"/>
			<polygon class="st0" points="932.8,-1.2 -0.1,232 0,232.5 934.8,-1.2 			"/>
			<polygon class="st0" points="0,221.1 917.3,-1.2 915.2,-1.2 -0.1,220.7 0.1,221.6 919.4,-1.2 917.3,-1.2 			"/>
			<polygon class="st0" points="0,210.4 899.8,-1.3 897.6,-1.3 -0.1,210 0.1,210.9 901.9,-1.3 899.8,-1.3 			"/>
			<polygon class="st0" points="0,200.4 882.3,-1.3 880,-1.3 -0.1,199.9 0.1,200.8 884.5,-1.3 882.3,-1.3 			"/>
			<polygon class="st0" points="374.2,-2.3 -0.1,44.5 0,45 378.2,-2.3 			"/>
			<polygon class="st0" points="0,45 0.1,45.5 382.2,-2.3 378.2,-2.3 			"/>
			<polygon class="st0" points="0,48 395.5,-2.2 391.6,-2.2 -0.1,47.5 0.1,48.5 399.4,-2.2 395.5,-2.2 			"/>
			<polygon class="st0" points="0,51 412.7,-2.2 408.9,-2.2 -0.1,50.6 0.1,51.5 416.6,-2.2 412.7,-2.2 			"/>
			<polygon class="st0" points="0,54.2 430,-2.2 426.2,-2.2 -0.1,53.7 0.1,54.7 433.8,-2.2 430,-2.2 			"/>
			<polygon class="st0" points="443.6,-2.1 -0.1,57 0,57.5 447.3,-2.1 			"/>
			<polygon class="st0" points="0,57.5 0.1,58 451,-2.1 447.3,-2.1 			"/>
			<polygon class="st0" points="0,60.9 0.1,61.4 468.3,-2.1 464.6,-2.1 			"/>
			<polygon class="st0" points="460.9,-2.1 -0.1,60.4 0,60.9 464.6,-2.1 			"/>
			<polygon class="st0" points="0,64.4 0.1,64.9 485.5,-2.1 481.9,-2.1 			"/>
			<polygon class="st0" points="478.3,-2.1 -0.1,63.9 0,64.4 481.9,-2.1 			"/>
			<polygon class="st0" points="0,42.1 0.1,42.6 365,-2.3 360.9,-2.3 			"/>
			<polygon class="st0" points="356.9,-2.3 -0.1,41.6 0,42.1 360.9,-2.3 			"/>
			<polygon class="st0" points="0,39.3 343.7,-2.3 339.6,-2.3 -0.1,38.8 0.1,39.8 347.8,-2.3 343.7,-2.3 			"/>
			<polygon class="st0" points="0,36.6 0.1,37.1 330.6,-2.4 326.4,-2.4 			"/>
			<polygon class="st0" points="322.3,-2.4 -0.1,36.1 0,36.6 326.4,-2.4 			"/>
			<polygon class="st0" points="0,34 309.2,-2.4 305,-2.4 -0.1,33.5 0.1,34.5 313.4,-2.4 309.2,-2.4 			"/>
			<polygon class="st0" points="0,31.4 292,-2.4 287.7,-2.4 -0.1,30.9 0.1,31.9 296.3,-2.4 292,-2.4 			"/>
		</g>
		<g>
			<polygon class="st0" points="2999.6,257.5 2999.5,258 2027.8,-1.1 2029.7,-1.1 			"/>
			<polygon class="st0" points="2031.6,-1.1 2999.7,257 2999.6,257.5 2029.7,-1.1 			"/>
			<polygon class="st0" points="2014,-1.1 2949.7,257 2949.6,257.5 2012.1,-1.1 			"/>
			<polygon class="st0" points="2949.6,257.5 2949.4,258 2010.3,-1.1 2012.1,-1.1 			"/>
			<polygon class="st0" points="1517.9,-0.2 1550.1,257.4 1549.6,257.5 1517.4,-0.2 			"/>
			<polygon class="st0" points="1549.6,257.5 1549.1,257.6 1516.9,-0.2 1517.4,-0.2 			"/>
			<polygon class="st0" points="1996.4,-1.1 2899.7,257 2899.6,257.5 1994.6,-1.1 			"/>
			<polygon class="st0" points="2899.6,257.5 2899.4,258 1992.8,-1.1 1994.6,-1.1 			"/>
			<polygon class="st0" points="2849.6,257.5 2849.4,258 1975.3,-1 1977,-1 			"/>
			<polygon class="st0" points="1978.8,-1 2849.7,257 2849.6,257.5 1977,-1 			"/>
			<polygon class="st0" points="1961.1,-1 2799.7,257 2799.6,257.5 1959.4,-1 			"/>
			<polygon class="st0" points="2799.6,257.5 2799.4,258 1957.8,-1 1959.4,-1 			"/>
			<polygon class="st0" points="2749.6,257.5 2749.4,258 1940.2,-1 1941.9,-1 			"/>
			<polygon class="st0" points="1943.5,-1 2749.7,257 2749.6,257.5 1941.9,-1 			"/>
			<polygon class="st0" points="1925.9,-0.9 2699.7,257 2699.6,257.5 1924.3,-0.9 			"/>
			<polygon class="st0" points="2699.6,257.5 2699.4,258 1922.7,-0.9 1924.3,-0.9 			"/>
			<polygon class="st0" points="1908.2,-0.9 2649.7,257 2649.6,257.5 1906.7,-0.9 			"/>
			<polygon class="st0" points="2649.6,257.5 2649.4,258 1905.2,-0.9 1906.7,-0.9 			"/>
			<polygon class="st0" points="2599.6,257.5 2599.4,258 1887.6,-0.9 1889.1,-0.9 			"/>
			<polygon class="st0" points="1890.5,-0.9 2599.8,257 2599.6,257.5 1889.1,-0.9 			"/>
			<polygon class="st0" points="2549.6,257.5 2549.4,258 1870.1,-0.8 1871.5,-0.8 			"/>
			<polygon class="st0" points="1872.9,-0.8 2549.8,257 2549.6,257.5 1871.5,-0.8 			"/>
			<polygon class="st0" points="1599.6,257.5 1599.1,257.6 1534.6,-0.2 1535.2,-0.2 			"/>
			<polygon class="st0" points="1535.7,-0.2 1600.1,257.4 1599.6,257.5 1535.2,-0.2 			"/>
			<polygon class="st0" points="1649.6,257.5 1649.1,257.7 1552.4,-0.2 1552.9,-0.2 			"/>
			<polygon class="st0" points="1553.5,-0.2 1650,257.3 1649.6,257.5 1552.9,-0.2 			"/>
			<polygon class="st0" points="1699.6,257.5 1699.1,257.7 1570.1,-0.3 1570.7,-0.3 			"/>
			<polygon class="st0" points="1571.3,-0.3 1700,257.3 1699.6,257.5 1570.7,-0.3 			"/>
			<polygon class="st0" points="1589.1,-0.3 1750,257.2 1749.6,257.5 1588.5,-0.3 			"/>
			<polygon class="st0" points="1749.6,257.5 1749.2,257.8 1587.9,-0.3 1588.5,-0.3 			"/>
			<polygon class="st0" points="1799.6,257.5 1799.2,257.8 1605.6,-0.3 1606.2,-0.3 			"/>
			<polygon class="st0" points="1606.8,-0.3 1800,257.2 1799.6,257.5 1606.2,-0.3 			"/>
			<polygon class="st0" points="1624.6,-0.4 1850,257.2 1849.6,257.5 1624,-0.4 			"/>
			<polygon class="st0" points="1849.6,257.5 1849.2,257.8 1623.3,-0.4 1624,-0.4 			"/>
			<polygon class="st0" points="1899.6,257.5 1899.2,257.9 1641,-0.4 1641.7,-0.4 			"/>
			<polygon class="st0" points="1642.4,-0.4 1899.9,257.1 1899.6,257.5 1641.7,-0.4 			"/>
			<polygon class="st0" points="1949.6,257.5 1949.2,257.9 1658.7,-0.4 1659.4,-0.4 			"/>
			<polygon class="st0" points="1660.2,-0.4 1949.9,257.1 1949.6,257.5 1659.4,-0.4 			"/>
			<polygon class="st0" points="1999.6,257.5 1999.3,257.9 1676.3,-0.5 1677.1,-0.5 			"/>
			<polygon class="st0" points="1677.9,-0.5 1999.9,257.1 1999.6,257.5 1677.1,-0.5 			"/>
			<polygon class="st0" points="1695.7,-0.5 2049.9,257.1 2049.6,257.5 1694.8,-0.5 			"/>
			<polygon class="st0" points="2049.6,257.5 2049.3,257.9 1694,-0.5 1694.8,-0.5 			"/>
			<polygon class="st0" points="2099.6,257.5 2099.3,257.9 1711.6,-0.5 1712.5,-0.5 			"/>
			<polygon class="st0" points="1713.4,-0.5 2099.9,257.1 2099.6,257.5 1712.5,-0.5 			"/>
			<polygon class="st0" points="2149.6,257.5 2149.3,257.9 1729.3,-0.6 1730.2,-0.6 			"/>
			<polygon class="st0" points="1731.2,-0.6 2149.8,257.1 2149.6,257.5 1730.2,-0.6 			"/>
			<polygon class="st0" points="1748.9,-0.6 2199.8,257.1 2199.6,257.5 1747.9,-0.6 			"/>
			<polygon class="st0" points="2199.6,257.5 2199.3,257.9 1746.9,-0.6 1747.9,-0.6 			"/>
			<polygon class="st0" points="1766.6,-0.6 2249.8,257.1 2249.6,257.5 1765.6,-0.6 			"/>
			<polygon class="st0" points="2249.6,257.5 2249.3,257.9 1764.5,-0.6 1765.6,-0.6 			"/>
			<polygon class="st0" points="1784.4,-0.7 2299.8,257.1 2299.6,257.5 1783.3,-0.7 			"/>
			<polygon class="st0" points="2299.6,257.5 2299.4,257.9 1782.1,-0.7 1783.3,-0.7 			"/>
			<polygon class="st0" points="1802.1,-0.7 2349.8,257 2349.6,257.5 1800.9,-0.7 			"/>
			<polygon class="st0" points="2349.6,257.5 2349.4,258 1799.7,-0.7 1800.9,-0.7 			"/>
			<polygon class="st0" points="1819.8,-0.7 2399.8,257 2399.6,257.5 1818.6,-0.7 			"/>
			<polygon class="st0" points="2399.6,257.5 2399.4,258 1817.3,-0.7 1818.6,-0.7 			"/>
			<polygon class="st0" points="2449.6,257.5 2449.4,258 1834.9,-0.8 1836.2,-0.8 			"/>
			<polygon class="st0" points="1837.5,-0.8 2449.8,257 2449.6,257.5 1836.2,-0.8 			"/>
			<polygon class="st0" points="2499.6,257.5 2499.4,258 1852.5,-0.8 1853.8,-0.8 			"/>
			<polygon class="st0" points="1855.2,-0.8 2499.8,257 2499.6,257.5 1853.8,-0.8 			"/>
			<polygon class="st0" points="2154.6,-1.4 2999.7,181.3 2999.6,181.8 2152.3,-1.4 			"/>
			<polygon class="st0" points="2999.6,181.8 2999.5,182.3 2150,-1.4 2152.3,-1.4 			"/>
			<polygon class="st0" points="2999.6,190.8 2999.5,191.3 2132.5,-1.3 2134.8,-1.3 			"/>
			<polygon class="st0" points="2137.1,-1.3 2999.7,190.3 2999.6,190.8 2134.8,-1.3 			"/>
			<polygon class="st0" points="2999.6,173.3 2999.5,173.8 2167.4,-1.4 2169.8,-1.4 			"/>
			<polygon class="st0" points="2172.2,-1.4 2999.7,172.8 2999.6,173.3 2169.8,-1.4 			"/>
			<polygon class="st0" points="2189.7,-1.4 2999.7,164.7 2999.6,165.2 2187.2,-1.4 			"/>
			<polygon class="st0" points="2999.6,165.2 2999.5,165.7 2184.8,-1.4 2187.2,-1.4 			"/>
			<polygon class="st0" points="2999.6,157.5 2999.5,158 2202.2,-1.5 2204.7,-1.5 			"/>
			<polygon class="st0" points="2207.2,-1.5 2999.7,157 2999.6,157.5 2204.7,-1.5 			"/>
			<polygon class="st0" points="2224.8,-1.5 2999.7,149.7 2999.6,150.2 2222.2,-1.5 			"/>
			<polygon class="st0" points="2999.6,150.2 2999.5,150.7 2219.6,-1.5 2222.2,-1.5 			"/>
			<polygon class="st0" points="2999.6,143.2 2999.5,143.7 2237,-1.5 2239.6,-1.5 			"/>
			<polygon class="st0" points="2242.3,-1.5 2999.7,142.7 2999.6,143.2 2239.6,-1.5 			"/>
			<polygon class="st0" points="2999.6,68 2500.3,-2 2503.9,-2 2999.7,67.5 2999.5,68.5 2496.8,-2 2500.3,-2 			"/>
			<polygon class="st0" points="2999.6,71.8 2483,-2 2486.5,-2 2999.7,71.3 2999.5,72.3 2479.5,-2 2483,-2 			"/>
			<polygon class="st0" points="2999.6,75.7 2999.5,76.2 2462.3,-2 2465.7,-2 			"/>
			<polygon class="st0" points="2469.1,-2 2999.7,75.2 2999.6,75.7 2465.7,-2 			"/>
			<polygon class="st0" points="2999.6,79.7 2448.4,-1.9 2451.7,-1.9 2999.7,79.2 2999.5,80.2 2445,-1.9 2448.4,-1.9 			"/>
			<polygon class="st0" points="2999.6,83.9 2999.5,84.4 2427.7,-1.9 2431,-1.9 			"/>
			<polygon class="st0" points="2434.3,-1.9 2999.7,83.4 2999.6,83.9 2431,-1.9 			"/>
			<polygon class="st0" points="2999.6,88.3 2413.6,-1.9 2416.9,-1.9 2999.7,87.8 2999.5,88.8 2410.4,-1.9 2413.6,-1.9 			"/>
			<polygon class="st0" points="2999.6,92.8 2999.5,93.3 2393.1,-1.8 2396.3,-1.8 			"/>
			<polygon class="st0" points="2399.5,-1.8 2999.7,92.3 2999.6,92.8 2396.3,-1.8 			"/>
			<polygon class="st0" points="2999.6,97.5 2999.5,98 2375.8,-1.8 2378.9,-1.8 			"/>
			<polygon class="st0" points="2382,-1.8 2999.7,97 2999.6,97.5 2378.9,-1.8 			"/>
			<polygon class="st0" points="2999.6,102.4 2361.5,-1.8 2364.6,-1.8 2999.7,101.9 2999.5,102.9 2358.5,-1.8 2361.5,-1.8 			"/>
			<polygon class="st0" points="2347.1,-1.7 2999.7,107 2999.6,107.5 2344.1,-1.7 			"/>
			<polygon class="st0" points="2999.6,107.5 2999.5,108 2341.1,-1.7 2344.1,-1.7 			"/>
			<polygon class="st0" points="2259.8,-1.6 2999.7,136.1 2999.6,136.6 2257.1,-1.6 			"/>
			<polygon class="st0" points="2999.6,136.6 2999.5,137.1 2254.4,-1.6 2257.1,-1.6 			"/>
			<polygon class="st0" points="2999.6,130.2 2274.5,-1.6 2277.3,-1.6 2999.7,129.7 2999.5,130.7 2271.7,-1.6 2274.5,-1.6 			"/>
			<polygon class="st0" points="2999.6,124.2 2291.9,-1.6 2294.7,-1.6 2999.7,123.7 2999.5,124.7 2289.1,-1.6 2291.9,-1.6 			"/>
			<polygon class="st0" points="2999.6,118.4 2999.5,118.9 2306.4,-1.7 2309.3,-1.7 			"/>
			<polygon class="st0" points="2312.2,-1.7 2999.7,117.9 2999.6,118.4 2309.3,-1.7 			"/>
			<polygon class="st0" points="2999.6,112.8 2326.7,-1.7 2329.7,-1.7 2999.7,112.3 2999.5,113.3 2323.8,-1.7 2326.7,-1.7 			"/>
			<polygon class="st0" points="2049.2,-1.2 2999.7,244.1 2999.6,244.6 2047.2,-1.2 			"/>
			<polygon class="st0" points="2999.6,244.6 2999.5,245.1 2045.2,-1.2 2047.2,-1.2 			"/>
			<polygon class="st0" points="2999.6,232.5 2999.5,233 2062.7,-1.2 2064.8,-1.2 			"/>
			<polygon class="st0" points="2066.8,-1.2 2999.7,232 2999.6,232.5 2064.8,-1.2 			"/>
			<polygon class="st0" points="2999.6,221.1 2082.3,-1.2 2084.4,-1.2 2999.7,220.7 2999.5,221.6 2080.2,-1.2 2082.3,-1.2 			"/>
			<polygon class="st0" points="2999.6,210.4 2099.8,-1.3 2102,-1.3 2999.7,210 2999.5,210.9 2097.6,-1.3 2099.8,-1.3 			"/>
			<polygon class="st0" points="2999.6,200.4 2117.3,-1.3 2119.5,-1.3 2999.7,199.9 2999.5,200.8 2115.1,-1.3 2117.3,-1.3 			"/>
			<polygon class="st0" points="2625.4,-2.3 2999.6,44.5 2999.6,45 2621.4,-2.3 			"/>
			<polygon class="st0" points="2999.6,45 2999.5,45.5 2617.4,-2.3 2621.4,-2.3 			"/>
			<polygon class="st0" points="2999.6,48 2604.1,-2.2 2608,-2.2 2999.6,47.5 2999.5,48.5 2600.2,-2.2 2604.1,-2.2 			"/>
			<polygon class="st0" points="2999.6,51 2586.8,-2.2 2590.7,-2.2 2999.6,50.6 2999.5,51.5 2583,-2.2 2586.8,-2.2 			"/>
			<polygon class="st0" points="2999.6,54.2 2569.6,-2.2 2573.4,-2.2 2999.6,53.7 2999.5,54.7 2565.8,-2.2 2569.6,-2.2 			"/>
			<polygon class="st0" points="2556,-2.1 2999.6,57 2999.6,57.5 2552.3,-2.1 			"/>
			<polygon class="st0" points="2999.6,57.5 2999.5,58 2548.5,-2.1 2552.3,-2.1 			"/>
			<polygon class="st0" points="2999.6,60.9 2999.5,61.4 2531.3,-2.1 2535,-2.1 			"/>
			<polygon class="st0" points="2538.6,-2.1 2999.6,60.4 2999.6,60.9 2535,-2.1 			"/>
			<polygon class="st0" points="2999.6,64.4 2999.5,64.9 2514.1,-2.1 2517.7,-2.1 			"/>
			<polygon class="st0" points="2521.3,-2.1 2999.6,63.9 2999.6,64.4 2517.7,-2.1 			"/>
			<polygon class="st0" points="2999.6,42.1 2999.5,42.6 2634.6,-2.3 2638.6,-2.3 			"/>
			<polygon class="st0" points="2642.7,-2.3 2999.6,41.6 2999.6,42.1 2638.6,-2.3 			"/>
			<polygon class="st0" points="2999.6,39.3 2655.9,-2.3 2660,-2.3 2999.6,38.8 2999.5,39.8 2651.8,-2.3 2655.9,-2.3 			"/>
			<polygon class="st0" points="2999.6,36.6 2999.5,37.1 2669,-2.4 2673.1,-2.4 			"/>
			<polygon class="st0" points="2677.3,-2.4 2999.6,36.1 2999.6,36.6 2673.1,-2.4 			"/>
			<polygon class="st0" points="2999.6,34 2690.4,-2.4 2694.6,-2.4 2999.6,33.5 2999.5,34.5 2686.2,-2.4 2690.4,-2.4 			"/>
			<polygon class="st0" points="2999.6,31.4 2707.6,-2.4 2711.9,-2.4 2999.6,30.9 2999.5,31.9 2703.3,-2.4 2707.6,-2.4 			"/>
		</g>
	</g>
</g>
<g id="Layer_3">
	<line class="st1" x1="3000" y1="239.5" x2="0" y2="239.5"/>
	<line class="st1" x1="3000" y1="219.5" x2="0" y2="219.5"/>
	<line class="st1" x1="3000" y1="200.5" x2="0" y2="200.5"/>
	<line class="st1" x1="3000" y1="181.5" x2="0" y2="181.5"/>
	<line class="st1" x1="3000" y1="163.5" x2="0" y2="163.5"/>
	<line class="st1" x1="3000" y1="145.5" x2="0" y2="145.5"/>
	<line class="st1" x1="3000" y1="128.5" x2="0" y2="128.5"/>
	<line class="st1" x1="3000" y1="111.5" x2="0" y2="111.5"/>
	<line class="st1" x1="3000" y1="95.5" x2="0" y2="95.5"/>
	<line class="st1" x1="3000" y1="79.5" x2="0" y2="79.5"/>
	<line class="st1" x1="3000" y1="64.5" x2="0" y2="64.5"/>
	<line class="st1" x1="3000" y1="49.5" x2="0" y2="49.5"/>
	<line class="st1" x1="3000" y1="35.5" x2="0" y2="35.5"/>
	<line class="st1" x1="3000" y1="21.5" x2="0" y2="21.5"/>
	<line class="st1" x1="3000" y1="8.5" x2="0" y2="8.5"/>
</g>
</svg>
