<?xml version="1.0" encoding="utf-8"?>
<!-- Generator: Adobe Illustrator 22.1.0, SVG Export Plug-In . SVG Version: 6.00 Build 0)  -->
<svg version="1.1" id="Layer_1" xmlns="http://www.w3.org/2000/svg" xmlns:xlink="http://www.w3.org/1999/xlink" x="0px" y="0px"
	 viewBox="0 0 441 371" style="enable-background:new 0 0 441 371;" xml:space="preserve">
<style type="text/css">
	.st0{fill:#EFEFEF;}
	.st1{fill:#A2A2A2;}
	.st2{fill:#E6E6E6;}
	.st3{fill:#D7D7D7;}
	.st4{fill:#B8B8B8;}
	.st5{fill:#A5A4A4;}
	.st6{fill:#ADAEA5;}
	.st7{fill:#D8D8D8;}
	.st8{fill:#BABABA;}
</style>
<rect x="143" y="59" class="st0" width="22" height="11"/>
<rect x="165" y="47" class="st0" width="12" height="12"/>
<rect x="177" y="37" class="st0" width="11" height="22"/>
<rect x="188" y="37" class="st0" width="56" height="11"/>
<rect x="244" y="37" class="st0" width="23" height="11"/>
<rect x="267" y="37" class="st0" width="12" height="11"/>
<rect x="279" y="48" class="st1" width="11" height="11"/>
<rect x="290" y="59" class="st1" width="11" height="11"/>
<rect x="301" y="59" class="st1" width="11" height="11"/>
<rect x="312" y="70" class="st1" width="11" height="11"/>
<rect x="323" y="81" class="st1" width="12" height="12"/>
<rect x="335" y="93" class="st1" width="12" height="11"/>
<rect x="347" y="104" class="st1" width="11" height="12"/>
<rect x="347" y="116" class="st1" width="11" height="11"/>
<rect x="347" y="127" class="st1" width="21" height="95"/>
<rect x="347" y="222" class="st1" width="21" height="7"/>
<rect x="324" y="263" class="st1" width="11" height="12"/>
<rect x="313" y="275" class="st1" width="11" height="11"/>
<rect x="301" y="286" class="st1" width="12" height="11"/>
<rect x="279" y="296" class="st0" width="12" height="12"/>
<rect x="291" y="286" class="st0" width="10" height="11"/>
<rect x="267" y="308" class="st2" width="12" height="12"/>
<rect x="244" y="308" class="st2" width="23" height="12"/>
<rect x="176" y="308" class="st2" width="68" height="12"/>
<rect x="165" y="297" class="st0" width="11" height="11"/>
<rect x="144" y="286" class="st0" width="10" height="11"/>
<rect x="347" y="229" class="st1" width="11" height="22"/>
<rect x="154" y="286" class="st0" width="11" height="11"/>
<rect x="120" y="263" class="st0" width="11" height="11"/>
<rect x="108" y="252" class="st0" width="12" height="11"/>
<rect x="97" y="241" class="st0" width="11" height="11"/>
<rect x="97" y="229" class="st3" width="11" height="12"/>
<rect x="85" y="127" class="st0" width="23" height="102"/>
<rect x="96" y="104" class="st0" width="24" height="23"/>
<rect x="120" y="93" class="st0" width="11" height="11"/>
<rect x="120" y="81" class="st0" width="11" height="12"/>
<rect x="131" y="70" class="st0" width="12" height="11"/>
<rect x="291" y="263" class="st2" width="11" height="12"/>
<rect x="279" y="263" class="st2" width="12" height="12"/>
<rect x="279" y="275" class="st1" width="12" height="21"/>
<rect x="257" y="263" class="st4" width="22" height="22"/>
<rect x="268" y="285" class="st2" width="11" height="11"/>
<rect x="141" y="70" class="st2" width="23" height="13"/>
<rect x="165" y="59" class="st2" width="10" height="11"/>
<rect x="120" y="126" class="st2" width="11" height="11"/>
<rect x="120" y="104" class="st2" width="11" height="22"/>
<rect x="131" y="91" class="st2" width="11" height="11"/>
<rect x="131" y="102" class="st2" width="11" height="11"/>
<rect x="131" y="81" class="st2" width="10" height="10"/>
<rect x="267" y="48" class="st3" width="12" height="11"/>
<rect x="279" y="59" class="st3" width="11" height="11"/>
<rect x="290" y="70" class="st3" width="22" height="11"/>
<rect x="312" y="81" class="st3" width="11" height="12"/>
<rect x="323" y="93" class="st3" width="12" height="11"/>
<rect x="324" y="252" class="st3" width="11" height="11"/>
<rect x="313" y="263" class="st3" width="11" height="12"/>
<rect x="301" y="275" class="st1" width="12" height="11"/>
<rect x="291" y="275" class="st1" width="11" height="12"/>
<rect x="267" y="59" class="st3" width="12" height="11"/>
<rect x="279" y="70" class="st3" width="11" height="11"/>
<rect x="290" y="81" class="st3" width="22" height="12"/>
<rect x="312" y="93" class="st3" width="11" height="11"/>
<rect x="249" y="48" class="st2" width="18" height="24"/>
<rect x="267" y="70" class="st2" width="12" height="11"/>
<rect x="279" y="81" class="st2" width="11" height="12"/>
<rect x="290" y="93" class="st2" width="22" height="11"/>
<rect x="236" y="48" class="st2" width="13" height="13"/>
<rect x="257" y="70" class="st2" width="10" height="11"/>
<rect x="267" y="81" class="st2" width="12" height="12"/>
<rect x="302" y="263" class="st2" width="11" height="12"/>
<rect x="268" y="296" class="st2" width="11" height="12"/>
<rect x="291" y="296" class="st1" width="11" height="12"/>
<rect x="257" y="285" class="st2" width="11" height="23"/>
<rect x="120" y="349" class="st1" width="8" height="8"/>
<rect x="301" y="361" class="st1" width="10" height="10"/>
<rect x="381" y="53" class="st1" width="12" height="12"/>
<rect x="223" class="st1" width="6" height="6"/>
<rect x="32" y="282" class="st1" width="19" height="19"/>
<rect x="327" y="34" class="st1" width="5" height="5"/>
<rect x="44" y="72" class="st1" width="7" height="7"/>
<rect x="430" y="247" class="st1" width="11" height="11"/>
<rect y="132" class="st1" width="5" height="5"/>
<rect x="23" y="147" class="st1" width="1" height="1"/>
<rect x="37" y="178" class="st1" width="9" height="9"/>
<rect x="87" y="80" class="st1" width="2" height="2"/>
<rect x="435" y="142" class="st1" width="5" height="5"/>
<rect x="257" y="81" class="st2" width="10" height="12"/>
<rect x="267" y="93" class="st2" width="13" height="11"/>
<rect x="257" y="93" class="st2" width="10" height="11"/>
<rect x="188" y="48" class="st3" width="30" height="11"/>
<rect x="108" y="127" class="st0" width="12" height="114"/>
<rect x="120" y="137" class="st0" width="11" height="11"/>
<rect x="120" y="148" class="st0" width="11" height="104"/>
<rect x="108" y="241" class="st3" width="12" height="11"/>
<rect x="120" y="252" class="st3" width="11" height="11"/>
<rect x="131" y="263" class="st3" width="13" height="11"/>
<rect x="165" y="286" class="st3" width="11" height="11"/>
<rect x="176" y="297" class="st3" width="59" height="11"/>
<rect x="165" y="274" class="st1" width="11" height="12"/>
<rect x="176" y="274" class="st0" width="12" height="23"/>
<rect x="176" y="265" class="st3" width="10" height="9"/>
<rect x="195" y="265" class="st3" width="9" height="32"/>
<rect x="186" y="265" class="st2" width="9" height="9"/>
<rect x="186" y="274" class="st1" width="9" height="23"/>
<polygon class="st5" points="232,76 247,76 247,131 232,131 232,144 220,144 220,158 179,158 179,144 206.5,144 206.5,130.5 
	218.5,130.5 218.5,117.5 232.5,117.5 "/>
<polygon class="st3" points="210.6,46 238.2,46 238.2,59 252.5,59 252.5,72 266.7,72 266.7,100 280,100 280,139 265.7,139 
	265.7,153 252.5,153 252.5,165 240.2,165 240.2,180 170.8,180 170.8,167 156.5,167 156.5,153 142.3,153 142.3,139 129,139 129,113 
	142.3,113 "/>
<polygon class="st5" points="235,81 249,81 249,135 235,135 235,149 223,149 223,162 182,162 182,149 208.5,149 208.5,135.5 
	222.5,135.5 222.5,121.5 235.5,121.5 "/>
<polygon class="st6" points="141,82 155,82 155,69 168,69 168,56 182,56 182,42 209,42 209,56 222,56 222,69 236,69 236,124 
	223,124 223,137 209,137 209,150 169,150 169,138 155,138 155,123 141,123 "/>
<polygon class="st7" points="185,65 172,65 172,79 159,79 159,91 145,91 145,106 159,106 159,94 172,94 172,83 185,83 "/>
<polygon class="st2" points="142.4,237 156.7,237 156.7,250.3 168.1,250.3 168.1,262.7 154.8,262.7 154.8,276 142.4,276 
	142.4,263.6 131,263.6 131,251.3 140.5,251.3 142.4,251.3 "/>
<rect x="280" y="93" class="st2" width="10" height="11"/>
<rect x="301" y="104" class="st2" width="11" height="11"/>
<rect x="312" y="104" class="st2" width="23" height="11"/>
<rect x="335" y="104" class="st3" width="12" height="147"/>
<polygon class="st8" points="280,224 280,212 295.3,212 295.3,198 308.5,198 308.5,212 323.8,212 323.8,224 323.8,238 338,238 
	338,252 323.8,252 323.8,265 309.5,265 294.2,265 294.2,252 280,252 280,238 "/>
<rect x="288" y="221" class="st3" width="12" height="11"/>
<rect x="131" y="274" class="st0" width="13" height="12"/>
<rect x="300" y="232" class="st3" width="11" height="11"/>
<rect x="311" y="243" class="st3" width="13" height="11"/>
<rect x="378" y="259" class="st3" width="10" height="9"/>
<rect x="204" y="287" class="st2" width="10" height="10"/>
<rect x="214" y="277" class="st2" width="10" height="10"/>
<rect x="224" y="267" class="st2" width="10" height="10"/>
<rect x="144" y="274" class="st3" width="21" height="12"/>
<rect x="280" y="104" class="st0" width="21" height="11"/>
<rect x="335" y="251" class="st1" width="12" height="12"/>
<rect x="324" y="115" class="st0" width="11" height="11"/>
<rect x="280" y="115" class="st0" width="44" height="11"/>
<rect x="324" y="126" class="st0" width="11" height="112"/>
<rect x="308" y="126" class="st0" width="16" height="87"/>
<rect x="298" y="126" class="st0" width="12" height="72"/>
<rect x="280" y="126" class="st0" width="18" height="86"/>
<rect x="156" y="218" class="st0" width="33" height="33"/>
<rect x="174" y="218" class="st1" width="15" height="16"/>
<rect x="266" y="139" class="st0" width="14" height="124"/>
<rect x="280" y="252" class="st0" width="14" height="11"/>
<rect x="252" y="153" class="st0" width="14" height="110"/>
<rect x="240" y="165" class="st0" width="17" height="143"/>
<rect x="234" y="180" class="st0" width="6" height="128"/>
<rect x="224" y="277" class="st1" width="10" height="20"/>
<rect x="214" y="287" class="st1" width="10" height="10"/>
<rect x="214" y="180" class="st0" width="10" height="97"/>
<rect x="224" y="180" class="st0" width="10" height="87"/>
<rect x="204" y="180" class="st0" width="10" height="107"/>
<rect x="189" y="180" class="st0" width="15" height="85"/>
<rect x="131" y="139" class="st0" width="12" height="113"/>
<rect x="143" y="153" class="st0" width="14" height="84"/>
<rect x="157" y="167" class="st0" width="14" height="51"/>
<rect x="171" y="180" class="st0" width="18" height="38"/>
<rect x="103" y="187" class="st1" width="28" height="28"/>
<rect x="289" y="150" class="st1" width="15" height="16"/>
<rect x="168" y="251" class="st0" width="21" height="14"/>
<rect x="155" y="262" class="st3" width="21" height="12"/>
<rect x="131" y="175" class="st3" width="12" height="12"/>
<rect x="143" y="187" class="st3" width="12" height="12"/>
<rect x="143" y="175" class="st3" width="12" height="12"/>
<rect x="155" y="199" class="st3" width="12" height="12"/>
<rect x="286" y="198" class="st3" width="12" height="14"/>
<rect x="298" y="184" class="st3" width="10" height="14"/>
<rect x="308" y="198" class="st3" width="12" height="15"/>
</svg>
