<svg xmlns="http://www.w3.org/2000/svg" viewBox="0 0 367.9 304.82"><defs><style>.cls-1,.cls-2{fill:#efefef;}.cls-1{opacity:1;}.cls-3{fill:#ccc;}.cls-4{fill:#bababa;}.cls-5{fill:#e5e5e5;}.cls-6{fill:#dbdbdb;}.cls-7{fill:#c9c9c9;}.cls-8{fill:#eaeaea;}.cls-9{fill:#d3d3d3;}.cls-10{fill:#b5b5b5;}.cls-11{fill:#f9f9f9;}.cls-12{fill:#a2a2a2;}.cls-13{fill:#d7d7d7;}</style></defs><title>Asset 1</title><g id="Layer_2" data-name="Layer 2"><g id="Layer_6" data-name="Layer 6"><polygon class="cls-1" points="79.9 115.55 79.9 187.55 88.9 187.55 88.9 205.55 97.9 205.55 97.9 214.55 106.9 214.55 106.9 223.55 115.9 223.55 115.9 232.55 124.9 232.55 133.9 232.55 133.9 241.55 142.9 241.55 142.9 250.55 214.9 250.55 214.9 241.55 223.9 241.55 223.9 232.55 241.9 232.55 241.9 223.55 250.9 223.55 250.9 214.55 259.9 214.55 259.9 205.55 268.9 205.55 268.9 187.55 277.9 187.55 277.9 115.55 268.9 115.55 268.9 97.55 259.9 97.55 259.9 88.55 250.9 88.55 250.9 79.55 241.9 79.55 241.9 70.55 223.9 70.55 223.9 61.55 214.9 61.55 214.9 52.55 142.9 52.55 142.9 61.55 133.9 61.55 133.9 70.55 115.9 70.55 115.9 79.55 106.9 79.55 106.9 97.55 88.9 97.55 88.9 115.55 79.9 115.55"/><polygon class="cls-2" points="178.9 52.55 178.9 61.55 187.9 61.55 187.9 79.55 196.9 79.55 196.9 97.55 205.9 97.55 205.9 106.55 214.9 106.55 214.9 124.55 223.9 124.55 223.9 178.55 214.9 178.55 214.9 196.55 205.9 196.55 205.9 205.55 196.9 205.55 196.9 223.55 187.9 223.55 187.9 241.55 178.9 241.55 178.9 250.55 214.9 250.55 214.9 241.55 223.9 241.55 223.9 232.55 241.9 232.55 241.9 223.55 250.9 223.55 250.9 214.55 259.9 214.55 259.9 205.55 268.9 205.55 268.9 187.55 277.9 187.55 277.9 115.55 268.9 115.55 268.9 97.55 259.9 97.55 259.9 88.55 250.9 88.55 250.9 79.55 241.9 79.55 241.9 70.55 223.9 70.55 223.9 61.55 214.9 61.55 214.9 52.55 178.9 52.55"/><polygon class="cls-3" points="196.9 52.55 196.9 61.55 205.9 61.55 205.9 70.55 214.9 70.55 214.9 79.55 232.9 79.55 232.9 88.55 241.9 88.55 241.9 106.55 250.9 106.55 250.9 133.55 259.9 133.55 259.9 169.55 250.9 169.55 250.9 187.55 241.9 187.55 241.9 214.55 232.9 214.55 232.9 223.55 214.9 223.55 214.9 232.55 205.9 232.55 205.9 241.55 196.9 241.55 196.9 250.55 214.9 250.55 214.9 241.55 223.9 241.55 223.9 232.55 241.9 232.55 241.9 223.55 250.9 223.55 250.9 214.55 259.9 214.55 259.9 205.55 268.9 205.55 268.9 187.55 277.9 187.55 277.9 115.55 268.9 115.55 268.9 97.55 259.9 97.55 259.9 88.55 250.9 88.55 250.9 79.55 241.9 79.55 241.9 70.55 223.9 70.55 223.9 61.55 214.9 61.55 214.9 52.55 196.9 52.55"/><polygon class="cls-4" points="232.9 232.55 232.9 214.55 250.9 214.55 250.9 205.55 259.9 205.55 259.9 187.55 268.9 187.55 268.9 115.55 259.9 115.55 259.9 97.55 250.9 97.55 250.9 88.55 232.9 88.55 232.9 70.55 241.9 70.55 241.9 79.55 250.9 79.55 250.9 88.55 259.9 88.55 259.9 97.55 268.9 97.55 268.9 115.55 277.9 115.55 277.9 187.55 268.9 187.55 268.9 205.55 259.9 205.55 259.9 214.55 250.9 214.55 250.9 223.55 241.9 223.55 241.9 232.55 232.9 232.55"/><polygon class="cls-5" points="106.9 124.55 106.9 133.55 115.9 133.55 115.9 142.55 124.9 142.55 124.9 160.55 151.9 160.55 151.9 151.55 169.9 151.55 169.9 133.55 187.9 133.55 187.9 97.55 169.9 97.55 169.9 88.55 160.9 88.55 160.9 79.55 151.9 79.55 133.9 79.55 133.9 88.55 124.9 88.55 124.9 97.55 115.9 97.55 115.9 106.55 106.9 106.55 106.9 124.55"/><polygon class="cls-4" points="106.9 106.55 106.9 124.55 115.9 124.55 115.9 133.55 124.9 133.55 124.9 142.55 133.9 142.55 133.9 151.55 151.9 151.55 151.9 142.55 160.9 142.55 160.9 133.55 169.9 133.55 169.9 124.55 178.9 124.55 178.9 106.55 169.9 106.55 169.9 97.55 160.9 97.55 160.9 88.55 151.9 88.55 151.9 79.55 133.9 79.55 133.9 88.55 124.9 88.55 124.9 97.55 115.9 97.55 115.9 106.55 106.9 106.55"/><polyline class="cls-3" points="160.9 97.55 160.9 88.55 151.9 88.55 151.9 79.55 133.9 79.55 133.9 88.55 124.9 88.55 124.9 97.55 115.9 97.55 115.9 106.55 106.9 106.55 106.9 124.55 115.9 124.55 115.9 133.55 124.9 133.55 124.9 133.55 133.9 133.55 133.9 133.55 142.9 133.55 151.9 133.55 151.9 124.55 160.9 124.55"/><polygon class="cls-5" points="97.9 205.55 97.9 187.55 115.9 187.55 115.9 178.55 124.9 178.55 124.9 187.55 151.9 187.55 151.9 196.55 160.9 196.55 160.9 214.55 169.9 214.55 169.9 250.55 142.9 250.55 142.9 241.55 133.9 241.55 133.9 232.55 115.9 232.55 115.9 223.55 106.9 223.55 106.9 214.55 97.9 214.55 97.9 205.55"/><polygon class="cls-4" points="97.9 214.55 115.9 214.55 115.9 232.55 115.9 232.55 115.9 232.55 124.9 232.55 133.9 232.55 133.9 232.55 133.9 241.55 142.9 241.55 142.9 250.55 142.9 241.55 151.9 241.55 151.9 232.55 160.9 232.55 160.9 214.55 151.9 214.55 151.9 196.55 142.9 196.55 142.9 187.55 142.9 187.55 133.9 187.55 115.9 187.55 115.9 196.55 106.9 196.55 106.9 205.55 97.9 205.55 97.9 214.55 97.9 214.55"/><polyline class="cls-6" points="142.9 205.55 142.9 196.55 133.9 196.55 133.9 187.55 115.9 187.55 115.9 196.55 106.9 196.55 106.9 205.55 97.9 205.55 97.9 214.55 106.9 214.55 106.9 223.55 115.9 223.55 115.9 232.55 124.9 232.55 133.9 232.55 133.9 241.55 133.9 241.55 133.9 241.55 133.9 241.55 142.9 241.55 142.9 232.55"/><rect class="cls-2" x="169.9" y="169.55" width="18" height="18"/><polygon class="cls-5" points="223.9 133.55 232.9 133.55 232.9 142.55 250.9 142.55 250.9 160.55 232.9 160.55 232.9 169.55 214.9 169.55 214.9 151.55 205.9 151.55 205.9 142.55 223.9 142.55 223.9 133.55"/><polygon class="cls-5" points="88.9 142.55 88.9 178.55 106.9 178.55 106.9 160.55 97.9 160.55 97.9 142.55 88.9 142.55"/><rect class="cls-7" x="97.9" y="160.55" width="9" height="9"/><polygon class="cls-8" points="124.9 97.55 124.9 106.55 115.9 106.55 115.9 115.55 124.9 115.55 124.9 106.55 133.9 106.55 133.9 97.55 142.9 97.55 142.9 88.55 133.9 88.55 133.9 97.55 124.9 97.55"/><rect class="cls-9" x="169.9" y="151.55" width="9" height="9"/><rect class="cls-9" x="178.9" y="169.55" width="9" height="9"/><rect class="cls-9" x="196.9" y="88.55" width="9" height="9"/><polygon class="cls-9" points="214.9 160.55 214.9 151.55 223.9 151.55 223.9 142.55 241.9 142.55 241.9 151.55 232.9 151.55 232.9 160.55 214.9 160.55"/><rect class="cls-10" x="232.9" y="151.55" width="9" height="9"/><polygon class="cls-11" points="88.9 205.55 97.9 205.55 97.9 187.55 88.9 187.55 88.9 124.55 97.9 124.55 97.9 106.55 106.9 106.55 106.9 97.55 115.9 97.55 115.9 79.55 133.9 79.55 133.9 70.55 142.9 70.55 142.9 61.55 178.9 61.55 178.9 52.55 142.9 52.55 142.9 61.55 133.9 61.55 133.9 70.55 115.9 70.55 115.9 79.55 106.9 79.55 106.9 97.55 88.9 97.55 88.9 115.55 79.9 115.55 79.9 187.55 88.9 187.55 88.9 205.55"/><rect class="cls-12" x="98.59" y="286.74" width="6.57" height="6.57"/><rect class="cls-12" x="247.31" y="296.6" width="8.22" height="8.22"/><rect class="cls-12" x="313.04" y="43.55" width="9.86" height="9.86"/><rect class="cls-12" x="183.22" width="4.93" height="4.93"/><rect class="cls-12" x="26.29" y="231.7" width="15.61" height="15.61"/><rect class="cls-12" x="268.67" y="27.93" width="4.11" height="4.11"/><rect class="cls-12" x="36.15" y="59.16" width="5.75" height="5.75"/><rect class="cls-12" x="358.86" y="205.44" width="9.04" height="9.04"/><rect class="cls-12" y="108.45" width="4.11" height="4.11"/><rect class="cls-12" x="30.4" y="146.25" width="7.39" height="7.39"/><rect class="cls-12" x="71.48" y="65.73" width="1.64" height="1.64"/><rect class="cls-12" x="357.4" y="116.67" width="4.11" height="4.11"/><rect class="cls-13" x="310.57" y="212.8" width="8.22" height="7.39"/><rect class="cls-12" x="18.9" y="120.78" width="0.82" height="0.82"/></g></g></svg>