<?xml version="1.0" encoding="utf-8"?>
<!-- Generator: Adobe Illustrator 22.1.0, SVG Export Plug-In . SVG Version: 6.00 Build 0)  -->
<svg version="1.1" id="Layer_1" xmlns="http://www.w3.org/2000/svg" xmlns:xlink="http://www.w3.org/1999/xlink" x="0px" y="0px"
	 viewBox="0 0 1920 83" style="enable-background:new 0 0 1920 83;" xml:space="preserve">
<style type="text/css">
	.st0{fill:none;stroke:#FFFFFF;stroke-miterlimit:10;}
	.st1{fill:#F16BE0;stroke:#FFFFFF;stroke-miterlimit:10;}
	.st2{fill:#F077E3;stroke:#FFFFFF;stroke-miterlimit:10;}
	.st3{fill:#B050CC;stroke:#FFFFFF;stroke-miterlimit:10;}
	.st4{fill:#D45DDB;stroke:#FFFFFF;stroke-miterlimit:10;}
	.st5{fill:#9850C2;stroke:#FFFFFF;stroke-miterlimit:10;}
	.st6{fill:#622166;stroke:#FFFFFF;stroke-miterlimit:10;}
	.st7{fill:#9549BD;stroke:#FFFFFF;stroke-miterlimit:10;}
	.st8{fill:#A758CA;stroke:#FFFFFF;stroke-miterlimit:10;}
	.st9{fill:#CD60DB;stroke:#FFFFFF;stroke-miterlimit:10;}
	.st10{fill:#AC65D0;stroke:#FFFFFF;stroke-miterlimit:10;}
	.st11{fill:#93439A;stroke:#FFFFFF;stroke-miterlimit:10;}
	.st12{fill:#AB5CCC;stroke:#FFFFFF;stroke-miterlimit:10;}
	.st13{fill:#B76DD7;stroke:#FFFFFF;stroke-miterlimit:10;}
	.st14{fill:#9A51C6;stroke:#FFFFFF;stroke-miterlimit:10;}
	.st15{fill:#A958C5;stroke:#FFFFFF;stroke-miterlimit:10;}
	.st16{fill:#EE81E5;stroke:#FFFFFF;stroke-miterlimit:10;}
	.st17{fill:#85226B;stroke:#FFFFFF;stroke-miterlimit:10;}
	.st18{fill:#61215B;stroke:#FFFFFF;stroke-miterlimit:10;}
	.st19{fill:#9E5BC1;stroke:#FFFFFF;stroke-miterlimit:10;}
	.st20{fill:#E463DE;stroke:#FFFFFF;stroke-miterlimit:10;}
	.st21{fill:#C13EA7;stroke:#FFFFFF;stroke-miterlimit:10;}
	.st22{fill:#EC6FE5;stroke:#FFFFFF;stroke-miterlimit:10;}
	.st23{fill:#EA6EE2;stroke:#FFFFFF;stroke-miterlimit:10;}
	.st24{fill:#BA429E;stroke:#FFFFFF;stroke-miterlimit:10;}
	.st25{fill:#A043A8;stroke:#FFFFFF;stroke-miterlimit:10;}
	.st26{fill:#B33ECF;stroke:#FFFFFF;stroke-miterlimit:10;}
	.st27{fill:#EE5EE2;stroke:#FFFFFF;stroke-miterlimit:10;}
	.st28{fill:#6A2365;stroke:#FFFFFF;stroke-miterlimit:10;}
	.st29{fill:#D869E0;stroke:#FFFFFF;stroke-miterlimit:10;}
	.st30{fill:#C165D4;stroke:#FFFFFF;stroke-miterlimit:10;}
	.st31{fill:#A960D0;stroke:#FFFFFF;stroke-miterlimit:10;}
	.st32{fill:#AC3292;stroke:#FFFFFF;stroke-miterlimit:10;}
	.st33{fill:#A550CA;stroke:#FFFFFF;stroke-miterlimit:10;}
	.st34{fill:#A249C9;stroke:#FFFFFF;stroke-miterlimit:10;}
	.st35{fill:#732D72;stroke:#FFFFFF;stroke-miterlimit:10;}
	.st36{fill:#D955BA;stroke:#FFFFFF;stroke-miterlimit:10;}
	.st37{fill:#863889;stroke:#FFFFFF;stroke-miterlimit:10;}
	.st38{stroke:#FFFFFF;stroke-miterlimit:10;}
	.st39{fill:#C853D9;stroke:#FFFFFF;stroke-miterlimit:10;}
	.st40{fill:#D147AC;stroke:#FFFFFF;stroke-miterlimit:10;}
	.st41{fill:#EB5BDA;stroke:#FFFFFF;stroke-miterlimit:10;}
	.st42{fill:#761E60;stroke:#FFFFFF;stroke-miterlimit:10;}
	.st43{fill:#ED4ED8;stroke:#FFFFFF;stroke-miterlimit:10;}
	.st44{fill:#D1399E;stroke:#FFFFFF;stroke-miterlimit:10;}
	.st45{fill:#922776;stroke:#FFFFFF;stroke-miterlimit:10;}
	.st46{fill:#62195F;stroke:#FFFFFF;stroke-miterlimit:10;}
	.st47{fill:#ED73E0;stroke:#FFFFFF;stroke-miterlimit:10;}
	.st48{fill:#DC58B5;stroke:#FFFFFF;stroke-miterlimit:10;}
	.st49{fill:#F268E3;stroke:#FFFFFF;stroke-miterlimit:10;}
	.st50{fill:#E45DDB;stroke:#FFFFFF;stroke-miterlimit:10;}
	.st51{fill:#A22B7B;stroke:#FFFFFF;stroke-miterlimit:10;}
	.st52{fill:#E155CB;stroke:#FFFFFF;stroke-miterlimit:10;}
	.st53{fill:#CB3FA2;stroke:#FFFFFF;stroke-miterlimit:10;}
	.st54{fill:#DA5BD5;stroke:#FFFFFF;stroke-miterlimit:10;}
	.st55{fill:#E35ED9;stroke:#FFFFFF;stroke-miterlimit:10;}
	.st56{fill:#EC6CE1;stroke:#FFFFFF;stroke-miterlimit:10;}
	.st57{fill:#C93DA8;stroke:#FFFFFF;stroke-miterlimit:10;}
	.st58{fill:#EA5EDB;stroke:#FFFFFF;stroke-miterlimit:10;}
	.st59{fill:#D84CB8;stroke:#FFFFFF;stroke-miterlimit:10;}
	.st60{fill:#8C388E;stroke:#FFFFFF;stroke-miterlimit:10;}
	.st61{fill:#63286E;stroke:#FFFFFF;stroke-miterlimit:10;}
	.st62{fill:#894097;stroke:#FFFFFF;stroke-miterlimit:10;}
	.st63{fill:#9A358D;stroke:#FFFFFF;stroke-miterlimit:10;}
	.st64{fill:#D84EBB;stroke:#FFFFFF;stroke-miterlimit:10;}
	.st65{fill:#E764E1;stroke:#FFFFFF;stroke-miterlimit:10;}
	.st66{fill:#8E44B6;stroke:#FFFFFF;stroke-miterlimit:10;}
	.st67{fill:#9B3086;stroke:#FFFFFF;stroke-miterlimit:10;}
	.st68{fill:#A32D7A;stroke:#FFFFFF;stroke-miterlimit:10;}
	.st69{fill:#E058CA;stroke:#FFFFFF;stroke-miterlimit:10;}
	.st70{fill:#5C275D;stroke:#FFFFFF;stroke-miterlimit:10;}
	.st71{fill:#763180;stroke:#FFFFFF;stroke-miterlimit:10;}
	.st72{fill:#C753D2;stroke:#FFFFFF;stroke-miterlimit:10;}
	.st73{fill:#9B2B76;stroke:#FFFFFF;stroke-miterlimit:10;}
	.st74{fill:#DA49C6;stroke:#FFFFFF;stroke-miterlimit:10;}
	.st75{fill:#B83596;stroke:#FFFFFF;stroke-miterlimit:10;}
	.st76{fill:#CA369F;stroke:#FFFFFF;stroke-miterlimit:10;}
	.st77{fill:#DE57C0;stroke:#FFFFFF;stroke-miterlimit:10;}
	.st78{fill:#F48EE9;stroke:#FFFFFF;stroke-miterlimit:10;}
	.st79{fill:#B22E95;stroke:#FFFFFF;stroke-miterlimit:10;}
	.st80{fill:#EE50DB;stroke:#FFFFFF;stroke-miterlimit:10;}
	.st81{fill:#E752CC;stroke:#FFFFFF;stroke-miterlimit:10;}
	.st82{fill:#F05FE1;stroke:#FFFFFF;stroke-miterlimit:10;}
	.st83{fill:#80256C;stroke:#FFFFFF;stroke-miterlimit:10;}
	.st84{fill:#E94ED6;stroke:#FFFFFF;stroke-miterlimit:10;}
	.st85{fill:#F45AEF;stroke:#FFFFFF;stroke-miterlimit:10;}
	.st86{fill:#E55AD7;stroke:#FFFFFF;stroke-miterlimit:10;}
	.st87{fill:#EF73E0;stroke:#FFFFFF;stroke-miterlimit:10;}
	.st88{fill:#EE64E6;stroke:#FFFFFF;stroke-miterlimit:10;}
	.st89{fill:#EE6FE4;stroke:#FFFFFF;stroke-miterlimit:10;}
	.st90{fill:#C23497;stroke:#FFFFFF;stroke-miterlimit:10;}
	.st91{fill:#F25CDC;stroke:#FFFFFF;stroke-miterlimit:10;}
	.st92{fill:#CD52B0;stroke:#FFFFFF;stroke-miterlimit:10;}
	.st93{fill:#AC3695;stroke:#FFFFFF;stroke-miterlimit:10;}
	.st94{fill:#F95BF2;stroke:#FFFFFF;stroke-miterlimit:10;}
	.st95{fill:#E657D0;stroke:#FFFFFF;stroke-miterlimit:10;}
	.st96{fill:#EF69E7;stroke:#FFFFFF;stroke-miterlimit:10;}
	.st97{fill:#ED4BDA;stroke:#FFFFFF;stroke-miterlimit:10;}
	.st98{fill:#F66BF2;stroke:#FFFFFF;stroke-miterlimit:10;}
	.st99{fill:#EA5BC2;stroke:#FFFFFF;stroke-miterlimit:10;}
	.st100{fill:#ED67DD;stroke:#FFFFFF;stroke-miterlimit:10;}
	.st101{fill:#EF57E2;stroke:#FFFFFF;stroke-miterlimit:10;}
	.st102{fill:#C746A8;stroke:#FFFFFF;stroke-miterlimit:10;}
	.st103{fill:#EE72E0;stroke:#FFFFFF;stroke-miterlimit:10;}
	.st104{fill:#F16CE5;stroke:#FFFFFF;stroke-miterlimit:10;}
	.st105{fill:#E362D7;stroke:#FFFFFF;stroke-miterlimit:10;}
	.st106{fill:#F879EE;stroke:#FFFFFF;stroke-miterlimit:10;}
	.st107{fill:#EF57E9;stroke:#FFFFFF;stroke-miterlimit:10;}
	.st108{fill:#E150D4;stroke:#FFFFFF;stroke-miterlimit:10;}
	.st109{fill:#E559CE;stroke:#FFFFFF;stroke-miterlimit:10;}
	.st110{fill:#E051BE;stroke:#FFFFFF;stroke-miterlimit:10;}
	.st111{fill:#782C6D;stroke:#FFFFFF;stroke-miterlimit:10;}
	.st112{fill:#E968D6;stroke:#FFFFFF;stroke-miterlimit:10;}
	.st113{fill:#591B58;stroke:#FFFFFF;stroke-miterlimit:10;}
	.st114{fill:#D83DA3;stroke:#FFFFFF;stroke-miterlimit:10;}
	.st115{fill:#F058E0;stroke:#FFFFFF;stroke-miterlimit:10;}
	.st116{fill:#BB2F87;stroke:#FFFFFF;stroke-miterlimit:10;}
	.st117{fill:#E85AD6;stroke:#FFFFFF;stroke-miterlimit:10;}
	.st118{fill:#F268E9;stroke:#FFFFFF;stroke-miterlimit:10;}
	.st119{fill:#ED68E0;stroke:#FFFFFF;stroke-miterlimit:10;}
	.st120{fill:#F25FEA;stroke:#FFFFFF;stroke-miterlimit:10;}
	.st121{fill:#EC60E2;stroke:#FFFFFF;stroke-miterlimit:10;}
	.st122{fill:#CD3B9D;stroke:#FFFFFF;stroke-miterlimit:10;}
	.st123{fill:#A82D80;stroke:#FFFFFF;stroke-miterlimit:10;}
	.st124{fill:#F159EB;stroke:#FFFFFF;stroke-miterlimit:10;}
	.st125{fill:#85296E;stroke:#FFFFFF;stroke-miterlimit:10;}
	.st126{fill:#CD48AF;stroke:#FFFFFF;stroke-miterlimit:10;}
	.st127{fill:#F662E9;stroke:#FFFFFF;stroke-miterlimit:10;}
	.st128{fill:#F364E7;stroke:#FFFFFF;stroke-miterlimit:10;}
	.st129{fill:#F871DE;stroke:#FFFFFF;stroke-miterlimit:10;}
</style>
<g>
	<polygon class="st0" points="529.6,84.6 528.6,84.6 528.9,85.1 529.7,85.7 	"/>
	<polygon class="st0" points="529.8,85.9 530.1,86.1 532,84.6 530.3,84.6 	"/>
	<polygon class="st0" points="529.7,86.3 529.7,86.4 529.7,86.4 529.7,86.2 	"/>
	<polygon class="st0" points="529.7,86.2 529.7,86.4 530.1,86.1 529.8,85.9 	"/>
	<polygon class="st0" points="529.7,86.2 529.8,85.9 529.7,85.7 	"/>
	<polygon class="st0" points="529.7,85.7 528.9,85.1 529.7,86.3 529.7,86.2 	"/>
	<polygon class="st0" points="529.8,85.9 530.3,84.6 529.6,84.6 529.7,85.7 	"/>
	<polygon class="st0" points="528.4,84.6 528.9,85.1 528.6,84.6 	"/>
	<polygon class="st0" points="365.1,86 365.1,86.1 366.3,84.6 365.1,84.6 	"/>
	<polygon class="st0" points="275.4,102.1 280.6,84.6 274.3,84.6 	"/>
	<polygon class="st0" points="363.9,84.6 365.1,86 365.1,84.6 	"/>
	<polygon class="st0" points="529.6,86.5 529.7,86.4 529.7,86.3 	"/>
	<polygon class="st0" points="529.7,86.5 529.7,86.4 529.7,86.4 	"/>
	<polyline class="st0" points="523.2,133.6 533.3,125.8 529.7,86.5 529.7,86.4 529.6,86.5 517.6,117.9 	"/>
	<polyline class="st0" points="514.2,126.9 506.8,146.3 523.2,133.6 	"/>
	<line class="st0" x1="517.6" y1="117.9" x2="514.2" y2="126.9"/>
	<polygon class="st0" points="365.1,86.1 365.1,86.1 365.1,86 	"/>
	<polyline class="st0" points="533,122.7 533.3,125.8 547.5,114.9 529.7,86.5 533,122.7 	"/>
	<polyline class="st0" points="529.6,86.5 487.8,119.7 501.8,150.1 506.8,146.3 	"/>
	<polygon class="st0" points="532,84.6 530.1,86.1 556.2,108.1 585.8,85.3 585.5,84.6 	"/>
	<polyline class="st0" points="556.2,108.1 530.1,86.1 529.7,86.4 529.7,86.5 547.5,114.9 556.2,108.1 	"/>
	<polyline class="st0" points="527,88.6 529.6,86.5 529.7,86.3 528.9,85.1 528.4,84.6 471.8,84.6 487.8,119.7 527,88.6 	"/>
	<polygon class="st0" points="585.5,84.6 585.8,85.3 586.6,84.6 	"/>
	<polygon class="st0" points="265.8,84.6 273.3,109.5 275.4,102.1 274.3,84.6 	"/>
	<polygon class="st0" points="81.9,87.9 82,84.6 80.9,84.6 	"/>
	<polygon class="st0" points="276.7,120.7 275.4,102.1 273.3,109.5 	"/>
	<polygon class="st0" points="126.4,86.5 126.3,84.6 125.7,84.6 	"/>
	<polygon class="st0" points="193.6,86.8 194.1,84.6 193.4,84.6 	"/>
	<polygon class="st1" points="187.9,23.3 193.4,84.6 194.1,84.6 209.2,19 	"/>
	<polygon class="st2" points="269.5,12.7 247.9,25 265.8,84.6 274.3,84.6 	"/>
	<polygon class="st3" points="209.2,19 194.1,84.6 265.8,84.6 247.9,25 	"/>
	<polygon class="st4" points="122.9,9 126.3,84.6 193.4,84.6 187.9,23.3 	"/>
	<polygon class="st5" points="71.3,16.3 55,0.3 80.9,84.6 82,84.6 85.6,12.3 	"/>
	<polygon class="st6" points="0.3,63.3 0,84.6 80.9,84.6 55,0.3 	"/>
	<polygon class="st7" points="91.3,19.7 85.6,12.3 82,84.6 125.7,84.6 101.6,12.3 	"/>
	<polygon class="st8" points="101.6,12.3 125.7,84.6 126.3,84.6 122.9,9 	"/>
	<polygon class="st9" points="639.7,84.6 639.7,43.6 586.6,84.6 	"/>
	<polygon class="st10" points="612.1,21 584.1,20.3 567.7,13.7 560.4,5.7 574.7,50.7 	"/>
	<polygon class="st11" points="269.5,12.7 274.3,84.6 280.6,84.6 297.9,25.7 	"/>
	<polygon class="st12" points="532,84.6 574.7,50.7 560.4,5.7 530.3,84.6 	"/>
	<polygon class="st13" points="530.3,84.6 560.4,5.7 523.4,16.3 529.6,84.6 	"/>
	<polygon class="st14" points="528.6,84.6 484.1,13.3 460.1,27 528.4,84.6 	"/>
	<polygon class="st15" points="460.1,27 455.1,20 445.8,26.3 437.1,9 471.8,84.6 528.4,84.6 	"/>
	<polygon class="st16" points="529.6,84.6 523.4,16.3 517.4,9 510.8,8.7 499.4,17.3 484.1,13.3 528.6,84.6 	"/>
	<polygon class="st17" points="364.8,8.3 345.5,32 304.5,19 363.9,84.6 365.1,84.6 	"/>
	<polygon class="st18" points="364.8,8.3 365.1,84.6 366.3,84.6 416.1,25 	"/>
	<polygon class="st19" points="297.9,25.7 280.6,84.6 363.9,84.6 304.5,19 	"/>
	<polygon class="st20" points="424.5,22.3 416.1,25 366.3,84.6 471.8,84.6 437.1,9 	"/>
	<polygon class="st9" points="532,84.6 585.5,84.6 574.7,50.7 	"/>
	<polygon class="st21" points="585.5,84.6 586.6,84.6 639.7,43.6 608.1,32 612.1,21 574.7,50.7 	"/>
</g>
<g>
	<g>
		<polygon class="st22" points="83.6,83.6 47.4,83.6 20,83.6 7,83.6 18.4,68.7 50.3,26.7 69.7,59.8 		"/>
		<polygon class="st23" points="102.6,24.7 88.7,83.6 83.6,83.6 69.7,59.8 		"/>
		<polygon class="st24" points="50.3,26.7 18.4,68.7 7,83.6 0.7,83.6 0.6,69.3 17,55.2 		"/>
		<polygon class="st25" points="182.6,27.3 174.6,65.9 164.7,59.3 		"/>
		<polygon class="st26" points="102.6,24.7 69.7,59.8 50.3,26.7 87.3,40.6 		"/>
		<polygon class="st27" points="50.3,26.7 17,55.2 0.6,69.3 0.3,40 15.3,40 		"/>
		<polygon class="st28" points="528.2,71.5 515.2,83.3 460.6,83.3 503.4,28.7 		"/>
		<polygon class="st29" points="585.4,19.7 528.2,71.5 503.4,28.7 523.8,40.6 567.7,33 		"/>
		<polygon class="st30" points="444.1,67 305.5,17.3 292,83.4 300.4,83.4 349.2,33 300.4,83.4 460.6,83.3 503.4,28.7 		"/>
		<polygon class="st31" points="639.4,52.3 585.4,19.7 602.6,83.3 639.4,83.2 		"/>
		<polygon class="st32" points="182.6,27.3 164.7,59.3 119.3,29 161.3,43.6 		"/>
		<polygon class="st33" points="585.4,19.7 541,83.3 535.1,83.3 515.2,83.3 528.2,71.5 		"/>
		<polygon class="st34" points="602.6,83.3 541,83.3 585.4,19.7 		"/>
		<polygon class="st35" points="178.8,83.5 170.9,83.5 151.2,83.5 88.7,83.6 102.6,24.7 116.3,31.6 119.3,29 160.6,66.8 172.2,77.4 
					"/>
		<polygon class="st36" points="201.1,83.5 178.8,83.5 172.2,77.4 160.6,66.8 119.3,29 164.7,59.3 174.6,65.9 		"/>
		<polygon class="st37" points="305.5,17.3 292,83.4 281.5,83.5 201.1,83.5 174.6,65.9 182.6,27.3 229.2,52.6 		"/>
	</g>
	<g>
		<polygon class="st38" points="386.3,56.8 384.6,54.9 386.3,56.8 		"/>
		<polygon class="st38" points="542.7,50.3 542.7,50.3 542.7,50.3 542.7,50.3 542.7,50.3 		"/>
		<polygon class="st38" points="221.8,51 221.8,51 211.9,54.2 199.5,58.2 199.5,58.2 211.9,54.2 		"/>
		<polygon class="st38" points="525.8,57.6 534.6,53.8 525.8,57.6 525.4,57.7 		"/>
		<polygon class="st38" points="167.6,49 165,46.2 167.6,49 167.6,49 		"/>
		<polygon class="st38" points="194,50.2 193.5,49.4 167.6,49 193.5,49.4 		"/>
		<polygon class="st38" points="524.9,57.4 524.8,58 524.8,58 		"/>
		<polygon class="st38" points="127.6,54.6 127.6,54.7 127.6,54.7 		"/>
		<polygon class="st38" points="116.8,56.8 88.9,62.1 86.6,59.3 88.9,62.1 		"/>
		<polygon class="st38" points="34,74.5 36.1,72.6 34,74.5 		"/>
		<polygon class="st38" points="33.8,74.4 33.9,74.4 33.8,74.4 		"/>
		<polygon class="st38" points="24.6,80.7 27.1,79 31.6,75.9 27.1,79 		"/>
		<polygon class="st38" points="129.5,54.3 127.6,54.7 127.6,54.6 127.6,54.7 		"/>
		<polygon class="st38" points="291.5,83.9 291.6,84.3 291.6,83.9 		"/>
		<polygon class="st39" points="304.8,51.9 291.5,45.1 294.5,53.6 		"/>
		<polygon class="st38" points="542.8,50.3 542.7,50.3 542.7,50.3 		"/>
		<polygon class="st38" points="542.7,50.3 542.8,50.3 542.8,50.3 542.7,50.3 		"/>
		<polygon class="st38" points="482.4,32.3 474.4,36.3 474.4,36.3 		"/>
		<polygon class="st40" points="34,74.3 33.8,74.4 33.9,74.4 34,74.5 36.1,72.6 36.6,72.2 30.1,73.4 33.8,74.4 		"/>
		<polygon class="st38" points="461.9,77.7 461.1,79.4 460.7,79 		"/>
		<polygon class="st41" points="433.6,63.4 430.8,60.6 426.8,64.6 423.5,67.9 426.1,62.9 427.9,59.4 433.2,56.7 		"/>
		<polygon class="st42" points="436.7,55 433.2,56.7 427.9,59.4 426.7,60 425.1,60.8 419.8,49 431.2,53.1 433.1,53.7 		"/>
		<polygon class="st38" points="427.9,59.4 427.9,59.4 427.9,59.4 427.9,59.4 		"/>
		<polygon class="st38" points="427.9,59.4 427.9,59.4 427.9,59.4 427.9,59.4 		"/>
		<polygon class="st43" points="427.9,59.4 426.1,62.9 425.1,60.8 426.7,60 		"/>
		<polygon class="st44" points="400.5,73 399.8,73.3 396.1,75.2 382.9,73.3 375.9,72.4 378.7,68.2 383.9,60.4 386.3,56.8 		"/>
		<polygon class="st45" points="460.5,84.1 460.5,84.1 460.5,84.1 463.6,82.4 483.7,71.9 489.1,69.1 492.1,72 516,61.7 498.1,39.3 
			479.1,59.4 471.5,67.5 461.9,77.7 461.1,79.4 459.1,83.9 459,84.1 460.5,84.1 460.5,84.1 		"/>
		<polygon class="st46" points="461.1,79.4 459.1,83.9 459,84.1 457.4,84.1 455.8,84.1 456.4,83.5 456.8,83.1 460.7,79 		"/>
		<polygon class="st38" points="460.5,84.1 460.5,84.1 460.8,84.1 460.8,84.1 		"/>
		<polygon class="st38" points="460.8,84.1 460.5,84.1 460.5,84.1 		"/>
		<polygon class="st47" points="378.7,68.2 375.9,72.4 357.5,69.8 361.6,66.7 364.2,64.7 		"/>
		<polygon class="st48" points="127.6,54.7 127.6,54.7 127.6,54.7 116.8,56.8 88.9,62.1 97.9,73.1 104.6,66.3 108.3,69.7 
			117.4,66.5 		"/>
		<polygon class="st38" points="127.6,54.7 127.6,54.6 127.6,54.7 		"/>
		<polygon class="st49" points="127.6,54.7 127.6,54.7 117.4,66.5 111.8,73 121.2,81.7 125.5,63.7 		"/>
		<polygon class="st38" points="127.6,54.7 127.6,54.6 127.6,54.7 		"/>
		<polygon class="st50" points="249.2,23.7 243.3,44.1 271.6,35 		"/>
		<polygon class="st38" points="525.4,57.7 525.8,57.6 524.9,57 524.9,57.4 524.8,58 		"/>
		<polygon class="st49" points="127.6,54.7 125.5,63.7 121.2,81.7 120.8,83.4 120.9,83.4 120.9,83.4 122.5,82.9 122.5,82.9 
			122.5,82.9 122.5,82.9 152,73.4 135.3,60.5 135,60.3 127.6,54.7 		"/>
		<polygon class="st51" points="631,55.3 639.9,59.8 639.8,39.6 610.7,42.6 627.7,57.9 		"/>
		<polygon class="st52" points="633.8,63.3 640,81.6 639.9,68.8 639.9,59.8 631,55.3 		"/>
		<polygon class="st53" points="108.3,69.7 111.8,73 117.4,66.5 		"/>
		<polygon class="st54" points="639.8,39.6 639.8,39.6 639.7,32.6 610.7,42.6 639.8,39.6 		"/>
		<polygon class="st38" points="639.8,39.6 610.7,42.6 639.8,39.6 		"/>
		<polygon class="st38" points="639.8,39.6 610.7,42.6 639.8,39.6 		"/>
		<polygon class="st55" points="640,81.6 633.8,63.3 631,55.3 629.6,59.6 621.4,84.3 640,84.3 		"/>
		<polygon class="st38" points="98,73.3 97.9,73.1 97.6,73.4 		"/>
		<polygon class="st38" points="147.3,56.1 147.3,56.1 142.5,51.8 		"/>
		<polygon class="st56" points="142.5,51.8 140.8,52.1 127.6,54.7 135,60.3 147.3,56.1 147.3,56.1 		"/>
		<polygon class="st38" points="140.8,52.1 129.5,54.3 127.6,54.7 		"/>
		<polygon class="st38" points="140.8,52.1 129.5,54.3 127.6,54.7 		"/>
		<polygon class="st57" points="627.7,57.9 610.7,42.6 605.1,64 581.4,48.3 607.4,73.7 		"/>
		<polygon class="st38" points="120.8,83.4 120.9,83.4 120.8,83.4 		"/>
		<polygon class="st40" points="65.3,66.7 93,75 97.6,73.4 97.9,73.1 88.9,62.1 		"/>
		<polygon class="st38" points="355.9,71.6 355.8,71.5 355.8,71.5 		"/>
		<polygon class="st38" points="404.3,74.4 404.2,74.4 404.3,74.2 		"/>
		<polygon class="st38" points="355.4,71.4 355.8,71.5 355.8,71.5 355.6,71.2 		"/>
		<polygon class="st38" points="355.8,71.1 355.8,71.5 355.6,71.2 		"/>
		<polygon class="st44" points="407,69.8 404.3,74.2 404.2,74.4 403.2,76 403.1,76.1 398.2,84 391.6,84 387.8,79.3 396.1,75.2 
			399.8,73.3 400.5,73 403.8,71.3 		"/>
		<polygon class="st38" points="400.5,73 400.5,73 400.5,73 400.5,73 		"/>
		<polygon class="st38" points="400.5,73 400.5,73 400.5,73 400.5,73 		"/>
		<polygon class="st44" points="396.1,75.2 387.8,79.3 382.9,73.3 		"/>
		<polygon class="st38" points="291.2,82.9 291.5,83.9 291.6,83.9 291.5,82.7 		"/>
		<polygon class="st58" points="265.9,59.3 271,57.8 261.7,56.5 		"/>
		<polygon class="st38" points="284.7,59.7 284.9,60.3 284.9,59.8 		"/>
		<polygon class="st59" points="325.2,62.2 327.3,59.3 327.2,59.3 323.8,61.5 319.3,64.5 296.4,79.5 291.5,82.7 291.6,83.9 
			303.1,83.9 309.7,83.9 323.2,65.1 		"/>
		<polygon class="st46" points="498.1,39.3 479.1,59.4 471.5,67.5 461.9,77.7 467.2,66 472.9,53.4 482.4,32.3 		"/>
		<polygon class="st60" points="474.4,36.3 461.8,42.6 445.1,26.3 		"/>
		<polygon class="st45" points="482.4,32.3 472.9,53.4 467.2,66 461.9,77.7 460.7,79 456.8,83.1 456.4,83.5 455.8,84.1 454.3,84.1 
			453.2,83.1 433.6,63.4 433.2,56.7 436.7,55 437.7,54.5 438.7,54 439,53.9 439.1,53.8 461.8,42.6 474.4,36.3 474.4,36.3 		"/>
		<polygon class="st61" points="461.8,42.6 439.1,53.8 439,53.9 438.7,54 437.7,54.5 436.7,55 433.1,53.7 432.9,49.8 434,47.8 
			434.3,47 445.1,26.3 		"/>
		<polygon class="st62" points="445.1,26.3 434.3,47 434,47.8 432.9,49.8 432.8,49 432.7,46.3 432.7,46.3 432.6,44.3 432.1,35.3 		
			"/>
		<polygon class="st63" points="527.8,41 512.8,49.3 524.9,57 		"/>
		<polygon class="st38" points="542.7,50.3 542.7,50.3 542.7,50.3 		"/>
		<polygon class="st64" points="524.9,57 524.9,57 525.8,57.6 534.6,53.8 542.7,50.3 527.8,41 524.9,57 		"/>
		<polygon class="st65" points="524.8,58 524.9,57.4 524.9,57 512.8,49.3 498.1,39.3 516,61.7 		"/>
		<polygon class="st38" points="524.9,57 524.9,57.4 524.9,57 		"/>
		<polygon class="st38" points="524.9,57 524.9,57.4 524.9,57 		"/>
		<polygon class="st38" points="524.9,57 512.8,49.3 524.9,57 		"/>
		<polygon class="st38" points="524.9,57 512.8,49.3 524.9,57 		"/>
		<polygon class="st38" points="524.9,57 524.9,57 524.9,57 524.9,57 		"/>
		<polygon class="st38" points="524.9,57 524.9,57 524.9,57 524.9,57 		"/>
		<polygon class="st66" points="424.1,30.7 369.2,37.4 368.8,37 409.1,22 		"/>
		<polygon class="st67" points="355.8,25.7 355.8,71.1 355.6,71.2 355.2,70.7 354.2,69.3 353.6,68.7 349,62.6 347.6,60.7 
			336.5,46.3 341.8,40.7 		"/>
		<polygon class="st68" points="349,62.6 330.5,56.6 329.4,56.4 336.5,46.3 347.6,60.7 		"/>
		<polygon class="st69" points="542.7,50.3 534.6,53.8 525.8,57.6 532.8,62 534.1,61.3 536.6,63 542.7,50.3 		"/>
		<polygon class="st38" points="542.7,50.3 542.7,50.3 542.7,50.3 534.6,53.8 		"/>
		<polygon class="st38" points="542.7,50.3 542.7,50.3 542.7,50.3 534.6,53.8 		"/>
		<polygon class="st70" points="432.7,46.3 426.1,38.6 398.5,38.6 424.1,30.7 424.2,30.7 432.6,44.3 		"/>
		<polygon class="st71" points="432.6,44.3 424.2,30.7 432.1,35.3 		"/>
		<polygon class="st72" points="424.1,30.7 398.5,38.6 381.6,51.5 369.2,37.4 424.1,30.7 		"/>
		<polygon class="st73" points="258.3,54.3 256.6,55.8 253.4,58.6 257.4,61.7 265.9,59.3 261.7,56.5 		"/>
		<polygon class="st74" points="355.9,71.6 355.8,71.5 355.4,71.4 349,68.6 327.3,59.3 325.2,62.2 323.2,65.1 309.7,83.9 338.8,84 
			355.8,84 365.4,84 363.7,81.8 		"/>
		<polygon class="st75" points="248.9,55 249.1,62.2 249.2,64.1 257.4,61.7 253.4,58.6 		"/>
		<polygon class="st76" points="587.8,84.2 567.7,84.2 566.6,84.2 553.4,84.2 558.1,78.2 558.1,78.1 581.4,48.3 		"/>
		<polygon class="st77" points="542.7,50.3 542.7,50.3 536.6,63 542.1,67 542.8,50.3 542.8,50.3 542.8,50.3 		"/>
		<polygon class="st38" points="542.8,50.3 542.8,50.3 542.7,50.3 		"/>
		<polygon class="st38" points="542.8,50.3 542.8,50.3 542.7,50.3 		"/>
		<polygon class="st78" points="562.4,62.6 549.9,72.4 542.1,67 542.8,50.3 		"/>
		<polygon class="st79" points="581.4,48.3 558.1,78.1 558.1,78.2 553.4,84.2 541.4,84.2 534.9,84.2 541.6,78.9 549.6,72.7 
			549.9,72.4 562.4,62.6 		"/>
		<polygon class="st49" points="122.5,82.9 122.5,82.9 120.9,83.4 120.9,83.4 120.8,83.4 119.8,83.7 120.7,83.8 123.4,83.8 
			165.5,83.8 152,73.4 		"/>
		<polygon class="st38" points="122.5,82.9 122.5,82.9 122.5,82.9 122.5,82.9 		"/>
		<polygon class="st38" points="122.5,82.9 122.5,82.9 122.5,82.9 122.5,82.9 		"/>
		<polygon class="st38" points="122.5,82.9 122.5,82.9 122.5,82.9 122.5,82.9 		"/>
		<polygon class="st80" points="65.3,66.7 48.6,61.6 52,69.2 58.3,83.7 68,83.7 93,75 		"/>
		<polygon class="st53" points="97.6,73.4 93,75 68,83.7 87.4,83.7 95.3,75.7 		"/>
		<polygon class="st53" points="120.8,83.4 121.2,81.7 111.8,73 108.3,69.7 104.6,66.3 97.9,73.1 98,73.3 97.6,73.4 95.3,75.7 
			87.4,83.7 102.6,83.7 106.5,83.7 119.8,83.7 120.8,83.4 		"/>
		<polygon class="st81" points="581.4,48.3 587.8,84.2 593.7,84.2 607.4,73.7 		"/>
		<polygon class="st82" points="631,55.3 627.7,57.9 607.4,73.7 618.2,84.3 621.4,84.3 629.6,59.6 		"/>
		<polygon class="st38" points="283.9,83.7 283.9,83.9 285,83.9 283.9,83.9 285,83.9 285.1,83.9 284.4,83.3 		"/>
		<polygon class="st81" points="593.7,84.2 618.2,84.3 607.4,73.7 		"/>
		<polygon class="st83" points="290.2,79.2 288.9,74.5 284.9,60.3 284.7,59.7 283.2,54.3 280.7,59.2 276.9,66.6 273,74.2 
			268.1,83.9 283.6,83.9 283.9,83.7 284.4,83.3 285.1,83.9 289.7,83.9 291.5,83.9 291.2,82.9 		"/>
		<polygon class="st38" points="283.6,83.9 283.9,83.9 283.9,83.7 		"/>
		<polygon class="st75" points="248.9,55 237.8,67.4 245.8,65.1 249.2,64.1 249.1,62.2 		"/>
		<polygon class="st56" points="165,46.2 167.6,49 167.6,49 193.5,49.4 184.6,36.3 163.6,44.7 163.6,44.7 163.6,44.7 		"/>
		<polygon class="st84" points="194,50.2 199.5,58.2 211.9,54.2 211.9,49.6 193.5,49.4 		"/>
		<polygon class="st85" points="36.6,72.2 36.6,72.2 36.6,72.2 36.1,72.6 34,74.5 34,74.5 34,74.5 33.9,74.4 33.8,74.4 31.6,75.9 
			27.1,79 24.6,80.7 20.3,83.6 58.3,83.7 52,69.2 		"/>
		<polygon class="st86" points="221.8,51 221.8,51 243.3,44.1 249.2,23.7 271.6,35 286.2,30.3 277.9,32 262.9,14 211.9,49.6 
			221.8,51 		"/>
		<polygon class="st87" points="221.8,51 211.9,49.6 211.9,54.2 		"/>
		<polygon class="st38" points="221.8,51 211.9,49.6 221.8,51 		"/>
		<polygon class="st38" points="221.8,51 211.9,49.6 221.8,51 		"/>
		<polygon class="st88" points="289.2,60.3 312.3,63.5 318.7,58.9 336.5,46.3 304.8,51.9 294.5,53.6 291.5,45.1 286.2,30.3 
			287.5,43.1 		"/>
		<polygon class="st89" points="211.9,49.6 184.6,36.3 193.5,49.4 		"/>
		<polygon class="st90" points="30.1,73.4 0,65.3 0.2,79 1.3,79 		"/>
		<polygon class="st38" points="0.2,79 0.3,79.2 1.3,79 		"/>
		<polygon class="st56" points="147.3,56.1 167.6,49 165,46.2 163.6,44.7 148.6,50.6 142.5,51.8 		"/>
		<polygon class="st90" points="27.1,79 31.6,75.9 33.8,74.4 33.8,74.4 33.8,74.4 30.1,73.4 1.3,79 		"/>
		<polygon class="st91" points="48.6,61.6 65.3,66.7 88.9,62.1 86.6,59.3 58,53.3 36.6,72.2 52,69.2 		"/>
		<polygon class="st92" points="142.5,51.8 148.6,50.6 119.9,31.6 142.5,51.8 		"/>
		<polygon class="st38" points="142.5,51.8 142.5,51.8 142.5,51.8 142.5,51.8 		"/>
		<polygon class="st38" points="142.5,51.8 142.5,51.8 142.5,51.8 142.5,51.8 		"/>
		<polygon class="st38" points="142.5,51.8 142.5,51.8 142.5,51.8 142.5,51.8 		"/>
		<polygon class="st93" points="116.8,56.8 127.6,54.7 127.6,54.6 127.6,54.7 129.5,54.3 140.8,52.1 142.5,51.8 119.9,31.6 
			86.6,59.3 88.9,62.1 		"/>
		<polygon class="st38" points="142.5,51.8 142.5,51.8 140.8,52.1 		"/>
		<polygon class="st38" points="142.5,51.8 142.5,51.8 140.8,52.1 		"/>
		<polygon class="st38" points="142.5,51.8 142.5,51.8 140.8,52.1 		"/>
		<polygon class="st94" points="24.6,80.7 27.1,79 1.3,79 0.3,79.2 0.3,83.6 20.3,83.6 20.3,83.6 20.3,83.6 		"/>
		<polygon class="st65" points="525.4,57.7 524.8,58 524.8,58 524.8,58 523.2,67.1 532.8,62 525.8,57.6 		"/>
		<polygon class="st38" points="524.8,58 525.4,57.7 524.8,58 		"/>
		<polygon class="st38" points="524.8,58 525.4,57.7 524.8,58 		"/>
		<polygon class="st65" points="516,61.7 521.1,68.2 523.2,67.1 524.8,58 		"/>
		<polygon class="st95" points="521.1,68.2 501.8,78.4 496.9,76.6 492.1,72 516,61.7 		"/>
		<polygon class="st96" points="430.8,60.6 430.7,73.4 430.7,79.9 430.7,80.7 430.6,84.1 415.1,84.1 410.3,84.1 407.2,84 
			408.9,82.4 413.7,77.6 414.5,76.8 423.5,67.9 426.8,64.6 		"/>
		<polygon class="st44" points="391.6,84 385.1,84 378.3,84 368.1,84 368.1,84 371.9,78.4 375.9,72.4 382.9,73.3 387.8,79.3 		"/>
		<polygon class="st47" points="375.9,72.4 371.9,78.4 368.1,84 368.1,84 365.4,84 363.7,81.8 355.9,71.6 355.8,71.5 355.8,71.1 
			357.5,69.8 		"/>
		<polygon class="st38" points="368.1,84 368.1,84 368.1,84 		"/>
		<polygon class="st97" points="549.9,72.4 549.6,72.7 541.6,78.9 534.9,84.2 533.9,84.2 528.8,84.2 529.9,79.2 531.1,74.3 
			533.8,62.6 534.1,61.3 536.6,63 542.1,67 		"/>
		<polygon class="st98" points="454.3,84.1 444.6,84.1 435.5,84.1 434.6,84.1 430.6,84.1 430.7,80.7 430.7,79.9 430.7,73.4 
			430.8,60.6 433.6,63.4 453.2,83.1 		"/>
		<polygon class="st99" points="426.1,62.9 423.5,67.9 414.5,76.8 413.7,77.6 408.9,82.4 407.2,84 405.9,84 398.2,84 403.1,76.1 
			403.2,76 404.2,74.4 404.3,74.4 404.3,74.2 407,69.8 425.1,60.8 		"/>
		<polygon class="st100" points="517.8,84.2 504.6,84.2 499.8,79.5 496.9,76.6 501.8,78.4 		"/>
		<polygon class="st100" points="504.6,84.2 491.1,84.1 465.1,84.1 463.7,84.1 460.8,84.1 460.5,84.1 463.6,82.4 483.7,71.9 
			489.1,69.1 492.1,72 496.9,76.6 499.8,79.5 		"/>
		<polygon class="st101" points="534.1,61.3 533.8,62.6 531.1,74.3 529.9,79.2 528.8,84.2 526.3,84.2 520.1,84.2 517.8,84.2 
			501.8,78.4 521.1,68.2 523.2,67.1 532.8,62 		"/>
		<polygon class="st102" points="336.5,46.3 329.4,56.4 327.3,59.3 327.2,59.3 323.8,61.5 319.3,64.5 296.4,79.5 291.5,82.7 
			291.1,78.6 293,77.2 312.3,63.5 318.7,58.9 		"/>
		<polygon class="st103" points="258.3,54.3 243.2,44.3 243.3,44.1 221.8,51 256.6,55.8 		"/>
		<polygon class="st104" points="243.3,44.1 243.2,44.3 258.3,54.3 277.4,37.9 286.2,30.3 271.6,35 		"/>
		<polygon class="st58" points="290.8,75.8 289.2,60.3 284.9,59.8 284.9,60.3 288.9,74.5 290.2,79.2 291.2,82.9 291.5,82.7 
			291.1,78.6 		"/>
		<polygon class="st58" points="258.3,54.3 261.7,56.5 271,57.8 283.2,54.3 284.7,59.7 284.9,59.8 285.7,42.2 286.2,30.3 
			277.4,37.9 		"/>
		<polygon class="st88" points="291.1,78.6 293,77.2 312.3,63.5 289.2,60.3 290.8,75.8 		"/>
		<polygon class="st105" points="284.9,59.8 289.2,60.3 287.5,43.1 286.2,30.3 285.7,42.2 		"/>
		<polygon class="st84" points="199.5,58.2 194,50.2 193.5,49.4 167.6,49 167.6,49 181.4,64 199.5,58.2 199.5,58.2 		"/>
		<polygon class="st84" points="211.8,76.3 199.5,58.2 181.4,64 199.7,83.8 209.5,83.8 211.8,83.8 216.9,83.9 213.7,79.2 		"/>
		<polygon class="st106" points="160.1,70.8 135.3,60.5 152,73.4 165.5,83.8 178.3,83.8 191.6,83.8 166.9,73.6 		"/>
		<polygon class="st53" points="167.6,49 147.3,56.1 147.3,56.1 135,60.3 135.3,60.5 160.1,70.8 166.9,73.6 191.6,83.8 199.7,83.8 
			181.4,64 		"/>
		<polygon class="st84" points="199.5,58.2 211.8,76.3 211.9,54.2 		"/>
		<polygon class="st107" points="213.7,79.2 216.9,83.9 223.1,83.9 224,83.9 229.6,83.9 219.6,72.6 		"/>
		<polygon class="st83" points="276.9,66.6 280.7,59.2 283.2,54.3 271,57.8 265.9,59.3 257.4,61.7 249.2,64.1 245.8,65.1 
			237.8,67.4 219.6,72.6 229.6,83.9 249.8,83.9 268.1,83.9 273,74.2 		"/>
		<polygon class="st87" points="253.4,58.6 256.6,55.8 221.8,51 211.9,54.2 211.8,76.3 213.7,79.2 219.6,72.6 237.8,67.4 248.9,55 
					"/>
		<polygon class="st108" points="426.1,38.6 407,69.8 403.8,71.3 398.5,38.6 		"/>
		<polygon class="st109" points="384.6,54.9 386.3,56.8 398.5,38.6 381.6,51.5 		"/>
		<polygon class="st38" points="381.6,51.5 398.5,38.6 381.6,51.5 		"/>
		<polygon class="st38" points="381.6,51.5 398.5,38.6 381.6,51.5 		"/>
		<polygon class="st110" points="403.8,71.3 400.5,73 386.3,56.8 398.5,38.6 		"/>
		<polygon class="st38" points="386.3,56.8 398.5,38.6 386.3,56.8 		"/>
		<polygon class="st38" points="386.3,56.8 398.5,38.6 386.3,56.8 		"/>
		<polygon class="st111" points="431.2,53.1 419.8,49 425.1,60.8 407,69.8 426.1,38.6 432.7,46.3 432.7,46.3 432.8,49 432.9,49.8 
			433.1,53.7 		"/>
		<polygon class="st38" points="431.2,53.1 431.2,53.1 431.2,53.1 431.2,53.1 		"/>
		<polygon class="st38" points="431.2,53.1 431.2,53.1 431.2,53.1 431.2,53.1 		"/>
		<polygon class="st38" points="438.7,54 438.7,54 438.7,54 438.7,54 		"/>
		<polygon class="st38" points="438.7,54 438.7,54 438.7,54 438.7,54 		"/>
		<polygon class="st47" points="386.3,56.8 383.9,60.4 378.7,68.2 364.2,64.7 381.6,51.5 384.6,54.9 		"/>
		<polygon class="st38" points="381.6,51.5 381.6,51.5 384.6,54.9 		"/>
		<polygon class="st38" points="381.6,51.5 381.6,51.5 384.6,54.9 		"/>
		<polygon class="st38" points="386.3,56.8 386.3,56.8 386.3,56.8 386.3,56.8 		"/>
		<polygon class="st38" points="386.3,56.8 386.3,56.8 386.3,56.8 386.3,56.8 		"/>
		<polygon class="st112" points="355.6,71.2 355.4,71.4 349,68.6 327.3,59.3 329.4,56.4 330.5,56.6 349,62.6 353.6,68.7 354.2,69.3 
			355.2,70.7 		"/>
		<polygon class="st38" points="354.2,69.3 354.2,69.3 354.2,69.3 		"/>
		<polygon class="st38" points="354.2,69.3 354.2,69.3 354.2,69.3 		"/>
		<polygon class="st38" points="354.2,69.3 354.2,69.3 354.2,69.3 354.2,69.3 		"/>
		<polygon class="st38" points="354.2,69.3 354.2,69.3 354.2,69.3 354.2,69.3 		"/>
		<polygon class="st113" points="381.6,51.5 364.2,64.7 361.6,66.7 357.5,69.8 355.8,71.1 355.8,25.7 368.8,37 369.2,37.4 		"/>
		<polygon class="st38" points="381.6,51.5 381.6,51.5 381.6,51.5 381.6,51.5 		"/>
	</g>
	<g>
		<polygon class="st114" points="165.1,51.6 133.2,60.9 126.5,58 140.6,51.1 146.6,55.8 		"/>
		<polygon class="st38" points="105.8,68 105.8,68 105.8,68 		"/>
		<line class="st38" x1="111.9" y1="83.2" x2="120.1" y2="83.2"/>
		<polygon class="st115" points="105.8,68 104,69.5 94.4,77.8 49.1,63.6 100,70.8 100.6,70.5 		"/>
		<polygon class="st114" points="126.4,58 120.9,64.5 112.2,74.8 106.5,68.8 105.8,68 		"/>
		<polygon class="st116" points="197.2,83.1 184.6,83.1 133.2,60.9 165.1,51.6 166.9,51.1 		"/>
		<polygon class="st117" points="26.2,79.3 0.5,77.6 0.5,83.3 57.9,83.2 49.1,63.6 		"/>
		<polygon class="st118" points="168.5,83.1 120.1,83.2 112.2,74.8 120.9,64.5 126.4,58 126.5,58 126.5,58 132,61.3 		"/>
		<polygon class="st119" points="94.4,77.8 88.1,83.2 57.9,83.2 49.1,63.6 		"/>
		<polygon class="st120" points="184.6,83.1 168.5,83.1 132,61.3 126.5,58 133.2,60.9 		"/>
		<polygon class="st121" points="120.1,83.2 111.9,83.2 105.1,83.2 88.1,83.2 94.4,77.8 104,69.5 105.8,68 105.8,68 106.5,68.8 
			112.2,74.8 		"/>
		<polygon class="st38" points="379.3,70 371.3,80.3 371.3,80.3 		"/>
		<polygon class="st122" points="293,83.3 326.9,83.3 326.7,61 		"/>
		<polygon class="st123" points="326.7,61 326.9,83.3 369,83.3 371.3,80.3 		"/>
		<polygon class="st124" points="371.3,80.3 371.3,80.3 369,83.3 388,83.3 379.3,70 		"/>
		<polygon class="st125" points="269.7,83.3 293,83.3 283.7,55.3 		"/>
		<polygon class="st126" points="219.4,74 229.5,83.3 269.7,83.3 283.7,55.3 		"/>
		<polygon class="st127" points="211.7,83.3 229.5,83.3 219.4,74 		"/>
		<polygon class="st128" points="430.3,62.3 418.6,74.3 414.6,69.3 425.7,83.3 450,83.3 		"/>
		<polygon class="st129" points="401.6,83.3 425.7,83.3 414.6,69.3 		"/>
	</g>
</g>
<g>
	<polygon class="st0" points="749.9,84.6 750.8,84.6 750.6,85.1 749.8,85.7 	"/>
	<polygon class="st0" points="749.6,85.9 749.3,86.1 747.5,84.6 749.1,84.6 	"/>
	<polygon class="st0" points="749.8,86.3 749.7,86.4 749.7,86.4 749.7,86.2 	"/>
	<polygon class="st0" points="749.7,86.2 749.7,86.4 749.3,86.1 749.6,85.9 	"/>
	<polygon class="st0" points="749.7,86.2 749.6,85.9 749.8,85.7 	"/>
	<polygon class="st0" points="749.8,85.7 750.6,85.1 749.8,86.3 749.7,86.2 	"/>
	<polygon class="st0" points="749.6,85.9 749.1,84.6 749.9,84.6 749.8,85.7 	"/>
	<polygon class="st0" points="751.1,84.6 750.6,85.1 750.8,84.6 	"/>
	<polygon class="st0" points="914.3,86 914.3,86.1 913.1,84.6 914.3,84.6 	"/>
	<polygon class="st0" points="1004,102.1 998.9,84.6 1005.2,84.6 	"/>
	<polygon class="st0" points="915.6,84.6 914.3,86 914.3,84.6 	"/>
	<polygon class="st0" points="749.9,86.5 749.7,86.4 749.8,86.3 	"/>
	<polygon class="st0" points="749.7,86.5 749.7,86.4 749.7,86.4 	"/>
	<polygon class="st0" points="749.7,86.4 749.9,86.5 772.6,146.3 746.2,125.8 749.7,86.5 	"/>
	<polygon class="st0" points="914.3,86.1 914.3,86.1 914.3,86 	"/>
	<polygon class="st0" points="746.2,125.8 732,114.9 749.7,86.5 	"/>
	<polygon class="st0" points="791.6,119.7 777.7,150.1 772.6,146.3 749.9,86.5 	"/>
	<polygon class="st0" points="747.5,84.6 749.3,86.1 723.3,108.1 693.7,85.3 693.9,84.6 	"/>
	<polygon class="st0" points="749.7,86.4 749.7,86.5 732,114.9 723.3,108.1 749.3,86.1 	"/>
	<polygon class="st0" points="749.8,86.3 750.6,85.1 751.1,84.6 807.7,84.6 791.6,119.7 749.9,86.5 	"/>
	<polygon class="st0" points="693.9,84.6 693.7,85.3 692.8,84.6 	"/>
	<polygon class="st0" points="1013.6,84.6 1006.2,109.5 1004,102.1 1005.2,84.6 	"/>
	<polygon class="st0" points="1197.6,87.9 1197.4,84.6 1198.6,84.6 	"/>
	<polygon class="st0" points="1002.8,120.7 1004,102.1 1006.2,109.5 	"/>
	<polygon class="st0" points="1153.1,86.5 1153.2,84.6 1153.7,84.6 	"/>
	<polygon class="st0" points="1085.9,86.8 1085.4,84.6 1086.1,84.6 	"/>
	<polygon class="st1" points="1091.5,23.3 1086.1,84.6 1085.4,84.6 1070.2,19 	"/>
	<polygon class="st2" points="1009.9,12.7 1031.6,25 1013.6,84.6 1005.2,84.6 	"/>
	<polygon class="st3" points="1070.2,19 1085.4,84.6 1013.6,84.6 1031.6,25 	"/>
	<polygon class="st4" points="1156.5,9 1153.2,84.6 1086.1,84.6 1091.5,23.3 	"/>
	<polygon class="st5" points="1208.2,16.3 1224.5,0.3 1198.6,84.6 1197.4,84.6 1193.8,12.3 	"/>
	<polygon class="st6" points="1279.1,63.3 1279.5,84.6 1198.6,84.6 1224.5,0.3 	"/>
	<polygon class="st7" points="1188.2,19.7 1193.8,12.3 1197.4,84.6 1153.7,84.6 1177.8,12.3 	"/>
	<polygon class="st8" points="1177.8,12.3 1153.7,84.6 1153.2,84.6 1156.5,9 	"/>
	<polygon class="st9" points="639.7,84.6 639.7,43.6 692.8,84.6 	"/>
	<polygon class="st10" points="667.4,21 695.4,20.3 711.7,13.7 719,5.7 704.7,50.7 	"/>
	<polygon class="st11" points="1009.9,12.7 1005.2,84.6 998.9,84.6 981.6,25.7 	"/>
	<polygon class="st12" points="747.5,84.6 704.7,50.7 719,5.7 749.1,84.6 	"/>
	<polygon class="st13" points="749.1,84.6 719,5.7 756,16.3 749.9,84.6 	"/>
	<polygon class="st14" points="750.8,84.6 795.3,13.3 819.3,27 751.1,84.6 	"/>
	<polygon class="st15" points="819.3,27 824.3,20 833.7,26.3 842.3,9 807.7,84.6 751.1,84.6 	"/>
	<polygon class="st16" points="749.9,84.6 756,16.3 762,9 768.7,8.7 780,17.3 795.3,13.3 750.8,84.6 	"/>
	<polygon class="st17" points="914.6,8.3 933.9,32 974.9,19 915.6,84.6 914.3,84.6 	"/>
	<polygon class="st18" points="914.6,8.3 914.3,84.6 913.1,84.6 863.3,25 	"/>
	<polygon class="st19" points="981.6,25.7 998.9,84.6 915.6,84.6 974.9,19 	"/>
	<polygon class="st20" points="855,22.3 863.3,25 913.1,84.6 807.7,84.6 842.3,9 	"/>
	<polygon class="st9" points="747.5,84.6 693.9,84.6 704.7,50.7 	"/>
	<polygon class="st21" points="693.9,84.6 692.8,84.6 639.7,43.6 671.4,32 667.4,21 704.7,50.7 	"/>
</g>
<g>
	<g>
		<polygon class="st22" points="1195.8,83.6 1232.1,83.6 1259.5,83.6 1272.4,83.6 1261.1,68.7 1229.1,26.7 1209.8,59.8 		"/>
		<polygon class="st23" points="1176.8,24.7 1190.8,83.6 1195.8,83.6 1209.8,59.8 		"/>
		<polygon class="st24" points="1229.1,26.7 1261.1,68.7 1272.4,83.6 1278.8,83.6 1278.9,69.3 1262.5,55.2 		"/>
		<polygon class="st25" points="1096.9,27.3 1104.9,65.9 1114.7,59.3 		"/>
		<polygon class="st26" points="1176.8,24.7 1209.8,59.8 1229.1,26.7 1192.2,40.6 		"/>
		<polygon class="st27" points="1229.1,26.7 1262.5,55.2 1278.9,69.3 1279.1,40 1264.1,40 		"/>
		<polygon class="st28" points="751.2,71.5 764.3,83.3 818.9,83.3 776,28.7 		"/>
		<polygon class="st29" points="694.1,19.7 751.2,71.5 776,28.7 755.7,40.6 711.7,33 		"/>
		<polygon class="st30" points="835.3,67 973.9,17.3 987.5,83.4 979,83.4 930.3,33 979,83.4 818.9,83.3 776,28.7 		"/>
		<polygon class="st31" points="640.1,52.3 694.1,19.7 676.8,83.3 640.1,83.2 		"/>
		<polygon class="st32" points="1096.9,27.3 1114.7,59.3 1160.2,29 1118.2,43.6 		"/>
		<polygon class="st33" points="694.1,19.7 738.5,83.3 744.4,83.3 764.3,83.3 751.2,71.5 		"/>
		<polygon class="st34" points="676.8,83.3 738.5,83.3 694.1,19.7 		"/>
		<polygon class="st35" points="1100.6,83.5 1108.5,83.5 1128.2,83.5 1190.8,83.6 1176.8,24.7 1163.2,31.6 1160.2,29 1118.9,66.8 
			1107.3,77.4 		"/>
		<polygon class="st36" points="1078.4,83.5 1100.6,83.5 1107.3,77.4 1118.9,66.8 1160.2,29 1114.7,59.3 1104.9,65.9 		"/>
		<polygon class="st37" points="973.9,17.3 987.5,83.4 997.9,83.5 1078.4,83.5 1104.9,65.9 1096.9,27.3 1050.2,52.6 		"/>
	</g>
	<g>
		<polygon class="st38" points="893.1,56.8 894.9,54.9 893.2,56.8 		"/>
		<polygon class="st38" points="736.7,50.3 736.7,50.3 736.7,50.3 736.7,50.3 736.7,50.3 		"/>
		<polygon class="st38" points="1057.7,51 1057.7,51 1067.6,54.2 1080,58.2 1080,58.2 1067.6,54.2 		"/>
		<polygon class="st38" points="753.7,57.6 744.8,53.8 753.7,57.6 754,57.7 		"/>
		<polygon class="st38" points="1111.9,49 1114.4,46.2 1111.9,49 1111.9,49 		"/>
		<polygon class="st38" points="1085.4,50.2 1086,49.4 1111.9,49 1086,49.4 		"/>
		<polygon class="st38" points="754.6,57.4 754.7,58 754.7,58 		"/>
		<polygon class="st38" points="1151.8,54.6 1151.9,54.7 1151.9,54.7 		"/>
		<polygon class="st38" points="1162.7,56.8 1190.5,62.1 1192.8,59.3 1190.5,62.1 		"/>
		<polygon class="st38" points="1245.5,74.5 1243.4,72.6 1245.5,74.5 		"/>
		<polygon class="st38" points="1245.6,74.4 1245.6,74.4 1245.6,74.4 		"/>
		<polygon class="st38" points="1254.8,80.7 1252.3,79 1247.8,75.9 1252.3,79 		"/>
		<polygon class="st38" points="1149.9,54.3 1151.8,54.7 1151.8,54.6 1151.8,54.7 		"/>
		<polygon class="st38" points="987.9,83.9 987.8,84.3 987.9,83.9 		"/>
		<polygon class="st39" points="974.7,51.9 988,45.1 984.9,53.6 		"/>
		<polygon class="st38" points="736.7,50.3 736.7,50.3 736.7,50.3 		"/>
		<polygon class="st38" points="736.7,50.3 736.7,50.3 736.7,50.3 736.7,50.3 		"/>
		<polygon class="st38" points="797,32.3 805,36.3 805,36.3 		"/>
		<polygon class="st40" points="1245.5,74.3 1245.6,74.4 1245.6,74.4 1245.5,74.5 1243.4,72.6 1242.9,72.2 1249.3,73.4 1245.6,74.4 
					"/>
		<polygon class="st38" points="817.6,77.7 818.4,79.4 818.8,79 		"/>
		<polygon class="st41" points="845.9,63.4 848.7,60.6 852.6,64.6 856,67.9 853.4,62.9 851.5,59.4 846.2,56.7 		"/>
		<polygon class="st42" points="842.8,55 846.2,56.7 851.5,59.4 852.7,60 854.4,60.8 859.6,49 848.3,53.1 846.4,53.7 		"/>
		<polygon class="st38" points="851.5,59.4 851.5,59.4 851.5,59.4 851.5,59.4 		"/>
		<polygon class="st38" points="851.5,59.4 851.5,59.4 851.5,59.4 851.5,59.4 		"/>
		<polygon class="st43" points="851.5,59.4 853.4,62.9 854.4,60.8 852.7,60 		"/>
		<polygon class="st44" points="878.9,73 879.6,73.3 883.3,75.2 896.6,73.3 903.6,72.4 900.8,68.2 895.6,60.4 893.2,56.8 		"/>
		<polygon class="st45" points="819,84.1 819,84.1 818.9,84.1 815.8,82.4 795.8,71.9 790.4,69.1 787.4,72 763.4,61.7 781.3,39.3 
			800.3,59.4 808,67.5 817.6,77.7 818.4,79.4 820.4,83.9 820.5,84.1 819,84.1 819,84.1 		"/>
		<polygon class="st46" points="818.4,79.4 820.4,83.9 820.5,84.1 822.1,84.1 823.6,84.1 823,83.5 822.7,83.1 818.8,79 		"/>
		<polygon class="st38" points="819,84.1 819,84.1 818.7,84.1 818.7,84.1 		"/>
		<polygon class="st38" points="818.7,84.1 818.9,84.1 819,84.1 		"/>
		<polygon class="st47" points="900.8,68.2 903.6,72.4 922,69.8 917.9,66.7 915.3,64.7 		"/>
		<polygon class="st48" points="1151.9,54.7 1151.9,54.7 1151.9,54.7 1162.7,56.8 1190.5,62.1 1181.6,73.1 1174.8,66.3 1171.2,69.7 
			1162,66.5 		"/>
		<polygon class="st38" points="1151.8,54.7 1151.8,54.6 1151.9,54.7 		"/>
		<polygon class="st49" points="1151.9,54.7 1151.9,54.7 1162,66.5 1167.6,73 1158.3,81.7 1154,63.7 		"/>
		<polygon class="st38" points="1151.9,54.7 1151.8,54.6 1151.9,54.7 		"/>
		<polygon class="st50" points="1030.2,23.7 1036.2,44.1 1007.9,35 		"/>
		<polygon class="st38" points="754,57.7 753.7,57.6 754.5,57 754.6,57.4 754.7,58 		"/>
		<polygon class="st49" points="1151.9,54.7 1154,63.7 1158.3,81.7 1158.7,83.4 1158.6,83.4 1158.6,83.4 1157,82.9 1157,82.9 
			1157,82.9 1157,82.9 1127.4,73.4 1144.2,60.5 1144.4,60.3 1151.8,54.7 		"/>
		<polygon class="st51" points="648.4,55.3 639.6,59.8 639.7,39.6 668.7,42.6 651.7,57.9 		"/>
		<polygon class="st52" points="645.7,63.3 639.4,81.6 639.5,68.8 639.6,59.8 648.4,55.3 		"/>
		<polygon class="st53" points="1171.2,69.7 1167.6,73 1162,66.5 		"/>
		<polygon class="st54" points="639.7,39.6 639.7,39.6 639.7,32.6 668.7,42.6 639.7,39.6 		"/>
		<polygon class="st38" points="639.7,39.6 668.7,42.6 639.7,39.6 		"/>
		<polygon class="st38" points="639.7,39.6 668.7,42.6 639.7,39.6 		"/>
		<polygon class="st55" points="639.4,81.6 645.7,63.3 648.4,55.3 649.8,59.6 658,84.3 639.4,84.3 		"/>
		<polygon class="st38" points="1181.5,73.3 1181.6,73.1 1181.8,73.4 		"/>
		<polygon class="st38" points="1132.2,56.1 1132.2,56.1 1136.9,51.8 		"/>
		<polygon class="st56" points="1136.9,51.8 1138.6,52.1 1151.8,54.7 1144.4,60.3 1132.2,56.1 1132.2,56.1 		"/>
		<polygon class="st38" points="1138.6,52.1 1149.9,54.3 1151.8,54.7 		"/>
		<polygon class="st38" points="1138.6,52.1 1149.9,54.3 1151.8,54.7 		"/>
		<polygon class="st57" points="651.7,57.9 668.7,42.6 674.4,64 698.1,48.3 672.1,73.7 		"/>
		<polygon class="st38" points="1158.7,83.4 1158.6,83.4 1158.7,83.4 		"/>
		<polygon class="st40" points="1214.2,66.7 1186.5,75 1181.8,73.4 1181.6,73.1 1190.5,62.1 		"/>
		<polygon class="st38" points="923.6,71.6 923.6,71.5 923.6,71.5 		"/>
		<polygon class="st38" points="875.2,74.4 875.3,74.4 875.2,74.2 		"/>
		<polygon class="st38" points="924,71.4 923.6,71.5 923.6,71.5 923.8,71.2 		"/>
		<polygon class="st38" points="923.6,71.1 923.6,71.5 923.8,71.2 		"/>
		<polygon class="st44" points="872.4,69.8 875.2,74.2 875.3,74.4 876.3,76 876.4,76.1 881.2,84 887.9,84 891.7,79.3 883.3,75.2 
			879.6,73.3 878.9,73 875.7,71.3 		"/>
		<polygon class="st38" points="878.9,73 878.9,73 878.9,73 878.9,73 		"/>
		<polygon class="st38" points="878.9,73 878.9,73 878.9,73 878.9,73 		"/>
		<polygon class="st44" points="883.3,75.2 891.7,79.3 896.6,73.3 		"/>
		<polygon class="st38" points="988.2,82.9 987.9,83.9 987.9,83.9 988,82.7 		"/>
		<polygon class="st58" points="1013.6,59.3 1008.5,57.8 1017.7,56.5 		"/>
		<polygon class="st38" points="994.7,59.7 994.6,60.3 994.5,59.8 		"/>
		<polygon class="st59" points="954.3,62.2 952.2,59.3 952.3,59.3 955.6,61.5 960.2,64.5 983,79.5 988,82.7 987.9,83.9 976.3,83.9 
			969.7,83.9 956.3,65.1 		"/>
		<polygon class="st46" points="781.3,39.3 800.3,59.4 808,67.5 817.6,77.7 812.3,66 806.5,53.4 797,32.3 		"/>
		<polygon class="st60" points="805,36.3 817.6,42.6 834.3,26.3 		"/>
		<polygon class="st45" points="797,32.3 806.5,53.4 812.3,66 817.6,77.7 818.8,79 822.7,83.1 823,83.5 823.6,84.1 825.2,84.1 
			826.2,83.1 845.9,63.4 846.2,56.7 842.8,55 841.7,54.5 840.8,54 840.4,53.9 840.3,53.8 817.6,42.6 805,36.3 805,36.3 		"/>
		<polygon class="st61" points="817.6,42.6 840.3,53.8 840.4,53.9 840.8,54 841.7,54.5 842.8,55 846.4,53.7 846.6,49.8 845.5,47.8 
			845.1,47 834.3,26.3 		"/>
		<polygon class="st62" points="834.3,26.3 845.1,47 845.5,47.8 846.6,49.8 846.6,49 846.8,46.3 846.8,46.3 846.9,44.3 847.3,35.3 
					"/>
		<polygon class="st63" points="751.7,41 766.7,49.3 754.5,57 		"/>
		<polygon class="st38" points="736.7,50.3 736.7,50.3 736.7,50.3 		"/>
		<polygon class="st64" points="754.5,57 754.5,57 753.7,57.6 744.8,53.8 736.7,50.3 751.7,41 754.5,57 		"/>
		<polygon class="st65" points="754.7,58 754.6,57.4 754.5,57 766.7,49.3 781.3,39.3 763.4,61.7 		"/>
		<polygon class="st38" points="754.5,57 754.6,57.4 754.5,57 		"/>
		<polygon class="st38" points="754.5,57 754.6,57.4 754.5,57 		"/>
		<polygon class="st38" points="754.5,57 766.7,49.3 754.5,57 		"/>
		<polygon class="st38" points="754.5,57 766.7,49.3 754.5,57 		"/>
		<polygon class="st38" points="754.5,57 754.5,57 754.5,57 754.5,57 		"/>
		<polygon class="st38" points="754.5,57 754.5,57 754.5,57 754.5,57 		"/>
		<polygon class="st66" points="855.4,30.7 910.3,37.4 910.6,37 870.3,22 		"/>
		<polygon class="st67" points="923.6,25.7 923.6,71.1 923.8,71.2 924.2,70.7 925.3,69.3 925.8,68.7 930.4,62.6 931.9,60.7 
			942.9,46.3 937.7,40.7 		"/>
		<polygon class="st68" points="930.4,62.6 949,56.6 950.1,56.4 942.9,46.3 931.9,60.7 		"/>
		<polygon class="st69" points="736.7,50.3 744.8,53.8 753.7,57.6 746.7,62 745.4,61.3 742.9,63 736.7,50.3 		"/>
		<polygon class="st38" points="736.7,50.3 736.7,50.3 736.7,50.3 744.8,53.8 		"/>
		<polygon class="st38" points="736.7,50.3 736.7,50.3 736.7,50.3 744.8,53.8 		"/>
		<polygon class="st70" points="846.8,46.3 853.3,38.6 881,38.6 855.3,30.7 855.3,30.7 846.9,44.3 		"/>
		<polygon class="st71" points="846.9,44.3 855.3,30.7 847.3,35.3 		"/>
		<polygon class="st72" points="855.3,30.7 881,38.6 897.9,51.5 910.3,37.4 855.4,30.7 		"/>
		<polygon class="st73" points="1021.1,54.3 1022.9,55.8 1026.1,58.6 1022.1,61.7 1013.6,59.3 1017.7,56.5 		"/>
		<polygon class="st74" points="923.6,71.6 923.6,71.5 924,71.4 930.4,68.6 952.2,59.3 954.3,62.2 956.3,65.1 969.7,83.9 940.6,84 
			923.6,84 914,84 915.8,81.8 		"/>
		<polygon class="st75" points="1030.6,55 1030.3,62.2 1030.3,64.1 1022.1,61.7 1026.1,58.6 		"/>
		<polygon class="st76" points="691.6,84.2 711.7,84.2 712.8,84.2 726.1,84.2 721.4,78.2 721.3,78.1 698.1,48.3 		"/>
		<polygon class="st77" points="736.7,50.3 736.7,50.3 742.9,63 737.3,67 736.7,50.3 736.7,50.3 736.7,50.3 		"/>
		<polygon class="st38" points="736.7,50.3 736.7,50.3 736.7,50.3 		"/>
		<polygon class="st38" points="736.7,50.3 736.7,50.3 736.7,50.3 		"/>
		<polygon class="st78" points="717,62.6 729.5,72.4 737.3,67 736.7,50.3 		"/>
		<polygon class="st79" points="698.1,48.3 721.3,78.1 721.4,78.2 726.1,84.2 738,84.2 744.5,84.2 737.8,78.9 729.9,72.7 
			729.5,72.4 717,62.6 		"/>
		<polygon class="st49" points="1157,82.9 1157,82.9 1158.6,83.4 1158.6,83.4 1158.7,83.4 1159.7,83.7 1158.8,83.8 1156,83.8 
			1113.9,83.8 1127.4,73.4 		"/>
		<polygon class="st38" points="1157,82.9 1157,82.9 1157,82.9 1157,82.9 		"/>
		<polygon class="st38" points="1157,82.9 1157,82.9 1157,82.9 1157,82.9 		"/>
		<polygon class="st38" points="1157,82.9 1157,82.9 1157,82.9 1157,82.9 		"/>
		<polygon class="st80" points="1214.2,66.7 1230.8,61.6 1227.5,69.2 1221.2,83.7 1211.4,83.7 1186.5,75 		"/>
		<polygon class="st53" points="1181.8,73.4 1186.5,75 1211.4,83.7 1192,83.7 1184.1,75.7 		"/>
		<polygon class="st53" points="1158.7,83.4 1158.3,81.7 1167.6,73 1171.2,69.7 1174.8,66.3 1181.6,73.1 1181.5,73.3 1181.8,73.4 
			1184.1,75.7 1192,83.7 1176.9,83.7 1173,83.7 1159.7,83.7 1158.7,83.4 		"/>
		<polygon class="st81" points="698.1,48.3 691.6,84.2 685.7,84.2 672.1,73.7 		"/>
		<polygon class="st82" points="648.4,55.3 651.7,57.9 672.1,73.7 661.2,84.3 658,84.3 649.8,59.6 		"/>
		<polygon class="st38" points="995.6,83.7 995.6,83.9 994.4,83.9 995.6,83.9 994.4,83.9 994.3,83.9 995,83.3 		"/>
		<polygon class="st81" points="685.7,84.2 661.2,84.3 672.1,73.7 		"/>
		<polygon class="st83" points="989.2,79.2 990.6,74.5 994.6,60.3 994.7,59.7 996.2,54.3 998.7,59.2 1002.5,66.6 1006.4,74.2 
			1011.4,83.9 995.8,83.9 995.6,83.7 995,83.3 994.3,83.9 989.8,83.9 987.9,83.9 988.2,82.9 		"/>
		<polygon class="st38" points="995.8,83.9 995.6,83.9 995.6,83.7 		"/>
		<polygon class="st75" points="1030.6,55 1041.7,67.4 1033.6,65.1 1030.3,64.1 1030.3,62.2 		"/>
		<polygon class="st56" points="1114.4,46.2 1111.9,49 1111.9,49 1086,49.4 1094.9,36.3 1115.8,44.7 1115.8,44.7 1115.8,44.7 		"/>
		<polygon class="st84" points="1085.4,50.2 1080,58.2 1067.6,54.2 1067.6,49.6 1086,49.4 		"/>
		<polygon class="st85" points="1242.9,72.2 1242.9,72.2 1242.9,72.2 1243.4,72.6 1245.5,74.5 1245.5,74.5 1245.5,74.5 1245.6,74.4 
			1245.6,74.4 1247.8,75.9 1252.3,79 1254.8,80.7 1259.2,83.6 1221.2,83.7 1227.5,69.2 		"/>
		<polygon class="st86" points="1057.7,51 1057.7,51 1036.2,44.1 1030.2,23.7 1007.9,35 993.3,30.3 1001.6,32 1016.6,14 
			1067.6,49.6 1057.7,51 		"/>
		<polygon class="st87" points="1057.7,51 1067.6,49.6 1067.6,54.2 		"/>
		<polygon class="st38" points="1057.7,51 1067.6,49.6 1057.7,51 		"/>
		<polygon class="st38" points="1057.7,51 1067.6,49.6 1057.7,51 		"/>
		<polygon class="st88" points="990.2,60.3 967.2,63.5 960.7,58.9 942.9,46.3 974.7,51.9 984.9,53.6 988,45.1 993.3,30.3 992,43.1 
					"/>
		<polygon class="st89" points="1067.6,49.6 1094.9,36.3 1086,49.4 		"/>
		<polygon class="st90" points="1249.3,73.4 1279.5,65.3 1279.2,79 1278.2,79 		"/>
		<polygon class="st38" points="1279.2,79 1279.2,79.2 1278.2,79 		"/>
		<polygon class="st56" points="1132.2,56.1 1111.9,49 1114.4,46.2 1115.8,44.7 1130.9,50.6 1136.9,51.8 		"/>
		<polygon class="st90" points="1252.3,79 1247.8,75.9 1245.6,74.4 1245.6,74.4 1245.6,74.4 1249.3,73.4 1278.2,79 		"/>
		<polygon class="st91" points="1230.8,61.6 1214.2,66.7 1190.5,62.1 1192.8,59.3 1221.5,53.3 1242.9,72.2 1227.5,69.2 		"/>
		<polygon class="st92" points="1136.9,51.8 1130.9,50.6 1159.5,31.6 1136.9,51.8 		"/>
		<polygon class="st38" points="1136.9,51.8 1136.9,51.8 1136.9,51.8 1136.9,51.8 		"/>
		<polygon class="st38" points="1136.9,51.8 1136.9,51.8 1136.9,51.8 1136.9,51.8 		"/>
		<polygon class="st38" points="1136.9,51.8 1136.9,51.8 1136.9,51.8 1136.9,51.8 		"/>
		<polygon class="st93" points="1162.7,56.8 1151.9,54.7 1151.8,54.6 1151.8,54.7 1149.9,54.3 1138.6,52.1 1136.9,51.8 1159.5,31.6 
			1192.8,59.3 1190.5,62.1 		"/>
		<polygon class="st38" points="1136.9,51.8 1136.9,51.8 1138.6,52.1 		"/>
		<polygon class="st38" points="1136.9,51.8 1136.9,51.8 1138.6,52.1 		"/>
		<polygon class="st38" points="1136.9,51.8 1136.9,51.8 1138.6,52.1 		"/>
		<polygon class="st94" points="1254.8,80.7 1252.3,79 1278.2,79 1279.2,79.2 1279.1,83.6 1259.2,83.6 1259.2,83.6 1259.2,83.6 		
			"/>
		<polygon class="st65" points="754,57.7 754.7,58 754.7,58 754.7,58 756.3,67.1 746.7,62 753.7,57.6 		"/>
		<polygon class="st38" points="754.7,58 754,57.7 754.7,58 		"/>
		<polygon class="st38" points="754.7,58 754,57.7 754.7,58 		"/>
		<polygon class="st65" points="763.4,61.7 758.3,68.2 756.3,67.1 754.7,58 		"/>
		<polygon class="st95" points="758.3,68.2 777.6,78.4 782.6,76.6 787.4,72 763.4,61.7 		"/>
		<polygon class="st96" points="848.7,60.6 848.7,73.4 848.8,79.9 848.8,80.7 848.8,84.1 864.4,84.1 869.2,84.1 872.2,84 
			870.6,82.4 865.7,77.6 865,76.8 856,67.9 852.6,64.6 		"/>
		<polygon class="st44" points="887.9,84 894.4,84 901.2,84 911.3,84 911.4,84 907.6,78.4 903.6,72.4 896.6,73.3 891.7,79.3 		"/>
		<polygon class="st47" points="903.6,72.4 907.6,78.4 911.4,84 911.4,84 914,84 915.8,81.8 923.6,71.6 923.6,71.5 923.6,71.1 
			922,69.8 		"/>
		<polygon class="st38" points="911.4,84 911.3,84 911.4,84 		"/>
		<polygon class="st97" points="729.5,72.4 729.9,72.7 737.8,78.9 744.5,84.2 745.5,84.2 750.7,84.2 749.5,79.2 748.4,74.3 
			745.7,62.6 745.4,61.3 742.9,63 737.3,67 		"/>
		<polygon class="st98" points="825.2,84.1 834.8,84.1 843.9,84.1 844.8,84.1 848.8,84.1 848.8,80.7 848.8,79.9 848.7,73.4 
			848.7,60.6 845.9,63.4 826.2,83.1 		"/>
		<polygon class="st99" points="853.4,62.9 856,67.9 865,76.8 865.7,77.6 870.6,82.4 872.2,84 873.6,84 881.2,84 876.4,76.1 
			876.3,76 875.3,74.4 875.2,74.4 875.2,74.2 872.4,69.8 854.4,60.8 		"/>
		<polygon class="st100" points="761.6,84.2 774.9,84.2 779.6,79.5 782.6,76.6 777.6,78.4 		"/>
		<polygon class="st100" points="774.9,84.2 788.4,84.1 814.4,84.1 815.8,84.1 818.7,84.1 818.9,84.1 815.8,82.4 795.8,71.9 
			790.4,69.1 787.4,72 782.6,76.6 779.6,79.5 		"/>
		<polygon class="st101" points="745.4,61.3 745.7,62.6 748.4,74.3 749.5,79.2 750.7,84.2 753.2,84.2 759.3,84.2 761.6,84.2 
			777.6,78.4 758.3,68.2 756.3,67.1 746.7,62 		"/>
		<polygon class="st102" points="942.9,46.3 950.1,56.4 952.2,59.3 952.3,59.3 955.6,61.5 960.2,64.5 983,79.5 988,82.7 988.4,78.6 
			986.5,77.2 967.2,63.5 960.7,58.9 		"/>
		<polygon class="st103" points="1021.1,54.3 1036.2,44.3 1036.2,44.1 1057.7,51 1022.9,55.8 		"/>
		<polygon class="st104" points="1036.2,44.1 1036.2,44.3 1021.1,54.3 1002.1,37.9 993.3,30.3 1007.9,35 		"/>
		<polygon class="st58" points="988.7,75.8 990.2,60.3 994.5,59.8 994.6,60.3 990.6,74.5 989.2,79.2 988.2,82.9 988,82.7 
			988.4,78.6 		"/>
		<polygon class="st58" points="1021.1,54.3 1017.7,56.5 1008.5,57.8 996.2,54.3 994.7,59.7 994.5,59.8 993.8,42.2 993.3,30.3 
			1002.1,37.9 		"/>
		<polygon class="st88" points="988.4,78.6 986.5,77.2 967.2,63.5 990.2,60.3 988.7,75.8 		"/>
		<polygon class="st105" points="994.5,59.8 990.2,60.3 992,43.1 993.3,30.3 993.8,42.2 		"/>
		<polygon class="st84" points="1080,58.2 1085.4,50.2 1086,49.4 1111.9,49 1111.9,49 1098.1,64 1080,58.2 1080,58.2 		"/>
		<polygon class="st84" points="1067.7,76.3 1080,58.2 1098.1,64 1079.7,83.8 1069.9,83.8 1067.7,83.8 1062.5,83.9 1065.7,79.2 		
			"/>
		<polygon class="st106" points="1119.3,70.8 1144.2,60.5 1127.4,73.4 1113.9,83.8 1101.1,83.8 1087.8,83.8 1112.5,73.6 		"/>
		<polygon class="st53" points="1111.9,49 1132.2,56.1 1132.2,56.1 1144.4,60.3 1144.2,60.5 1119.3,70.8 1112.5,73.6 1087.8,83.8 
			1079.7,83.8 1098.1,64 		"/>
		<polygon class="st84" points="1080,58.2 1067.7,76.3 1067.6,54.2 		"/>
		<polygon class="st107" points="1065.7,79.2 1062.5,83.9 1056.4,83.9 1055.4,83.9 1049.9,83.9 1059.9,72.6 		"/>
		<polygon class="st83" points="1002.5,66.6 998.7,59.2 996.2,54.3 1008.5,57.8 1013.6,59.3 1022.1,61.7 1030.3,64.1 1033.6,65.1 
			1041.7,67.4 1059.9,72.6 1049.9,83.9 1029.6,83.9 1011.4,83.9 1006.4,74.2 		"/>
		<polygon class="st87" points="1026.1,58.6 1022.9,55.8 1057.7,51 1067.6,54.2 1067.7,76.3 1065.7,79.2 1059.9,72.6 1041.7,67.4 
			1030.6,55 		"/>
		<polygon class="st108" points="853.3,38.6 872.4,69.8 875.7,71.3 881,38.6 		"/>
		<polygon class="st109" points="894.9,54.9 893.1,56.8 881,38.6 897.9,51.5 		"/>
		<polygon class="st38" points="897.9,51.5 881,38.6 897.9,51.5 		"/>
		<polygon class="st38" points="897.9,51.5 881,38.6 897.9,51.5 		"/>
		<polygon class="st110" points="875.7,71.3 878.9,73 893.2,56.8 881,38.6 		"/>
		<polygon class="st38" points="893.1,56.8 881,38.6 893.1,56.8 		"/>
		<polygon class="st38" points="893.1,56.8 881,38.6 893.1,56.8 		"/>
		<polygon class="st111" points="848.3,53.1 859.6,49 854.4,60.8 872.4,69.8 853.3,38.6 846.8,46.3 846.8,46.3 846.6,49 846.6,49.8 
			846.4,53.7 		"/>
		<polygon class="st38" points="848.3,53.1 848.3,53.1 848.3,53.1 848.3,53.1 		"/>
		<polygon class="st38" points="848.3,53.1 848.3,53.1 848.3,53.1 848.3,53.1 		"/>
		<polygon class="st38" points="840.8,54 840.8,54 840.8,54 840.8,54 		"/>
		<polygon class="st38" points="840.8,54 840.8,54 840.8,54 840.8,54 		"/>
		<polygon class="st47" points="893.2,56.8 895.6,60.4 900.8,68.2 915.3,64.7 897.9,51.5 894.9,54.9 		"/>
		<polygon class="st38" points="897.9,51.5 897.9,51.5 894.9,54.9 		"/>
		<polygon class="st38" points="897.9,51.5 897.9,51.5 894.9,54.9 		"/>
		<polygon class="st38" points="893.1,56.8 893.1,56.8 893.1,56.8 893.2,56.8 		"/>
		<polygon class="st38" points="893.1,56.8 893.1,56.8 893.1,56.8 893.2,56.8 		"/>
		<polygon class="st112" points="923.8,71.2 924,71.4 930.4,68.6 952.2,59.3 950.1,56.4 949,56.6 930.4,62.6 925.8,68.7 925.3,69.3 
			924.2,70.7 		"/>
		<polygon class="st38" points="925.3,69.3 925.3,69.3 925.3,69.3 		"/>
		<polygon class="st38" points="925.3,69.3 925.3,69.3 925.3,69.3 		"/>
		<polygon class="st38" points="925.3,69.3 925.3,69.3 925.3,69.3 925.3,69.3 		"/>
		<polygon class="st38" points="925.3,69.3 925.3,69.3 925.3,69.3 925.3,69.3 		"/>
		<polygon class="st113" points="897.9,51.5 915.3,64.7 917.9,66.7 922,69.8 923.6,71.1 923.6,25.7 910.6,37 910.3,37.4 		"/>
		<polygon class="st38" points="897.9,51.5 897.9,51.5 897.9,51.5 897.9,51.5 		"/>
	</g>
	<g>
		<polygon class="st114" points="1114.4,51.6 1146.2,60.9 1153,58 1138.9,51.1 1132.9,55.8 		"/>
		<polygon class="st38" points="1173.7,68 1173.7,68 1173.7,68 		"/>
		<line class="st38" x1="1167.6" y1="83.2" x2="1159.4" y2="83.2"/>
		<polygon class="st115" points="1173.7,68 1175.4,69.5 1185,77.8 1230.3,63.6 1179.5,70.8 1178.9,70.5 		"/>
		<polygon class="st114" points="1153,58 1158.6,64.5 1167.2,74.8 1172.9,68.8 1173.7,68 		"/>
		<polygon class="st116" points="1082.2,83.1 1094.8,83.1 1146.2,60.9 1114.4,51.6 1112.5,51.1 		"/>
		<polygon class="st117" points="1253.3,79.3 1279,77.6 1279,83.3 1221.6,83.2 1230.3,63.6 		"/>
		<polygon class="st118" points="1111,83.1 1159.4,83.2 1167.2,74.8 1158.6,64.5 1153,58 1153,58 1153,58 1147.5,61.3 		"/>
		<polygon class="st119" points="1185,77.8 1191.3,83.2 1221.6,83.2 1230.3,63.6 		"/>
		<polygon class="st120" points="1094.8,83.1 1111,83.1 1147.5,61.3 1153,58 1146.2,60.9 		"/>
		<polygon class="st121" points="1159.4,83.2 1167.6,83.2 1174.3,83.2 1191.3,83.2 1185,77.8 1175.4,69.5 1173.7,68 1173.7,68 
			1172.9,68.8 1167.2,74.8 		"/>
		<polygon class="st38" points="900.1,70 908.2,80.3 908.1,80.3 		"/>
		<polygon class="st122" points="986.4,83.3 952.5,83.3 952.8,61 		"/>
		<polygon class="st123" points="952.8,61 952.5,83.3 910.5,83.3 908.2,80.3 		"/>
		<polygon class="st124" points="908.1,80.3 908.2,80.3 910.5,83.3 891.5,83.3 900.1,70 		"/>
		<polygon class="st125" points="1009.7,83.3 986.4,83.3 995.7,55.3 		"/>
		<polygon class="st126" points="1060.1,74 1049.9,83.3 1009.7,83.3 995.7,55.3 		"/>
		<polygon class="st127" points="1067.7,83.3 1049.9,83.3 1060.1,74 		"/>
		<polygon class="st128" points="849.2,62.3 860.8,74.3 864.8,69.3 853.8,83.3 829.5,83.3 		"/>
		<polygon class="st129" points="877.8,83.3 853.8,83.3 864.8,69.3 		"/>
	</g>
</g>
<g>
	<polygon class="st0" points="1809.5,84.6 1808.6,84.6 1808.8,85.1 1809.6,85.7 	"/>
	<polygon class="st0" points="1809.8,85.9 1810.1,86.1 1811.9,84.6 1810.3,84.6 	"/>
	<polygon class="st0" points="1809.6,86.3 1809.7,86.4 1809.7,86.4 1809.7,86.2 	"/>
	<polygon class="st0" points="1809.7,86.2 1809.7,86.4 1810.1,86.1 1809.8,85.9 	"/>
	<polygon class="st0" points="1809.7,86.2 1809.8,85.9 1809.6,85.7 	"/>
	<polygon class="st0" points="1809.6,85.7 1808.8,85.1 1809.6,86.3 1809.7,86.2 	"/>
	<polygon class="st0" points="1809.8,85.9 1810.3,84.6 1809.5,84.6 1809.6,85.7 	"/>
	<polygon class="st0" points="1808.3,84.6 1808.8,85.1 1808.6,84.6 	"/>
	<polygon class="st0" points="1645.1,86 1645.1,86.1 1646.3,84.6 1645.1,84.6 	"/>
	<polygon class="st0" points="1555.4,102.1 1560.5,84.6 1554.2,84.6 	"/>
	<polygon class="st0" points="1643.8,84.6 1645.1,86 1645.1,84.6 	"/>
	<polygon class="st0" points="1809.5,86.5 1809.7,86.4 1809.6,86.3 	"/>
	<polygon class="st0" points="1809.7,86.5 1809.7,86.4 1809.7,86.4 	"/>
	<polygon class="st0" points="1809.7,86.4 1809.5,86.5 1786.8,146.3 1813.3,125.8 1809.7,86.5 	"/>
	<polygon class="st0" points="1645.1,86.1 1645.1,86.1 1645.1,86 	"/>
	<polygon class="st0" points="1813.3,125.8 1827.4,114.9 1809.7,86.5 	"/>
	<polygon class="st0" points="1767.8,119.7 1781.7,150.1 1786.8,146.3 1809.5,86.5 	"/>
	<polygon class="st0" points="1811.9,84.6 1810.1,86.1 1836.2,108.1 1865.7,85.3 1865.5,84.6 	"/>
	<polygon class="st0" points="1809.7,86.4 1809.7,86.5 1827.4,114.9 1836.2,108.1 1810.1,86.1 	"/>
	<polygon class="st0" points="1809.6,86.3 1808.8,85.1 1808.3,84.6 1751.7,84.6 1767.8,119.7 1809.5,86.5 	"/>
	<polygon class="st0" points="1865.5,84.6 1865.7,85.3 1866.6,84.6 	"/>
	<polygon class="st0" points="1545.8,84.6 1553.2,109.5 1555.4,102.1 1554.2,84.6 	"/>
	<polygon class="st0" points="1361.8,87.9 1362,84.6 1360.9,84.6 	"/>
	<polygon class="st0" points="1556.6,120.7 1555.4,102.1 1553.2,109.5 	"/>
	<polygon class="st0" points="1406.3,86.5 1406.2,84.6 1405.7,84.6 	"/>
	<polygon class="st0" points="1473.6,86.8 1474.1,84.6 1473.4,84.6 	"/>
	<polygon class="st1" points="1467.9,23.3 1473.4,84.6 1474.1,84.6 1489.2,19 	"/>
	<polygon class="st2" points="1549.5,12.7 1527.8,25 1545.8,84.6 1554.2,84.6 	"/>
	<polygon class="st3" points="1489.2,19 1474.1,84.6 1545.8,84.6 1527.8,25 	"/>
	<polygon class="st4" points="1402.9,9 1406.2,84.6 1473.4,84.6 1467.9,23.3 	"/>
	<polygon class="st5" points="1351.3,16.3 1334.9,0.3 1360.9,84.6 1362,84.6 1365.6,12.3 	"/>
	<polygon class="st6" points="1280.3,63.3 1280,84.6 1360.9,84.6 1334.9,0.3 	"/>
	<polygon class="st7" points="1371.3,19.7 1365.6,12.3 1362,84.6 1405.7,84.6 1381.6,12.3 	"/>
	<polygon class="st8" points="1381.6,12.3 1405.7,84.6 1406.2,84.6 1402.9,9 	"/>
	<polygon class="st9" points="1919.7,84.6 1919.7,43.6 1866.6,84.6 	"/>
	<polygon class="st10" points="1892,21 1864,20.3 1847.7,13.7 1840.4,5.7 1854.7,50.7 	"/>
	<polygon class="st11" points="1549.5,12.7 1554.2,84.6 1560.5,84.6 1577.8,25.7 	"/>
	<polygon class="st12" points="1811.9,84.6 1854.7,50.7 1840.4,5.7 1810.3,84.6 	"/>
	<polygon class="st13" points="1810.3,84.6 1840.4,5.7 1803.4,16.3 1809.5,84.6 	"/>
	<polygon class="st14" points="1808.6,84.6 1764.1,13.3 1740.1,27 1808.3,84.6 	"/>
	<polygon class="st15" points="1740.1,27 1735.1,20 1725.8,26.3 1717.1,9 1751.7,84.6 1808.3,84.6 	"/>
	<polygon class="st16" points="1809.5,84.6 1803.4,16.3 1797.4,9 1790.7,8.7 1779.4,17.3 1764.1,13.3 1808.6,84.6 	"/>
	<polygon class="st17" points="1644.8,8.3 1625.5,32 1584.5,19 1643.8,84.6 1645.1,84.6 	"/>
	<polygon class="st18" points="1644.8,8.3 1645.1,84.6 1646.3,84.6 1696.1,25 	"/>
	<polygon class="st19" points="1577.8,25.7 1560.5,84.6 1643.8,84.6 1584.5,19 	"/>
	<polygon class="st20" points="1704.4,22.3 1696.1,25 1646.3,84.6 1751.7,84.6 1717.1,9 	"/>
	<polygon class="st9" points="1811.9,84.6 1865.5,84.6 1854.7,50.7 	"/>
	<polygon class="st21" points="1865.5,84.6 1866.6,84.6 1919.7,43.6 1888,32 1892,21 1854.7,50.7 	"/>
</g>
<g>
	<g>
		<polygon class="st22" points="1363.6,83.6 1327.3,83.6 1299.9,83.6 1287,83.6 1298.3,68.7 1330.3,26.7 1349.6,59.8 		"/>
		<polygon class="st23" points="1382.6,24.7 1368.7,83.6 1363.6,83.6 1349.6,59.8 		"/>
		<polygon class="st24" points="1330.3,26.7 1298.3,68.7 1287,83.6 1280.6,83.6 1280.5,69.3 1296.9,55.2 		"/>
		<polygon class="st25" points="1462.5,27.3 1454.5,65.9 1444.7,59.3 		"/>
		<polygon class="st26" points="1382.6,24.7 1349.6,59.8 1330.3,26.7 1367.3,40.6 		"/>
		<polygon class="st27" points="1330.3,26.7 1296.9,55.2 1280.5,69.3 1280.3,40 1295.3,40 		"/>
		<polygon class="st28" points="1808.2,71.5 1795.2,83.3 1740.5,83.3 1783.4,28.7 		"/>
		<polygon class="st29" points="1865.4,19.7 1808.2,71.5 1783.4,28.7 1803.7,40.6 1847.7,33 		"/>
		<polygon class="st30" points="1724.1,67 1585.5,17.3 1571.9,83.4 1580.4,83.4 1629.1,33 1580.4,83.4 1740.5,83.3 1783.4,28.7 		
			"/>
		<polygon class="st31" points="1919.3,52.3 1865.4,19.7 1882.6,83.3 1919.3,83.2 		"/>
		<polygon class="st32" points="1462.5,27.3 1444.7,59.3 1399.2,29 1441.2,43.6 		"/>
		<polygon class="st33" points="1865.4,19.7 1820.9,83.3 1815,83.3 1795.2,83.3 1808.2,71.5 		"/>
		<polygon class="st34" points="1882.6,83.3 1820.9,83.3 1865.4,19.7 		"/>
		<polygon class="st35" points="1458.8,83.5 1450.9,83.5 1431.2,83.5 1368.7,83.6 1382.6,24.7 1396.2,31.6 1399.2,29 1440.5,66.8 
			1452.1,77.4 		"/>
		<polygon class="st36" points="1481,83.5 1458.8,83.5 1452.1,77.4 1440.5,66.8 1399.2,29 1444.7,59.3 1454.5,65.9 		"/>
		<polygon class="st37" points="1585.5,17.3 1571.9,83.4 1561.5,83.5 1481,83.5 1454.5,65.9 1462.5,27.3 1509.2,52.6 		"/>
	</g>
	<g>
		<polygon class="st38" points="1666.3,56.8 1664.6,54.9 1666.3,56.8 		"/>
		<polygon class="st38" points="1822.7,50.3 1822.7,50.3 1822.7,50.3 1822.7,50.3 1822.7,50.3 		"/>
		<polygon class="st38" points="1501.7,51 1501.7,51 1491.8,54.2 1479.4,58.2 1479.4,58.2 1491.8,54.2 		"/>
		<polygon class="st38" points="1805.7,57.6 1814.6,53.8 1805.7,57.6 1805.4,57.7 		"/>
		<polygon class="st38" points="1447.5,49 1445,46.2 1447.5,49 1447.5,49 		"/>
		<polygon class="st38" points="1474,50.2 1473.4,49.4 1447.5,49 1473.4,49.4 		"/>
		<polygon class="st38" points="1804.8,57.4 1804.7,58 1804.7,58 		"/>
		<polygon class="st38" points="1407.6,54.6 1407.5,54.7 1407.5,54.7 		"/>
		<polygon class="st38" points="1396.7,56.8 1368.9,62.1 1366.6,59.3 1368.9,62.1 		"/>
		<polygon class="st38" points="1313.9,74.5 1316,72.6 1313.9,74.5 		"/>
		<polygon class="st38" points="1313.8,74.4 1313.8,74.4 1313.8,74.4 		"/>
		<polygon class="st38" points="1304.6,80.7 1307.1,79 1311.6,75.9 1307.1,79 		"/>
		<polygon class="st38" points="1409.5,54.3 1407.6,54.7 1407.6,54.6 1407.6,54.7 		"/>
		<polygon class="st38" points="1571.5,83.9 1571.6,84.3 1571.6,83.9 		"/>
		<polygon class="st39" points="1584.7,51.9 1571.4,45.1 1574.5,53.6 		"/>
		<polygon class="st38" points="1822.7,50.3 1822.7,50.3 1822.7,50.3 		"/>
		<polygon class="st38" points="1822.7,50.3 1822.7,50.3 1822.7,50.3 1822.7,50.3 		"/>
		<polygon class="st38" points="1762.4,32.3 1754.4,36.3 1754.4,36.3 		"/>
		<polygon class="st40" points="1313.9,74.3 1313.8,74.4 1313.8,74.4 1313.9,74.5 1316,72.6 1316.5,72.2 1310.1,73.4 1313.8,74.4 		
			"/>
		<polygon class="st38" points="1741.8,77.7 1741,79.4 1740.6,79 		"/>
		<polygon class="st41" points="1713.5,63.4 1710.8,60.6 1706.8,64.6 1703.4,67.9 1706,62.9 1707.9,59.4 1713.2,56.7 		"/>
		<polygon class="st42" points="1716.6,55 1713.2,56.7 1707.9,59.4 1706.7,60 1705.1,60.8 1699.8,49 1711.2,53.1 1713,53.7 		"/>
		<polygon class="st38" points="1707.9,59.4 1707.9,59.4 1707.9,59.4 1707.9,59.4 		"/>
		<polygon class="st38" points="1707.9,59.4 1707.9,59.4 1707.9,59.4 1707.9,59.4 		"/>
		<polygon class="st43" points="1707.9,59.4 1706,62.9 1705.1,60.8 1706.7,60 		"/>
		<polygon class="st44" points="1680.5,73 1679.8,73.3 1676.1,75.2 1662.9,73.3 1655.9,72.4 1658.6,68.2 1663.8,60.4 1666.3,56.8 		
			"/>
		<polygon class="st45" points="1740.4,84.1 1740.4,84.1 1740.5,84.1 1743.6,82.4 1763.6,71.9 1769,69.1 1772,72 1796,61.7 
			1778.1,39.3 1759.1,59.4 1751.4,67.5 1741.8,77.7 1741,79.4 1739,83.9 1738.9,84.1 1740.4,84.1 1740.4,84.1 		"/>
		<polygon class="st46" points="1741,79.4 1739,83.9 1738.9,84.1 1737.3,84.1 1735.8,84.1 1736.4,83.5 1736.7,83.1 1740.6,79 		"/>
		<polygon class="st38" points="1740.4,84.1 1740.4,84.1 1740.7,84.1 1740.7,84.1 		"/>
		<polygon class="st38" points="1740.7,84.1 1740.5,84.1 1740.4,84.1 		"/>
		<polygon class="st47" points="1658.6,68.2 1655.9,72.4 1637.4,69.8 1641.5,66.7 1644.1,64.7 		"/>
		<polygon class="st48" points="1407.5,54.7 1407.5,54.7 1407.5,54.7 1396.7,56.8 1368.9,62.1 1377.8,73.1 1384.6,66.3 1388.2,69.7 
			1397.4,66.5 		"/>
		<polygon class="st38" points="1407.6,54.7 1407.6,54.6 1407.6,54.7 		"/>
		<polygon class="st49" points="1407.6,54.7 1407.5,54.7 1397.4,66.5 1391.8,73 1401.1,81.7 1405.4,63.7 		"/>
		<polygon class="st38" points="1407.6,54.7 1407.6,54.6 1407.5,54.7 		"/>
		<polygon class="st50" points="1529.2,23.7 1523.2,44.1 1551.5,35 		"/>
		<polygon class="st38" points="1805.4,57.7 1805.7,57.6 1804.9,57 1804.8,57.4 1804.7,58 		"/>
		<polygon class="st49" points="1407.6,54.7 1405.4,63.7 1401.1,81.7 1400.7,83.4 1400.8,83.4 1400.8,83.4 1402.5,82.9 1402.5,82.9 
			1402.5,82.9 1402.5,82.9 1432,73.4 1415.2,60.5 1415,60.3 1407.6,54.7 		"/>
		<polygon class="st51" points="1911,55.3 1919.8,59.8 1919.7,39.6 1890.7,42.6 1907.7,57.9 		"/>
		<polygon class="st52" points="1913.7,63.3 1920,81.6 1919.9,68.8 1919.8,59.8 1911,55.3 		"/>
		<polygon class="st53" points="1388.2,69.7 1391.8,73 1397.4,66.5 		"/>
		<polygon class="st54" points="1919.7,39.6 1919.7,39.6 1919.7,32.6 1890.7,42.6 1919.7,39.6 		"/>
		<polygon class="st38" points="1919.7,39.6 1890.7,42.6 1919.7,39.6 		"/>
		<polygon class="st38" points="1919.7,39.6 1890.7,42.6 1919.7,39.6 		"/>
		<polygon class="st55" points="1920,81.6 1913.7,63.3 1911,55.3 1909.6,59.6 1901.4,84.3 1920,84.3 		"/>
		<polygon class="st38" points="1377.9,73.3 1377.8,73.1 1377.6,73.4 		"/>
		<polygon class="st38" points="1427.2,56.1 1427.2,56.1 1422.5,51.8 		"/>
		<polygon class="st56" points="1422.5,51.8 1420.8,52.1 1407.6,54.7 1415,60.3 1427.2,56.1 1427.2,56.1 		"/>
		<polygon class="st38" points="1420.8,52.1 1409.5,54.3 1407.6,54.7 		"/>
		<polygon class="st38" points="1420.8,52.1 1409.5,54.3 1407.6,54.7 		"/>
		<polygon class="st57" points="1907.7,57.9 1890.7,42.6 1885,64 1861.4,48.3 1887.3,73.7 		"/>
		<polygon class="st38" points="1400.7,83.4 1400.8,83.4 1400.7,83.4 		"/>
		<polygon class="st40" points="1345.3,66.7 1372.9,75 1377.6,73.4 1377.8,73.1 1368.9,62.1 		"/>
		<polygon class="st38" points="1635.8,71.6 1635.8,71.5 1635.8,71.5 		"/>
		<polygon class="st38" points="1684.2,74.4 1684.1,74.4 1684.2,74.2 		"/>
		<polygon class="st38" points="1635.4,71.4 1635.8,71.5 1635.8,71.5 1635.6,71.2 		"/>
		<polygon class="st38" points="1635.8,71.1 1635.8,71.5 1635.6,71.2 		"/>
		<polygon class="st44" points="1687,69.8 1684.2,74.2 1684.1,74.4 1683.1,76 1683.1,76.1 1678.2,84 1671.6,84 1667.7,79.3 
			1676.1,75.2 1679.8,73.3 1680.5,73 1683.8,71.3 		"/>
		<polygon class="st38" points="1680.5,73 1680.5,73 1680.5,73 1680.5,73 		"/>
		<polygon class="st38" points="1680.5,73 1680.5,73 1680.5,73 1680.5,73 		"/>
		<polygon class="st44" points="1676.1,75.2 1667.7,79.3 1662.9,73.3 		"/>
		<polygon class="st38" points="1571.2,82.9 1571.5,83.9 1571.5,83.9 1571.4,82.7 		"/>
		<polygon class="st58" points="1545.8,59.3 1550.9,57.8 1541.7,56.5 		"/>
		<polygon class="st38" points="1564.7,59.7 1564.8,60.3 1564.9,59.8 		"/>
		<polygon class="st59" points="1605.2,62.2 1607.2,59.3 1607.1,59.3 1603.8,61.5 1599.2,64.5 1576.4,79.5 1571.4,82.7 1571.5,83.9 
			1583.1,83.9 1589.7,83.9 1603.1,65.1 		"/>
		<polygon class="st46" points="1778.1,39.3 1759.1,59.4 1751.4,67.5 1741.8,77.7 1747.1,66 1752.9,53.4 1762.4,32.3 		"/>
		<polygon class="st60" points="1754.4,36.3 1741.8,42.6 1725.1,26.3 		"/>
		<polygon class="st45" points="1762.4,32.3 1752.9,53.4 1747.1,66 1741.8,77.7 1740.6,79 1736.7,83.1 1736.4,83.5 1735.8,84.1 
			1734.2,84.1 1733.2,83.1 1713.5,63.4 1713.2,56.7 1716.6,55 1717.7,54.5 1718.6,54 1719,53.9 1719.1,53.8 1741.8,42.6 
			1754.4,36.3 1754.4,36.3 		"/>
		<polygon class="st61" points="1741.8,42.6 1719.1,53.8 1719,53.9 1718.6,54 1717.7,54.5 1716.6,55 1713,53.7 1712.8,49.8 
			1713.9,47.8 1714.3,47 1725.1,26.3 		"/>
		<polygon class="st62" points="1725.1,26.3 1714.3,47 1713.9,47.8 1712.8,49.8 1712.8,49 1712.7,46.3 1712.7,46.3 1712.6,44.3 
			1712.1,35.3 		"/>
		<polygon class="st63" points="1807.7,41 1792.7,49.3 1804.9,57 		"/>
		<polygon class="st38" points="1822.7,50.3 1822.7,50.3 1822.7,50.3 		"/>
		<polygon class="st64" points="1804.9,57 1804.9,57 1805.7,57.6 1814.6,53.8 1822.7,50.3 1807.7,41 1804.9,57 		"/>
		<polygon class="st65" points="1804.7,58 1804.8,57.4 1804.9,57 1792.7,49.3 1778.1,39.3 1796,61.7 		"/>
		<polygon class="st38" points="1804.9,57 1804.8,57.4 1804.9,57 		"/>
		<polygon class="st38" points="1804.9,57 1804.8,57.4 1804.9,57 		"/>
		<polygon class="st38" points="1804.9,57 1792.7,49.3 1804.9,57 		"/>
		<polygon class="st38" points="1804.9,57 1792.7,49.3 1804.9,57 		"/>
		<polygon class="st38" points="1804.9,57 1804.9,57 1804.9,57 1804.9,57 		"/>
		<polygon class="st38" points="1804.9,57 1804.9,57 1804.9,57 1804.9,57 		"/>
		<polygon class="st66" points="1704.1,30.7 1649.1,37.4 1648.8,37 1689.1,22 		"/>
		<polygon class="st67" points="1635.8,25.7 1635.8,71.1 1635.6,71.2 1635.2,70.7 1634.1,69.3 1633.6,68.7 1629,62.6 1627.5,60.7 
			1616.5,46.3 1621.7,40.7 		"/>
		<polygon class="st68" points="1629,62.6 1610.5,56.6 1609.3,56.4 1616.5,46.3 1627.5,60.7 		"/>
		<polygon class="st69" points="1822.7,50.3 1814.6,53.8 1805.7,57.6 1812.7,62 1814,61.3 1816.5,63 1822.7,50.3 		"/>
		<polygon class="st38" points="1822.7,50.3 1822.7,50.3 1822.7,50.3 1814.6,53.8 		"/>
		<polygon class="st38" points="1822.7,50.3 1822.7,50.3 1822.7,50.3 1814.6,53.8 		"/>
		<polygon class="st70" points="1712.7,46.3 1706.1,38.6 1678.4,38.6 1704.1,30.7 1704.1,30.7 1712.6,44.3 		"/>
		<polygon class="st71" points="1712.6,44.3 1704.1,30.7 1712.1,35.3 		"/>
		<polygon class="st72" points="1704.1,30.7 1678.4,38.6 1661.6,51.5 1649.1,37.4 1704.1,30.7 		"/>
		<polygon class="st73" points="1538.3,54.3 1536.5,55.8 1533.4,58.6 1537.3,61.7 1545.8,59.3 1541.7,56.5 		"/>
		<polygon class="st74" points="1635.8,71.6 1635.8,71.5 1635.4,71.4 1629,68.6 1607.2,59.3 1605.2,62.2 1603.1,65.1 1589.7,83.9 
			1618.8,84 1635.8,84 1645.4,84 1643.6,81.8 		"/>
		<polygon class="st75" points="1528.8,55 1529.1,62.2 1529.1,64.1 1537.3,61.7 1533.4,58.6 		"/>
		<polygon class="st76" points="1867.8,84.2 1847.7,84.2 1846.6,84.2 1833.4,84.2 1838,78.2 1838.1,78.1 1861.4,48.3 		"/>
		<polygon class="st77" points="1822.7,50.3 1822.7,50.3 1816.5,63 1822.1,67 1822.7,50.3 1822.7,50.3 1822.7,50.3 		"/>
		<polygon class="st38" points="1822.7,50.3 1822.7,50.3 1822.7,50.3 		"/>
		<polygon class="st38" points="1822.7,50.3 1822.7,50.3 1822.7,50.3 		"/>
		<polygon class="st78" points="1842.4,62.6 1829.9,72.4 1822.1,67 1822.7,50.3 		"/>
		<polygon class="st79" points="1861.4,48.3 1838.1,78.1 1838,78.2 1833.4,84.2 1821.4,84.2 1814.9,84.2 1821.6,78.9 1829.6,72.7 
			1829.9,72.4 1842.4,62.6 		"/>
		<polygon class="st49" points="1402.5,82.9 1402.5,82.9 1400.8,83.4 1400.8,83.4 1400.7,83.4 1399.7,83.7 1400.6,83.8 1403.4,83.8 
			1445.5,83.8 1432,73.4 		"/>
		<polygon class="st38" points="1402.5,82.9 1402.5,82.9 1402.5,82.9 1402.5,82.9 		"/>
		<polygon class="st38" points="1402.5,82.9 1402.5,82.9 1402.5,82.9 1402.5,82.9 		"/>
		<polygon class="st38" points="1402.5,82.9 1402.5,82.9 1402.5,82.9 1402.5,82.9 		"/>
		<polygon class="st80" points="1345.3,66.7 1328.6,61.6 1331.9,69.2 1338.2,83.7 1348,83.7 1372.9,75 		"/>
		<polygon class="st53" points="1377.6,73.4 1372.9,75 1348,83.7 1367.4,83.7 1375.3,75.7 		"/>
		<polygon class="st53" points="1400.7,83.4 1401.1,81.7 1391.8,73 1388.2,69.7 1384.6,66.3 1377.8,73.1 1377.9,73.3 1377.6,73.4 
			1375.3,75.7 1367.4,83.7 1382.5,83.7 1386.5,83.7 1399.7,83.7 1400.7,83.4 		"/>
		<polygon class="st81" points="1861.4,48.3 1867.8,84.2 1873.7,84.2 1887.3,73.7 		"/>
		<polygon class="st82" points="1911,55.3 1907.7,57.9 1887.3,73.7 1898.2,84.3 1901.4,84.3 1909.6,59.6 		"/>
		<polygon class="st38" points="1563.8,83.7 1563.8,83.9 1565,83.9 1563.8,83.9 1565,83.9 1565.1,83.9 1564.4,83.3 		"/>
		<polygon class="st81" points="1873.7,84.2 1898.2,84.3 1887.3,73.7 		"/>
		<polygon class="st83" points="1570.2,79.2 1568.8,74.5 1564.8,60.3 1564.7,59.7 1563.2,54.3 1560.7,59.2 1556.9,66.6 1553,74.2 
			1548,83.9 1563.6,83.9 1563.8,83.7 1564.4,83.3 1565.1,83.9 1569.6,83.9 1571.5,83.9 1571.2,82.9 		"/>
		<polygon class="st38" points="1563.6,83.9 1563.8,83.9 1563.8,83.7 		"/>
		<polygon class="st75" points="1528.8,55 1517.7,67.4 1525.8,65.1 1529.1,64.1 1529.1,62.2 		"/>
		<polygon class="st56" points="1445,46.2 1447.5,49 1447.5,49 1473.4,49.4 1464.5,36.3 1443.6,44.7 1443.6,44.7 1443.6,44.7 		"/>
		<polygon class="st84" points="1474,50.2 1479.4,58.2 1491.8,54.2 1491.9,49.6 1473.4,49.4 		"/>
		<polygon class="st85" points="1316.5,72.2 1316.5,72.2 1316.5,72.2 1316,72.6 1313.9,74.5 1313.9,74.5 1313.9,74.5 1313.8,74.4 
			1313.8,74.4 1311.6,75.9 1307.1,79 1304.6,80.7 1300.2,83.6 1338.2,83.7 1331.9,69.2 		"/>
		<polygon class="st86" points="1501.7,51 1501.7,51 1523.2,44.1 1529.2,23.7 1551.5,35 1566.2,30.3 1557.8,32 1542.8,14 
			1491.9,49.6 1501.7,51 		"/>
		<polygon class="st87" points="1501.7,51 1491.9,49.6 1491.8,54.2 		"/>
		<polygon class="st38" points="1501.7,51 1491.9,49.6 1501.7,51 		"/>
		<polygon class="st38" points="1501.7,51 1491.9,49.6 1501.7,51 		"/>
		<polygon class="st88" points="1569.2,60.3 1592.2,63.5 1598.7,58.9 1616.5,46.3 1584.7,51.9 1574.5,53.6 1571.4,45.1 1566.2,30.3 
			1567.4,43.1 		"/>
		<polygon class="st89" points="1491.9,49.6 1464.5,36.3 1473.4,49.4 		"/>
		<polygon class="st90" points="1310.1,73.4 1280,65.3 1280.2,79 1281.2,79 		"/>
		<polygon class="st38" points="1280.2,79 1280.2,79.2 1281.2,79 		"/>
		<polygon class="st56" points="1427.2,56.1 1447.5,49 1445,46.2 1443.6,44.7 1428.6,50.6 1422.5,51.8 		"/>
		<polygon class="st90" points="1307.1,79 1311.6,75.9 1313.8,74.4 1313.8,74.4 1313.8,74.4 1310.1,73.4 1281.2,79 		"/>
		<polygon class="st91" points="1328.6,61.6 1345.3,66.7 1368.9,62.1 1366.6,59.3 1337.9,53.3 1316.5,72.2 1331.9,69.2 		"/>
		<polygon class="st92" points="1422.5,51.8 1428.6,50.6 1399.9,31.6 1422.5,51.8 		"/>
		<polygon class="st38" points="1422.5,51.8 1422.5,51.8 1422.5,51.8 1422.5,51.8 		"/>
		<polygon class="st38" points="1422.5,51.8 1422.5,51.8 1422.5,51.8 1422.5,51.8 		"/>
		<polygon class="st38" points="1422.5,51.8 1422.5,51.8 1422.5,51.8 1422.5,51.8 		"/>
		<polygon class="st93" points="1396.7,56.8 1407.5,54.7 1407.6,54.6 1407.6,54.7 1409.5,54.3 1420.8,52.1 1422.5,51.8 1399.9,31.6 
			1366.6,59.3 1368.9,62.1 		"/>
		<polygon class="st38" points="1422.5,51.8 1422.5,51.8 1420.8,52.1 		"/>
		<polygon class="st38" points="1422.5,51.8 1422.5,51.8 1420.8,52.1 		"/>
		<polygon class="st38" points="1422.5,51.8 1422.5,51.8 1420.8,52.1 		"/>
		<polygon class="st94" points="1304.6,80.7 1307.1,79 1281.2,79 1280.2,79.2 1280.3,83.6 1300.2,83.6 1300.2,83.6 1300.2,83.6 		
			"/>
		<polygon class="st65" points="1805.4,57.7 1804.7,58 1804.7,58 1804.7,58 1803.1,67.1 1812.7,62 1805.7,57.6 		"/>
		<polygon class="st38" points="1804.7,58 1805.4,57.7 1804.7,58 		"/>
		<polygon class="st38" points="1804.7,58 1805.4,57.7 1804.7,58 		"/>
		<polygon class="st65" points="1796,61.7 1801.1,68.2 1803.1,67.1 1804.7,58 		"/>
		<polygon class="st95" points="1801.1,68.2 1781.8,78.4 1776.8,76.6 1772,72 1796,61.7 		"/>
		<polygon class="st96" points="1710.8,60.6 1710.7,73.4 1710.6,79.9 1710.6,80.7 1710.6,84.1 1695,84.1 1690.2,84.1 1687.2,84 
			1688.8,82.4 1693.7,77.6 1694.4,76.8 1703.4,67.9 1706.8,64.6 		"/>
		<polygon class="st44" points="1671.6,84 1665,84 1658.2,84 1648.1,84 1648.1,84 1651.8,78.4 1655.9,72.4 1662.9,73.3 1667.7,79.3 
					"/>
		<polygon class="st47" points="1655.9,72.4 1651.8,78.4 1648.1,84 1648,84 1645.4,84 1643.6,81.8 1635.8,71.6 1635.8,71.5 
			1635.8,71.1 1637.4,69.8 		"/>
		<polygon class="st38" points="1648,84 1648.1,84 1648.1,84 		"/>
		<polygon class="st97" points="1829.9,72.4 1829.6,72.7 1821.6,78.9 1814.9,84.2 1813.9,84.2 1808.7,84.2 1809.9,79.2 1811,74.3 
			1813.7,62.6 1814,61.3 1816.5,63 1822.1,67 		"/>
		<polygon class="st98" points="1734.2,84.1 1724.6,84.1 1715.5,84.1 1714.6,84.1 1710.6,84.1 1710.6,80.7 1710.6,79.9 1710.7,73.4 
			1710.8,60.6 1713.5,63.4 1733.2,83.1 		"/>
		<polygon class="st99" points="1706,62.9 1703.4,67.9 1694.4,76.8 1693.7,77.6 1688.8,82.4 1687.2,84 1685.8,84 1678.2,84 
			1683.1,76.1 1683.1,76 1684.1,74.4 1684.2,74.4 1684.2,74.2 1687,69.8 1705.1,60.8 		"/>
		<polygon class="st100" points="1797.8,84.2 1784.5,84.2 1779.8,79.5 1776.8,76.6 1781.8,78.4 		"/>
		<polygon class="st100" points="1784.5,84.2 1771,84.1 1745,84.1 1743.7,84.1 1740.7,84.1 1740.5,84.1 1743.6,82.4 1763.6,71.9 
			1769,69.1 1772,72 1776.8,76.6 1779.8,79.5 		"/>
		<polygon class="st101" points="1814,61.3 1813.7,62.6 1811,74.3 1809.9,79.2 1808.7,84.2 1806.2,84.2 1800.1,84.2 1797.8,84.2 
			1781.8,78.4 1801.1,68.2 1803.1,67.1 1812.7,62 		"/>
		<polygon class="st102" points="1616.5,46.3 1609.3,56.4 1607.2,59.3 1607.1,59.3 1603.8,61.5 1599.2,64.5 1576.4,79.5 
			1571.4,82.7 1571,78.6 1573,77.2 1592.2,63.5 1598.7,58.9 		"/>
		<polygon class="st103" points="1538.3,54.3 1523.2,44.3 1523.2,44.1 1501.7,51 1536.5,55.8 		"/>
		<polygon class="st104" points="1523.2,44.1 1523.2,44.3 1538.3,54.3 1557.3,37.9 1566.2,30.3 1551.5,35 		"/>
		<polygon class="st58" points="1570.7,75.8 1569.2,60.3 1564.9,59.8 1564.8,60.3 1568.8,74.5 1570.2,79.2 1571.2,82.9 1571.4,82.7 
			1571,78.6 		"/>
		<polygon class="st58" points="1538.3,54.3 1541.7,56.5 1550.9,57.8 1563.2,54.3 1564.7,59.7 1564.9,59.8 1565.6,42.2 1566.2,30.3 
			1557.3,37.9 		"/>
		<polygon class="st88" points="1571,78.6 1573,77.2 1592.2,63.5 1569.2,60.3 1570.7,75.8 		"/>
		<polygon class="st105" points="1564.9,59.8 1569.2,60.3 1567.4,43.1 1566.2,30.3 1565.6,42.2 		"/>
		<polygon class="st84" points="1479.4,58.2 1474,50.2 1473.4,49.4 1447.5,49 1447.5,49 1461.4,64 1479.4,58.2 1479.4,58.2 		"/>
		<polygon class="st84" points="1491.7,76.3 1479.4,58.2 1461.4,64 1479.7,83.8 1489.5,83.8 1491.7,83.8 1496.9,83.9 1493.7,79.2 		
			"/>
		<polygon class="st106" points="1440.1,70.8 1415.2,60.5 1432,73.4 1445.5,83.8 1458.3,83.8 1471.6,83.8 1446.9,73.6 		"/>
		<polygon class="st53" points="1447.5,49 1427.2,56.1 1427.2,56.1 1415,60.3 1415.2,60.5 1440.1,70.8 1446.9,73.6 1471.6,83.8 
			1479.7,83.8 1461.4,64 		"/>
		<polygon class="st84" points="1479.4,58.2 1491.7,76.3 1491.8,54.2 		"/>
		<polygon class="st107" points="1493.7,79.2 1496.9,83.9 1503,83.9 1504,83.9 1509.5,83.9 1499.5,72.6 		"/>
		<polygon class="st83" points="1556.9,66.6 1560.7,59.2 1563.2,54.3 1550.9,57.8 1545.8,59.3 1537.3,61.7 1529.1,64.1 1525.8,65.1 
			1517.7,67.4 1499.5,72.6 1509.5,83.9 1529.8,83.9 1548,83.9 1553,74.2 		"/>
		<polygon class="st87" points="1533.4,58.6 1536.5,55.8 1501.7,51 1491.8,54.2 1491.7,76.3 1493.7,79.2 1499.5,72.6 1517.7,67.4 
			1528.8,55 		"/>
		<polygon class="st108" points="1706.1,38.6 1687,69.8 1683.8,71.3 1678.4,38.6 		"/>
		<polygon class="st109" points="1664.6,54.9 1666.3,56.8 1678.4,38.6 1661.6,51.5 		"/>
		<polygon class="st38" points="1661.6,51.5 1678.4,38.6 1661.6,51.5 		"/>
		<polygon class="st38" points="1661.6,51.5 1678.4,38.6 1661.6,51.5 		"/>
		<polygon class="st110" points="1683.8,71.3 1680.5,73 1666.3,56.8 1678.4,38.6 		"/>
		<polygon class="st38" points="1666.3,56.8 1678.4,38.6 1666.3,56.8 		"/>
		<polygon class="st38" points="1666.3,56.8 1678.4,38.6 1666.3,56.8 		"/>
		<polygon class="st111" points="1711.2,53.1 1699.8,49 1705.1,60.8 1687,69.8 1706.1,38.6 1712.7,46.3 1712.7,46.3 1712.8,49 
			1712.8,49.8 1713,53.7 		"/>
		<polygon class="st38" points="1711.2,53.1 1711.2,53.1 1711.2,53.1 1711.2,53.1 		"/>
		<polygon class="st38" points="1711.2,53.1 1711.2,53.1 1711.2,53.1 1711.2,53.1 		"/>
		<polygon class="st38" points="1718.6,54 1718.6,54 1718.6,54 1718.6,54 		"/>
		<polygon class="st38" points="1718.6,54 1718.6,54 1718.6,54 1718.6,54 		"/>
		<polygon class="st47" points="1666.3,56.8 1663.8,60.4 1658.6,68.2 1644.1,64.7 1661.6,51.5 1664.6,54.9 		"/>
		<polygon class="st38" points="1661.6,51.5 1661.6,51.5 1664.6,54.9 		"/>
		<polygon class="st38" points="1661.6,51.5 1661.6,51.5 1664.6,54.9 		"/>
		<polygon class="st38" points="1666.3,56.8 1666.3,56.8 1666.3,56.8 1666.3,56.8 		"/>
		<polygon class="st38" points="1666.3,56.8 1666.3,56.8 1666.3,56.8 1666.3,56.8 		"/>
		<polygon class="st112" points="1635.6,71.2 1635.4,71.4 1629,68.6 1607.2,59.3 1609.3,56.4 1610.5,56.6 1629,62.6 1633.6,68.7 
			1634.1,69.3 1635.2,70.7 		"/>
		<polygon class="st38" points="1634.1,69.3 1634.1,69.3 1634.1,69.3 		"/>
		<polygon class="st38" points="1634.1,69.3 1634.1,69.3 1634.1,69.3 		"/>
		<polygon class="st38" points="1634.1,69.3 1634.1,69.3 1634.1,69.3 1634.1,69.3 		"/>
		<polygon class="st38" points="1634.1,69.3 1634.1,69.3 1634.1,69.3 1634.1,69.3 		"/>
		<polygon class="st113" points="1661.6,51.5 1644.1,64.7 1641.5,66.7 1637.4,69.8 1635.8,71.1 1635.8,25.7 1648.8,37 1649.1,37.4 
					"/>
		<polygon class="st38" points="1661.6,51.5 1661.6,51.5 1661.6,51.5 1661.6,51.5 		"/>
	</g>
	<g>
		<polygon class="st114" points="1445,51.6 1413.2,60.9 1406.4,58 1420.6,51.1 1426.6,55.8 		"/>
		<polygon class="st38" points="1385.8,68 1385.7,68 1385.7,68 		"/>
		<line class="st38" x1="1391.8" y1="83.2" x2="1400" y2="83.2"/>
		<polygon class="st115" points="1385.7,68 1384,69.5 1374.4,77.8 1329.1,63.6 1379.9,70.8 1380.5,70.5 		"/>
		<polygon class="st114" points="1406.4,58 1400.9,64.5 1392.2,74.8 1386.5,68.8 1385.8,68 		"/>
		<polygon class="st116" points="1477.2,83.1 1464.6,83.1 1413.2,60.9 1445,51.6 1446.9,51.1 		"/>
		<polygon class="st117" points="1306.1,79.3 1280.5,77.6 1280.5,83.3 1337.8,83.2 1329.1,63.6 		"/>
		<polygon class="st118" points="1448.5,83.1 1400,83.2 1392.2,74.8 1400.9,64.5 1406.4,58 1406.4,58 1406.4,58 1411.9,61.3 		"/>
		<polygon class="st119" points="1374.4,77.8 1368.1,83.2 1337.8,83.2 1329.1,63.6 		"/>
		<polygon class="st120" points="1464.6,83.1 1448.5,83.1 1411.9,61.3 1406.4,58 1413.2,60.9 		"/>
		<polygon class="st121" points="1400,83.2 1391.8,83.2 1385.1,83.2 1368.1,83.2 1374.4,77.8 1384,69.5 1385.7,68 1385.8,68 
			1386.5,68.8 1392.2,74.8 		"/>
		<polygon class="st38" points="1659.3,70 1651.3,80.3 1651.3,80.3 		"/>
		<polygon class="st122" points="1573,83.3 1606.9,83.3 1606.6,61 		"/>
		<polygon class="st123" points="1606.6,61 1606.9,83.3 1648.9,83.3 1651.3,80.3 		"/>
		<polygon class="st124" points="1651.3,80.3 1651.3,80.3 1648.9,83.3 1667.9,83.3 1659.3,70 		"/>
		<polygon class="st125" points="1549.7,83.3 1573,83.3 1563.7,55.3 		"/>
		<polygon class="st126" points="1499.4,74 1509.5,83.3 1549.7,83.3 1563.7,55.3 		"/>
		<polygon class="st127" points="1491.7,83.3 1509.5,83.3 1499.4,74 		"/>
		<polygon class="st128" points="1710.3,62.3 1698.6,74.3 1694.6,69.3 1705.6,83.3 1729.9,83.3 		"/>
		<polygon class="st129" points="1681.6,83.3 1705.6,83.3 1694.6,69.3 		"/>
	</g>
</g>
</svg>
