<?xml version="1.0" encoding="utf-8"?>
<!-- Generator: Adobe Illustrator 22.1.0, SVG Export Plug-In . SVG Version: 6.00 Build 0)  -->
<svg version="1.1" id="Layer_2" xmlns="http://www.w3.org/2000/svg" xmlns:xlink="http://www.w3.org/1999/xlink" x="0px" y="0px"
	 viewBox="0 0 951 950" style="enable-background:new 0 0 951 950;" xml:space="preserve">
<style type="text/css">
	.st0{fill:url(#SVGID_1_);}
	.st1{fill:url(#SVGID_2_);}
	.st2{fill:url(#SVGID_3_);}
	.st3{fill:url(#SVGID_4_);}
	.st4{fill:url(#SVGID_5_);}
	.st5{fill:none;}
</style>
<g>
	<linearGradient id="SVGID_1_" gradientUnits="userSpaceOnUse" x1="490.1381" y1="35.3753" x2="461.6629" y2="906.715">
		<stop  offset="0" style="stop-color:#FFF800"/>
		<stop  offset="1" style="stop-color:#F7931E"/>
	</linearGradient>
	<polygon class="st0" points="914.5,399.5 914.5,536.5 37.5,536.5 37.5,399.5 56.5,399.5 56.5,341.5 75.5,341.5 75.5,282.5 
		95.5,282.5 95.5,243.5 114.5,243.5 114.5,224.5 134.5,224.5 134.5,185.5 153.5,185.5 153.5,165.5 173.5,165.5 173.5,146.5 
		192.5,146.5 192.5,126.5 231.5,126.5 231.5,107.5 251.5,107.5 251.5,87.5 290.5,87.5 290.5,68.5 329.5,68.5 329.5,48.5 407.5,48.5 
		407.5,29.5 544.5,29.5 544.5,48.5 622.5,48.5 622.5,68.5 661.5,68.5 661.5,87.5 700.5,87.5 700.5,107.5 719.5,107.5 719.5,126.5 
		758.8,126.7 758.5,146.5 778.5,146.5 778.5,165.5 797.5,165.5 797.5,185.5 817.3,185.5 817.3,224.5 836.5,224.5 836.5,243.5 
		856.5,243.5 856.5,282.5 875.5,282.5 875.5,341.5 895.5,341.5 895.5,399.5 	"/>
	<linearGradient id="SVGID_2_" gradientUnits="userSpaceOnUse" x1="488.411" y1="195.2226" x2="463.411" y2="960.2226">
		<stop  offset="0" style="stop-color:#FFF800"/>
		<stop  offset="1" style="stop-color:#F7931E"/>
	</linearGradient>
	<polygon class="st1" points="895.5,555.5 895.5,594.5 875.5,594.5 875.5,614.5 75.5,614.5 75.5,594.5 56.5,594.5 56.5,555.5 	"/>
	<linearGradient id="SVGID_3_" gradientUnits="userSpaceOnUse" x1="490.1477" y1="195.2793" x2="465.1477" y2="960.2794">
		<stop  offset="0" style="stop-color:#FFF800"/>
		<stop  offset="1" style="stop-color:#F7931E"/>
	</linearGradient>
	<polygon class="st2" points="875.5,633.5 875.5,653.5 856.5,653.5 856.5,692.5 95.5,692.5 95.5,653.5 75.5,653.5 75.5,633.5 	"/>
	<linearGradient id="SVGID_4_" gradientUnits="userSpaceOnUse" x1="493.8627" y1="195.4007" x2="468.8627" y2="960.4008">
		<stop  offset="0" style="stop-color:#FFF800"/>
		<stop  offset="1" style="stop-color:#F7931E"/>
	</linearGradient>
	<polygon class="st3" points="817.5,732.5 817.5,751.5 797.5,751.5 797.5,771.5 778.5,771.5 778.5,791.5 173.5,791.5 173.5,771.5 
		153.5,771.5 153.5,751.5 134.5,751.5 134.5,732.5 	"/>
	<linearGradient id="SVGID_5_" gradientUnits="userSpaceOnUse" x1="496.0303" y1="195.4716" x2="471.0303" y2="960.4716">
		<stop  offset="0" style="stop-color:#FFF800"/>
		<stop  offset="1" style="stop-color:#F7931E"/>
	</linearGradient>
	<polygon class="st4" points="699.5,829.5 699.5,848.5 660.5,848.5 660.5,868.5 601.5,868.5 601.5,887.5 543.5,887.5 543.5,907.5 
		406.5,907.5 406.5,887.5 348.5,887.5 348.5,868.5 289.5,868.5 289.5,848.5 250.5,848.5 250.5,829.5 	"/>
	<rect x="37.5" y="536.5" class="st5" width="877" height="19"/>
	<rect x="75.5" y="614.5" class="st5" width="800" height="19"/>
	<rect x="134.5" y="692.5" class="st5" width="683" height="40"/>
	<rect x="251" y="791.5" class="st5" width="448" height="38"/>
</g>
</svg>
