<?xml version="1.0" encoding="UTF-8"?> <svg xmlns="http://www.w3.org/2000/svg" id="Layer_1" data-name="Layer 1" viewBox="0 0 98.94 71.67"><title>digital-design-icon</title><path d="M26.91,21.8H18.23V12H27.9v8.81h9.34v8.44H63.45V20.51h8.67V12H82v9.69H74v7.66h8.08v8.46h7.86V20.64h9.5V56.25H91.7V65.4H82.48v8.37h8.29v9.84H81.33V75.15H72.24V65.52H28.17v9.32H18.92v8.83H8.87V74h8.81V65.58h-9V56.42H.47V20.64H9.89V37.82h8.7V29.61h8.32ZM25.85,47.91H37V39.15H25.85Zm48.09,0V39.29H64v8.65Z" transform="translate(-0.47 -12)" fill="#007ac7"></path></svg> 