<?xml version="1.0" encoding="UTF-8"?> <svg xmlns="http://www.w3.org/2000/svg" id="Layer_1" data-name="Layer 1" viewBox="0 0 96.64 76.79"><title>graphic-design-icon</title><path d="M29.54,20.34h10v9.48h19.9c.14-2.87.29-5.95.45-9.28h8.89v-9H79.23V22H70.57v8h7.82v8.63h8.44V20.76H97.12V48.7h-9V78.55H98v8.9H78.53V69.17H69.44v9H60.08v-9H40.13v9H30.74c-.13-2.87-.27-5.84-.41-9H21V87.53H1.36V78.64h9.55V48.88H2.15V20.66h9.7V39.22h8.51v-9h8.16V21.47H19.06V10.75H29.54Zm1.24,19.13v18h9.1v-18Zm28.91.07v18h8.53v-18Z" transform="translate(-1.36 -10.75)" fill="#eb1c23"></path></svg> 