<?xml version="1.0" encoding="UTF-8"?> <svg xmlns="http://www.w3.org/2000/svg" id="Layer_1" data-name="Layer 1" viewBox="0 0 92 92.36"><title>illustration-icon</title><g><path d="M28.69,50.48H39.37V39.28H28.69Z" transform="translate(-4 -4.1)" fill="none"></path><path d="M40.07,15.66V4.1H27V16.85H39.34V27H27.87V38.63H16.55V27.29H4V96.46H28.37V84.72H16.76V62.12h10.9V73.05h11.9V85.4H50V15.66Zm-.7,34.82H28.69V39.28H39.37Z" transform="translate(-4 -4.1)" fill="#9500ff"></path></g><path d="M50,15.66V85.4H60.44V73.05h11.9V62.12h10.9v22.6H71.63V96.46H96V27.29H83.45V38.63H72.13V27H60.66V16.85H73V4.1H59.93V15.66ZM60.63,39.28H71.31v11.2H60.63Z" transform="translate(-4 -4.1)" fill="#9500ff"></path></svg> 