<?xml version="1.0" encoding="UTF-8"?> <!-- Generator: Adobe Illustrator 22.1.0, SVG Export Plug-In . SVG Version: 6.00 Build 0) --> <svg xmlns="http://www.w3.org/2000/svg" xmlns:xlink="http://www.w3.org/1999/xlink" x="0px" y="0px" viewBox="0 0 461.6 85" style="enable-background:new 0 0 461.6 85;" xml:space="preserve"> <style type="text/css"> .st0{fill:#0050FF;} .st1{fill:#3CD700;} .st2{fill:#FFFFFF;} .st3{fill:#FF0000;} </style> <g id="Layer_2"> </g> <g id="Layer_1"> <rect x="399.1" y="78.5" class="st0" width="6.5" height="6.5"></rect> <rect x="248.6" y="78.5" class="st1" width="6.5" height="6.5"></rect> <g> <polygon class="st2" points="386,19.6 386,13.1 386,6.5 386,0 379.4,0 379.4,6.5 379.4,13.1 379.4,19.6 379.4,26.1 379.4,32.7 379.4,39.2 379.4,45.8 379.4,52.3 379.4,58.9 379.4,65.4 379.4,71.9 379.4,78.5 379.4,85 386,85 386,78.5 386,71.9 386,65.4 386,58.9 386,52.3 386,45.8 386,39.2 386,32.7 386,26.1 392.5,26.1 392.5,19.6 "></polygon> <polygon class="st2" points="399.1,0 399.1,6.5 399.1,13.1 399.1,19.6 399.1,26.1 392.5,26.1 392.5,32.7 399.1,32.7 399.1,39.2 399.1,45.8 399.1,52.3 399.1,58.9 399.1,65.4 399.1,71.9 399.1,78.5 405.6,78.5 405.6,71.9 405.6,65.4 405.6,58.9 405.6,52.3 405.6,45.8 405.6,39.2 405.6,32.7 405.6,26.1 405.6,19.6 405.6,13.1 405.6,6.5 405.6,0 "></polygon> </g> <polygon class="st2" points="359.8,13.1 359.8,6.5 366.3,6.5 372.9,6.5 372.9,0 366.3,0 359.8,0 353.3,0 353.3,6.5 353.3,13.1 353.3,19.6 353.3,26.1 353.3,32.7 353.3,39.2 353.3,45.8 353.3,52.3 353.3,58.9 353.3,65.4 353.3,71.9 353.3,78.5 353.3,85 359.8,85 366.3,85 372.9,85 372.9,78.5 366.3,78.5 359.8,78.5 359.8,71.9 359.8,65.4 359.8,58.9 359.8,52.3 359.8,45.8 359.8,39.2 359.8,32.7 366.3,32.7 372.9,26.1 366.3,26.1 359.8,26.1 359.8,19.6 "></polygon> <polygon class="st2" points="333.6,13.1 333.6,6.5 340.2,6.5 346.7,6.5 346.7,0 340.2,0 333.6,0 327.1,0 327.1,6.5 327.1,13.1 327.1,19.6 327.1,26.1 327.1,32.7 327.1,39.2 327.1,45.8 327.1,52.3 327.1,58.9 327.1,65.4 327.1,71.9 327.1,78.5 327.1,85 333.6,85 340.2,85 346.7,85 346.7,78.5 340.2,78.5 333.6,78.5 333.6,71.9 333.6,65.4 333.6,58.9 333.6,52.3 333.6,45.8 333.6,39.2 333.6,32.7 340.2,32.7 346.7,26.1 340.2,26.1 333.6,26.1 333.6,19.6 "></polygon> <g> <polygon class="st2" points="314,45.8 314,52.3 314,58.9 314,65.4 314,71.9 314,78.5 314,85 320.5,85 320.5,78.5 320.5,71.9 320.5,65.4 320.5,58.9 320.5,52.3 320.5,45.8 320.5,39.2 320.5,32.7 314,32.7 314,39.2 "></polygon> <polygon class="st2" points="314,0 307.5,0 300.9,0 294.4,0 294.4,6.5 294.4,13.1 294.4,19.6 294.4,26.1 294.4,32.7 294.4,39.2 294.4,45.8 294.4,52.3 294.4,58.9 294.4,65.4 294.4,71.9 294.4,78.5 294.4,85 300.9,85 300.9,78.5 300.9,71.9 300.9,65.4 300.9,58.9 300.9,52.3 300.9,45.8 300.9,39.2 300.9,32.7 307.5,32.7 314,32.7 314,26.1 307.5,26.1 300.9,26.1 300.9,19.6 300.9,13.1 300.9,6.5 307.5,6.5 314,6.5 314,13.1 314,19.6 314,26.1 320.5,19.6 320.5,13.1 320.5,6.5 320.5,0 "></polygon> </g> <polygon class="st2" points="281.3,0 274.8,0 268.2,0 261.7,6.5 261.7,13.1 261.7,19.6 261.7,26.1 261.7,32.7 261.7,39.2 261.7,45.8 261.7,52.3 261.7,58.9 261.7,65.4 261.7,71.9 261.7,78.5 261.7,85 268.2,85 274.8,85 281.3,85 287.8,78.5 287.8,71.9 287.8,65.4 287.8,58.9 287.8,52.3 287.8,45.8 287.8,39.2 281.3,45.8 281.3,52.3 281.3,58.9 281.3,65.4 281.3,71.9 281.3,78.5 274.8,78.5 268.2,78.5 268.2,71.9 268.2,65.4 268.2,58.9 268.2,52.3 268.2,45.8 268.2,39.2 268.2,32.7 268.2,26.1 268.2,19.6 268.2,13.1 268.2,6.5 274.8,6.5 281.3,6.5 281.3,13.1 281.3,19.6 287.8,13.1 287.8,6.5 287.8,0 "></polygon> <g> <polygon class="st2" points="235.5,78.5 235.5,71.9 235.5,65.4 235.5,58.9 235.5,52.3 235.5,45.8 235.5,39.2 229,45.8 229,52.3 229,58.9 229,65.4 229,71.9 229,78.5 229,85 235.5,85 242,85 248.6,85 248.6,78.5 242,78.5 "></polygon> <polygon class="st2" points="248.6,0 242,0 235.5,0 229,0 229,6.5 229,13.1 229,19.6 229,26.1 229,32.7 235.5,32.7 242,32.7 248.6,32.7 248.6,39.2 248.6,45.8 248.6,52.3 248.6,58.9 248.6,65.4 248.6,71.9 248.6,78.5 255.1,78.5 255.1,71.9 255.1,65.4 255.1,58.9 255.1,52.3 255.1,45.8 255.1,39.2 255.1,32.7 255.1,26.1 248.6,26.1 242,26.1 235.5,26.1 235.5,19.6 235.5,13.1 235.5,6.5 242,6.5 248.6,6.5 248.6,13.1 248.6,19.6 255.1,13.1 255.1,6.5 255.1,0 "></polygon> </g> <rect x="111.2" y="78.5" class="st3" width="6.5" height="6.5"></rect> <polygon class="st2" points="215.9,78.5 209.3,78.5 202.8,78.5 202.8,71.9 202.8,65.4 202.8,58.9 202.8,52.3 202.8,45.8 202.8,39.2 202.8,32.7 202.8,26.1 202.8,19.6 202.8,13.1 202.8,6.5 202.8,0 196.2,0 196.2,6.5 196.2,13.1 196.2,19.6 196.2,26.1 196.2,32.7 196.2,39.2 196.2,45.8 196.2,52.3 196.2,58.9 196.2,65.4 196.2,71.9 196.2,78.5 196.2,85 202.8,85 209.3,85 215.9,85 222.4,78.5 "></polygon> <polygon class="st2" points="183.2,78.5 176.6,78.5 176.6,71.9 176.6,65.4 176.6,58.9 176.6,52.3 176.6,45.8 176.6,39.2 176.6,32.7 176.6,26.1 176.6,19.6 176.6,13.1 176.6,6.5 176.6,0 170.1,0 170.1,6.5 170.1,13.1 170.1,19.6 170.1,26.1 170.1,32.7 170.1,39.2 170.1,45.8 170.1,52.3 170.1,58.9 170.1,65.4 170.1,71.9 170.1,78.5 170.1,85 176.6,85 183.2,85 189.7,85 189.7,78.5 "></polygon> <polygon class="st2" points="157,0 157,6.5 157,13.1 157,19.6 157,26.1 157,32.7 157,39.2 157,45.8 157,52.3 157,58.9 157,65.4 157,71.9 157,78.5 150.4,78.5 143.9,78.5 143.9,71.9 143.9,65.4 143.9,58.9 143.9,52.3 143.9,45.8 143.9,39.2 143.9,32.7 143.9,26.1 143.9,19.6 143.9,13.1 143.9,6.5 143.9,0 137.4,0 137.4,6.5 137.4,13.1 137.4,19.6 137.4,26.1 137.4,32.7 137.4,39.2 137.4,45.8 137.4,52.3 137.4,58.9 137.4,65.4 137.4,71.9 137.4,78.5 137.4,85 143.9,85 150.4,85 157,85 163.5,78.5 163.5,71.9 163.5,65.4 163.5,58.9 163.5,52.3 163.5,45.8 163.5,39.2 163.5,32.7 163.5,26.1 163.5,19.6 163.5,13.1 163.5,6.5 163.5,0 "></polygon> <polygon class="st2" points="117.7,26.1 117.7,19.6 117.7,13.1 117.7,6.5 124.3,6.5 130.8,0 124.3,0 117.7,0 111.2,0 111.2,6.5 111.2,13.1 111.2,19.6 111.2,26.1 111.2,32.7 111.2,39.2 111.2,45.8 111.2,52.3 111.2,58.9 111.2,65.4 111.2,71.9 111.2,78.5 117.7,78.5 117.7,71.9 117.7,65.4 117.7,58.9 117.7,52.3 117.7,45.8 117.7,39.2 117.7,32.7 124.3,32.7 130.8,26.1 124.3,26.1 "></polygon> <polygon class="st0" points="58.8,39.3 52.3,39.3 52.3,45.8 "></polygon> <polygon class="st1" points="45.8,39.3 39.2,39.3 39.2,45.8 "></polygon> <polygon class="st3" points="32.7,39.3 26.1,39.3 26.1,45.8 "></polygon> <polygon class="st2" points="78.5,45.8 78.5,52.4 78.5,58.9 78.5,65.4 78.5,72 78.5,78.5 71.9,78.5 65.4,78.5 58.8,78.5 52.3,78.5 45.8,78.5 45.8,85.1 52.3,85.1 58.8,85.1 65.4,85.1 71.9,85.1 78.5,85.1 85,85.1 85,78.5 85,72 85,65.4 85,58.9 85,52.4 85,45.8 "></polygon> <polygon class="st2" points="32.7,78.5 26.1,78.5 19.6,78.5 13,78.5 6.5,78.5 6.5,72 6.5,65.4 6.5,58.9 6.5,52.4 6.5,45.8 0,45.8 0,52.4 0,58.9 0,65.4 0,72 0,78.5 0,85.1 6.5,85.1 13,85.1 19.6,85.1 26.1,85.1 32.7,85.1 39.2,85.1 39.2,78.5 "></polygon> <polygon class="st2" points="78.5,0 71.9,0 65.4,0 58.8,0 52.3,0 45.8,0 45.8,6.6 52.3,6.6 58.8,6.6 65.4,6.6 71.9,6.6 78.5,6.6 78.5,13.1 78.5,19.6 78.5,26.2 78.5,32.7 78.5,39.3 85,39.3 85,32.7 85,26.2 85,19.6 85,13.1 85,6.6 85,0 "></polygon> <polygon class="st2" points="32.7,0 26.1,0 19.6,0 13,0 6.5,0 0,0 0,6.6 0,13.1 0,19.6 0,26.2 0,32.7 0,39.3 6.5,39.3 6.5,32.7 6.5,26.2 13,26.2 19.6,19.6 13,19.6 6.5,19.6 6.5,13.1 6.5,6.6 13,6.6 19.6,6.6 26.1,6.6 32.7,6.6 39.2,0 "></polygon> <g> <polygon class="st2" points="441.6,0 438.5,0 435.3,3.1 432.2,6.3 432.2,9.4 435.3,9.4 435.3,6.3 438.5,3.1 441.6,3.1 441.6,6.3 441.6,9.4 438.5,12.6 435.3,15.7 432.2,18.9 432.2,22 432.2,25.2 432.2,28.3 432.2,31.5 432.2,34.6 432.2,37.8 432.2,40.9 435.3,40.9 438.5,40.9 441.6,40.9 444.8,40.9 444.8,37.8 444.8,34.6 444.8,31.5 444.8,28.3 444.8,25.2 444.8,22 444.8,18.9 441.6,22 441.6,25.2 441.6,28.3 441.6,31.5 441.6,34.6 441.6,37.8 438.5,37.8 435.3,37.8 435.3,34.6 435.3,31.5 435.3,28.3 435.3,25.2 435.3,22 435.3,18.9 438.5,15.7 441.6,12.6 444.8,9.4 444.8,6.3 444.8,3.1 444.8,0 "></polygon> <path class="st2" d="M458.4,0h-3.2H452h-3.2v3.2v3.2v3.2v3.2V16v3.2v3.2v3.2v3.2v2.7v3.2v3.2v3.2h3.2h3.2h3.2h3.2v-3.2v-3.2v-3.2 v-3.2v-3.2v-3.2v-3.2v-3.2v-3.2V9.1V5.9V2.7v-3.2h-3.2V0z M458.4,12.6v3.2V19v3.2v3.2v3.2v2.9v3.2v3.2h-3.2H452v-3.2v-3.2v-3.2 v-3.2v-3.2v-3.2v-3.2l3.2-3.2l3.2-3.2V12.6z M458.4,6.3l-3.2,3.2l-3.2,3.2V9.5V6.3V3.1h3.2h3.2V6.3z"></path> <path class="st2" d="M458.3,44.1h-3.2h-3.2l-3.2,3.2v3.2v3.2v3.2v3.2h3.2h3.2h3.2v3.2v3.2v3.2v3.2v3.2v3.2v3.2h-3.2h-3.2v-3.2 v-3.2v-3.6v-3.2v-3.2v-3.2l-3.2,3.2v3.2v3.2v3.2v3.2v3.2v3.2h3.2h3.2h3.2h3.2v-3.2v-3.2v-3.2v-3.2v-3.2v-3.2v-3.2v-3.2v-3.2v-3.2 v-3.2v-3.2v-3.2h-3.2V44.1z M458.3,50.4v3.2v3.2h-3.2h-3.2v-3.2v-3.2v-3.2h3.2h3.2V50.4z"></path> <polygon class="st2" points="441.5,81.9 441.5,78.8 441.5,75.6 441.5,72.5 441.5,69.3 441.5,66.2 441.5,63 441.5,59.9 441.5,56.7 441.5,53.6 441.5,50.4 441.5,47.3 441.5,44.1 438.4,44.1 435.2,47.3 438.4,47.3 438.4,50.4 438.4,53.6 438.4,56.7 438.4,59.9 438.4,63 438.4,66.2 438.4,69.3 438.4,72.5 438.4,75.6 438.4,78.8 438.4,81.9 435.2,81.9 435.2,85.1 438.4,85.1 441.5,85.1 444.7,85.1 444.7,81.9 "></polygon> <rect x="432.2" y="56.7" class="st2" width="3.2" height="3.2"></rect> </g> <rect x="399.1" y="78.5" class="st0" width="6.5" height="6.5"></rect> <rect x="248.6" y="78.5" class="st1" width="6.5" height="6.5"></rect> <g> <polygon class="st2" points="386,19.6 386,13.1 386,6.5 386,0 379.4,0 379.4,6.5 379.4,13.1 379.4,19.6 379.4,26.1 379.4,32.7 379.4,39.2 379.4,45.8 379.4,52.3 379.4,58.9 379.4,65.4 379.4,71.9 379.4,78.5 379.4,85 386,85 386,78.5 386,71.9 386,65.4 386,58.9 386,52.3 386,45.8 386,39.2 386,32.7 386,26.1 392.5,26.1 392.5,19.6 "></polygon> <polygon class="st2" points="399.1,0 399.1,6.5 399.1,13.1 399.1,19.6 399.1,26.1 392.5,26.1 392.5,32.7 399.1,32.7 399.1,39.2 399.1,45.8 399.1,52.3 399.1,58.9 399.1,65.4 399.1,71.9 399.1,78.5 405.6,78.5 405.6,71.9 405.6,65.4 405.6,58.9 405.6,52.3 405.6,45.8 405.6,39.2 405.6,32.7 405.6,26.1 405.6,19.6 405.6,13.1 405.6,6.5 405.6,0 "></polygon> </g> <polygon class="st2" points="359.8,13.1 359.8,6.5 366.3,6.5 372.9,6.5 372.9,0 366.3,0 359.8,0 353.3,0 353.3,6.5 353.3,13.1 353.3,19.6 353.3,26.1 353.3,32.7 353.3,39.2 353.3,45.8 353.3,52.3 353.3,58.9 353.3,65.4 353.3,71.9 353.3,78.5 353.3,85 359.8,85 366.3,85 372.9,85 372.9,78.5 366.3,78.5 359.8,78.5 359.8,71.9 359.8,65.4 359.8,58.9 359.8,52.3 359.8,45.8 359.8,39.2 359.8,32.7 366.3,32.7 372.9,26.1 366.3,26.1 359.8,26.1 359.8,19.6 "></polygon> <polygon class="st2" points="333.6,13.1 333.6,6.5 340.2,6.5 346.7,6.5 346.7,0 340.2,0 333.6,0 327.1,0 327.1,6.5 327.1,13.1 327.1,19.6 327.1,26.1 327.1,32.7 327.1,39.2 327.1,45.8 327.1,52.3 327.1,58.9 327.1,65.4 327.1,71.9 327.1,78.5 327.1,85 333.6,85 340.2,85 346.7,85 346.7,78.5 340.2,78.5 333.6,78.5 333.6,71.9 333.6,65.4 333.6,58.9 333.6,52.3 333.6,45.8 333.6,39.2 333.6,32.7 340.2,32.7 346.7,26.1 340.2,26.1 333.6,26.1 333.6,19.6 "></polygon> <g> <polygon class="st2" points="314,45.8 314,52.3 314,58.9 314,65.4 314,71.9 314,78.5 314,85 320.5,85 320.5,78.5 320.5,71.9 320.5,65.4 320.5,58.9 320.5,52.3 320.5,45.8 320.5,39.2 320.5,32.7 314,32.7 314,39.2 "></polygon> <polygon class="st2" points="314,0 307.5,0 300.9,0 294.4,0 294.4,6.5 294.4,13.1 294.4,19.6 294.4,26.1 294.4,32.7 294.4,39.2 294.4,45.8 294.4,52.3 294.4,58.9 294.4,65.4 294.4,71.9 294.4,78.5 294.4,85 300.9,85 300.9,78.5 300.9,71.9 300.9,65.4 300.9,58.9 300.9,52.3 300.9,45.8 300.9,39.2 300.9,32.7 307.5,32.7 314,32.7 314,26.1 307.5,26.1 300.9,26.1 300.9,19.6 300.9,13.1 300.9,6.5 307.5,6.5 314,6.5 314,13.1 314,19.6 314,26.1 320.5,19.6 320.5,13.1 320.5,6.5 320.5,0 "></polygon> </g> <polygon class="st2" points="281.3,0 274.8,0 268.2,0 261.7,6.5 261.7,13.1 261.7,19.6 261.7,26.1 261.7,32.7 261.7,39.2 261.7,45.8 261.7,52.3 261.7,58.9 261.7,65.4 261.7,71.9 261.7,78.5 261.7,85 268.2,85 274.8,85 281.3,85 287.8,78.5 287.8,71.9 287.8,65.4 287.8,58.9 287.8,52.3 287.8,45.8 287.8,39.2 281.3,45.8 281.3,52.3 281.3,58.9 281.3,65.4 281.3,71.9 281.3,78.5 274.8,78.5 268.2,78.5 268.2,71.9 268.2,65.4 268.2,58.9 268.2,52.3 268.2,45.8 268.2,39.2 268.2,32.7 268.2,26.1 268.2,19.6 268.2,13.1 268.2,6.5 274.8,6.5 281.3,6.5 281.3,13.1 281.3,19.6 287.8,13.1 287.8,6.5 287.8,0 "></polygon> <g> <polygon class="st2" points="235.5,78.5 235.5,71.9 235.5,65.4 235.5,58.9 235.5,52.3 235.5,45.8 235.5,39.2 229,45.8 229,52.3 229,58.9 229,65.4 229,71.9 229,78.5 229,85 235.5,85 242,85 248.6,85 248.6,78.5 242,78.5 "></polygon> <polygon class="st2" points="248.6,0 242,0 235.5,0 229,0 229,6.5 229,13.1 229,19.6 229,26.1 229,32.7 235.5,32.7 242,32.7 248.6,32.7 248.6,39.2 248.6,45.8 248.6,52.3 248.6,58.9 248.6,65.4 248.6,71.9 248.6,78.5 255.1,78.5 255.1,71.9 255.1,65.4 255.1,58.9 255.1,52.3 255.1,45.8 255.1,39.2 255.1,32.7 255.1,26.1 248.6,26.1 242,26.1 235.5,26.1 235.5,19.6 235.5,13.1 235.5,6.5 242,6.5 248.6,6.5 248.6,13.1 248.6,19.6 255.1,13.1 255.1,6.5 255.1,0 "></polygon> </g> <rect x="111.2" y="78.5" class="st3" width="6.5" height="6.5"></rect> <polygon class="st2" points="215.9,78.5 209.3,78.5 202.8,78.5 202.8,71.9 202.8,65.4 202.8,58.9 202.8,52.3 202.8,45.8 202.8,39.2 202.8,32.7 202.8,26.1 202.8,19.6 202.8,13.1 202.8,6.5 202.8,0 196.2,0 196.2,6.5 196.2,13.1 196.2,19.6 196.2,26.1 196.2,32.7 196.2,39.2 196.2,45.8 196.2,52.3 196.2,58.9 196.2,65.4 196.2,71.9 196.2,78.5 196.2,85 202.8,85 209.3,85 215.9,85 222.4,78.5 "></polygon> <polygon class="st2" points="183.2,78.5 176.6,78.5 176.6,71.9 176.6,65.4 176.6,58.9 176.6,52.3 176.6,45.8 176.6,39.2 176.6,32.7 176.6,26.1 176.6,19.6 176.6,13.1 176.6,6.5 176.6,0 170.1,0 170.1,6.5 170.1,13.1 170.1,19.6 170.1,26.1 170.1,32.7 170.1,39.2 170.1,45.8 170.1,52.3 170.1,58.9 170.1,65.4 170.1,71.9 170.1,78.5 170.1,85 176.6,85 183.2,85 189.7,85 189.7,78.5 "></polygon> <polygon class="st2" points="157,0 157,6.5 157,13.1 157,19.6 157,26.1 157,32.7 157,39.2 157,45.8 157,52.3 157,58.9 157,65.4 157,71.9 157,78.5 150.4,78.5 143.9,78.5 143.9,71.9 143.9,65.4 143.9,58.9 143.9,52.3 143.9,45.8 143.9,39.2 143.9,32.7 143.9,26.1 143.9,19.6 143.9,13.1 143.9,6.5 143.9,0 137.4,0 137.4,6.5 137.4,13.1 137.4,19.6 137.4,26.1 137.4,32.7 137.4,39.2 137.4,45.8 137.4,52.3 137.4,58.9 137.4,65.4 137.4,71.9 137.4,78.5 137.4,85 143.9,85 150.4,85 157,85 163.5,78.5 163.5,71.9 163.5,65.4 163.5,58.9 163.5,52.3 163.5,45.8 163.5,39.2 163.5,32.7 163.5,26.1 163.5,19.6 163.5,13.1 163.5,6.5 163.5,0 "></polygon> <polygon class="st2" points="117.7,26.1 117.7,19.6 117.7,13.1 117.7,6.5 124.3,6.5 130.8,0 124.3,0 117.7,0 111.2,0 111.2,6.5 111.2,13.1 111.2,19.6 111.2,26.1 111.2,32.7 111.2,39.2 111.2,45.8 111.2,52.3 111.2,58.9 111.2,65.4 111.2,71.9 111.2,78.5 117.7,78.5 117.7,71.9 117.7,65.4 117.7,58.9 117.7,52.3 117.7,45.8 117.7,39.2 117.7,32.7 124.3,32.7 130.8,26.1 124.3,26.1 "></polygon> <polygon class="st0" points="58.8,39.3 52.3,39.3 52.3,45.8 "></polygon> <polygon class="st1" points="45.8,39.3 39.2,39.3 39.2,45.8 "></polygon> <polygon class="st3" points="32.7,39.3 26.1,39.3 26.1,45.8 "></polygon> <polygon class="st2" points="78.5,45.8 78.5,52.4 78.5,58.9 78.5,65.4 78.5,72 78.5,78.5 71.9,78.5 65.4,78.5 58.8,78.5 52.3,78.5 45.8,78.5 45.8,85.1 52.3,85.1 58.8,85.1 65.4,85.1 71.9,85.1 78.5,85.1 85,85.1 85,78.5 85,72 85,65.4 85,58.9 85,52.4 85,45.8 "></polygon> <polygon class="st2" points="32.7,78.5 26.1,78.5 19.6,78.5 13,78.5 6.5,78.5 6.5,72 6.5,65.4 6.5,58.9 6.5,52.4 6.5,45.8 0,45.8 0,52.4 0,58.9 0,65.4 0,72 0,78.5 0,85.1 6.5,85.1 13,85.1 19.6,85.1 26.1,85.1 32.7,85.1 39.2,85.1 39.2,78.5 "></polygon> <polygon class="st2" points="78.5,0 71.9,0 65.4,0 58.8,0 52.3,0 45.8,0 45.8,6.6 52.3,6.6 58.8,6.6 65.4,6.6 71.9,6.6 78.5,6.6 78.5,13.1 78.5,19.6 78.5,26.2 78.5,32.7 78.5,39.3 85,39.3 85,32.7 85,26.2 85,19.6 85,13.1 85,6.6 85,0 "></polygon> <polygon class="st2" points="32.7,0 26.1,0 19.6,0 13,0 6.5,0 0,0 0,6.6 0,13.1 0,19.6 0,26.2 0,32.7 0,39.3 6.5,39.3 6.5,32.7 6.5,26.2 13,26.2 19.6,19.6 13,19.6 6.5,19.6 6.5,13.1 6.5,6.6 13,6.6 19.6,6.6 26.1,6.6 32.7,6.6 39.2,0 "></polygon> <g> <polygon class="st2" points="441.6,0 438.5,0 435.3,3.1 432.2,6.3 432.2,9.4 435.3,9.4 435.3,6.3 438.5,3.1 441.6,3.1 441.6,6.3 441.6,9.4 438.5,12.6 435.3,15.7 432.2,18.9 432.2,22 432.2,25.2 432.2,28.3 432.2,31.5 432.2,34.6 432.2,37.8 432.2,40.9 435.3,40.9 438.5,40.9 441.6,40.9 444.8,40.9 444.8,37.8 444.8,34.6 444.8,31.5 444.8,28.3 444.8,25.2 444.8,22 444.8,18.9 441.6,22 441.6,25.2 441.6,28.3 441.6,31.5 441.6,34.6 441.6,37.8 438.5,37.8 435.3,37.8 435.3,34.6 435.3,31.5 435.3,28.3 435.3,25.2 435.3,22 435.3,18.9 438.5,15.7 441.6,12.6 444.8,9.4 444.8,6.3 444.8,3.1 444.8,0 "></polygon> <path class="st2" d="M458.4,0h-3.2H452h-3.2v3.2v3.2v3.2v3.2V16v3.2v3.2v3.2v3.2v2.7v3.2v3.2v3.2h3.2h3.2h3.2h3.2v-3.2v-3.2v-3.2 v-3.2v-3.2v-3.2v-3.2v-3.2v-3.2V9.1V5.9V2.7v-3.2h-3.2V0z M458.4,12.6v3.2V19v3.2v3.2v3.2v2.9v3.2v3.2h-3.2H452v-3.2v-3.2v-3.2 v-3.2v-3.2v-3.2v-3.2l3.2-3.2l3.2-3.2V12.6z M458.4,6.3l-3.2,3.2l-3.2,3.2V9.5V6.3V3.1h3.2h3.2V6.3z"></path> <path class="st2" d="M458.3,44.1h-3.2h-3.2l-3.2,3.2v3.2v3.2v3.2v3.2h3.2h3.2h3.2v3.2v3.2v3.2v3.2v3.2v3.2v3.2h-3.2h-3.2v-3.2 v-3.2v-3.6v-3.2v-3.2v-3.2l-3.2,3.2v3.2v3.2v3.2v3.2v3.2v3.2h3.2h3.2h3.2h3.2v-3.2v-3.2v-3.2v-3.2v-3.2v-3.2v-3.2v-3.2v-3.2v-3.2 v-3.2v-3.2v-3.2h-3.2V44.1z M458.3,50.4v3.2v3.2h-3.2h-3.2v-3.2v-3.2v-3.2h3.2h3.2V50.4z"></path> <polygon class="st2" points="441.5,81.9 441.5,78.8 441.5,75.6 441.5,72.5 441.5,69.3 441.5,66.2 441.5,63 441.5,59.9 441.5,56.7 441.5,53.6 441.5,50.4 441.5,47.3 441.5,44.1 438.4,44.1 435.2,47.3 438.4,47.3 438.4,50.4 438.4,53.6 438.4,56.7 438.4,59.9 438.4,63 438.4,66.2 438.4,69.3 438.4,72.5 438.4,75.6 438.4,78.8 438.4,81.9 435.2,81.9 435.2,85.1 438.4,85.1 441.5,85.1 444.7,85.1 444.7,81.9 "></polygon> <rect x="432.2" y="56.7" class="st2" width="3.2" height="3.2"></rect> </g> </g> </svg> 