<?xml version="1.0" encoding="UTF-8"?> <!-- Generator: Adobe Illustrator 22.1.0, SVG Export Plug-In . SVG Version: 6.00 Build 0) --> <svg xmlns="http://www.w3.org/2000/svg" xmlns:xlink="http://www.w3.org/1999/xlink" id="Layer_1" x="0px" y="0px" viewBox="0 0 524 149" style="enable-background:new 0 0 524 149;" xml:space="preserve"> <style type="text/css"> .st0{fill:#0050FF;} .st1{fill:#3CD700;} .st2{fill:#FFFFFF;} .st3{fill:#FF0000;} </style> <rect x="431.5" y="110" class="st0" width="6.5" height="6.5"></rect> <rect x="281" y="110" class="st1" width="6.5" height="6.5"></rect> <g> <polygon class="st2" points="418.4,51.1 418.4,44.6 418.4,38 418.4,31.5 411.8,31.5 411.8,38 411.8,44.6 411.8,51.1 411.8,57.6 411.8,64.2 411.8,70.7 411.8,77.3 411.8,83.8 411.8,90.4 411.8,96.9 411.8,103.4 411.8,110 411.8,116.5 418.4,116.5 418.4,110 418.4,103.4 418.4,96.9 418.4,90.4 418.4,83.8 418.4,77.3 418.4,70.7 418.4,64.2 418.4,57.6 424.9,57.6 424.9,51.1 "></polygon> <polygon class="st2" points="431.5,31.5 431.5,38 431.5,44.6 431.5,51.1 431.5,57.6 424.9,57.6 424.9,64.2 431.5,64.2 431.5,70.7 431.5,77.3 431.5,83.8 431.5,90.4 431.5,96.9 431.5,103.4 431.5,110 438,110 438,103.4 438,96.9 438,90.4 438,83.8 438,77.3 438,70.7 438,64.2 438,57.6 438,51.1 438,44.6 438,38 438,31.5 "></polygon> </g> <polygon class="st2" points="392.2,44.6 392.2,38 398.7,38 405.3,38 405.3,31.5 398.7,31.5 392.2,31.5 385.7,31.5 385.7,38 385.7,44.6 385.7,51.1 385.7,57.6 385.7,64.2 385.7,70.7 385.7,77.3 385.7,83.8 385.7,90.4 385.7,96.9 385.7,103.4 385.7,110 385.7,116.5 392.2,116.5 398.7,116.5 405.3,116.5 405.3,110 398.7,110 392.2,110 392.2,103.4 392.2,96.9 392.2,90.4 392.2,83.8 392.2,77.3 392.2,70.7 392.2,64.2 398.7,64.2 405.3,57.6 398.7,57.6 392.2,57.6 392.2,51.1 "></polygon> <polygon class="st2" points="366,44.6 366,38 372.6,38 379.1,38 379.1,31.5 372.6,31.5 366,31.5 359.5,31.5 359.5,38 359.5,44.6 359.5,51.1 359.5,57.6 359.5,64.2 359.5,70.7 359.5,77.3 359.5,83.8 359.5,90.4 359.5,96.9 359.5,103.4 359.5,110 359.5,116.5 366,116.5 372.6,116.5 379.1,116.5 379.1,110 372.6,110 366,110 366,103.4 366,96.9 366,90.4 366,83.8 366,77.3 366,70.7 366,64.2 372.6,64.2 379.1,57.6 372.6,57.6 366,57.6 366,51.1 "></polygon> <g> <polygon class="st2" points="346.4,77.3 346.4,83.8 346.4,90.4 346.4,96.9 346.4,103.4 346.4,110 346.4,116.5 352.9,116.5 352.9,110 352.9,103.4 352.9,96.9 352.9,90.4 352.9,83.8 352.9,77.3 352.9,70.7 352.9,64.2 346.4,64.2 346.4,70.7 "></polygon> <polygon class="st2" points="346.4,31.5 339.9,31.5 333.3,31.5 326.8,31.5 326.8,38 326.8,44.6 326.8,51.1 326.8,57.6 326.8,64.2 326.8,70.7 326.8,77.3 326.8,83.8 326.8,90.4 326.8,96.9 326.8,103.4 326.8,110 326.8,116.5 333.3,116.5 333.3,110 333.3,103.4 333.3,96.9 333.3,90.4 333.3,83.8 333.3,77.3 333.3,70.7 333.3,64.2 339.9,64.2 346.4,64.2 346.4,57.6 339.9,57.6 333.3,57.6 333.3,51.1 333.3,44.6 333.3,38 339.9,38 346.4,38 346.4,44.6 346.4,51.1 346.4,57.6 352.9,51.1 352.9,44.6 352.9,38 352.9,31.5 "></polygon> </g> <polygon class="st2" points="313.7,31.5 307.2,31.5 300.6,31.5 294.1,38 294.1,44.6 294.1,51.1 294.1,57.6 294.1,64.2 294.1,70.7 294.1,77.3 294.1,83.8 294.1,90.4 294.1,96.9 294.1,103.4 294.1,110 294.1,116.5 300.6,116.5 307.2,116.5 313.7,116.5 320.2,110 320.2,103.4 320.2,96.9 320.2,90.4 320.2,83.8 320.2,77.3 320.2,70.7 313.7,77.3 313.7,83.8 313.7,90.4 313.7,96.9 313.7,103.4 313.7,110 307.2,110 300.6,110 300.6,103.4 300.6,96.9 300.6,90.4 300.6,83.8 300.6,77.3 300.6,70.7 300.6,64.2 300.6,57.6 300.6,51.1 300.6,44.6 300.6,38 307.2,38 313.7,38 313.7,44.6 313.7,51.1 320.2,44.6 320.2,38 320.2,31.5 "></polygon> <g> <polygon class="st2" points="267.9,110 267.9,103.4 267.9,96.9 267.9,90.4 267.9,83.8 267.9,77.3 267.9,70.7 261.4,77.3 261.4,83.8 261.4,90.4 261.4,96.9 261.4,103.4 261.4,110 261.4,116.5 267.9,116.5 274.4,116.5 281,116.5 281,110 274.4,110 "></polygon> <polygon class="st2" points="281,31.5 274.4,31.5 267.9,31.5 261.4,31.5 261.4,38 261.4,44.6 261.4,51.1 261.4,57.6 261.4,64.2 267.9,64.2 274.4,64.2 281,64.2 281,70.7 281,77.3 281,83.8 281,90.4 281,96.9 281,103.4 281,110 287.5,110 287.5,103.4 287.5,96.9 287.5,90.4 287.5,83.8 287.5,77.3 287.5,70.7 287.5,64.2 287.5,57.6 281,57.6 274.4,57.6 267.9,57.6 267.9,51.1 267.9,44.6 267.9,38 274.4,38 281,38 281,44.6 281,51.1 287.5,44.6 287.5,38 287.5,31.5 "></polygon> </g> <rect x="143.6" y="110" class="st3" width="6.5" height="6.5"></rect> <polygon class="st2" points="248.3,110 241.7,110 235.2,110 235.2,103.4 235.2,96.9 235.2,90.4 235.2,83.8 235.2,77.3 235.2,70.7 235.2,64.2 235.2,57.6 235.2,51.1 235.2,44.6 235.2,38 235.2,31.5 228.6,31.5 228.6,38 228.6,44.6 228.6,51.1 228.6,57.6 228.6,64.2 228.6,70.7 228.6,77.3 228.6,83.8 228.6,90.4 228.6,96.9 228.6,103.4 228.6,110 228.6,116.5 235.2,116.5 241.7,116.5 248.3,116.5 254.8,110 "></polygon> <polygon class="st2" points="215.6,110 209,110 209,103.4 209,96.9 209,90.4 209,83.8 209,77.3 209,70.7 209,64.2 209,57.6 209,51.1 209,44.6 209,38 209,31.5 202.5,31.5 202.5,38 202.5,44.6 202.5,51.1 202.5,57.6 202.5,64.2 202.5,70.7 202.5,77.3 202.5,83.8 202.5,90.4 202.5,96.9 202.5,103.4 202.5,110 202.5,116.5 209,116.5 215.6,116.5 222.1,116.5 222.1,110 "></polygon> <polygon class="st2" points="189.4,31.5 189.4,38 189.4,44.6 189.4,51.1 189.4,57.6 189.4,64.2 189.4,70.7 189.4,77.3 189.4,83.8 189.4,90.4 189.4,96.9 189.4,103.4 189.4,110 182.8,110 176.3,110 176.3,103.4 176.3,96.9 176.3,90.4 176.3,83.8 176.3,77.3 176.3,70.7 176.3,64.2 176.3,57.6 176.3,51.1 176.3,44.6 176.3,38 176.3,31.5 169.8,31.5 169.8,38 169.8,44.6 169.8,51.1 169.8,57.6 169.8,64.2 169.8,70.7 169.8,77.3 169.8,83.8 169.8,90.4 169.8,96.9 169.8,103.4 169.8,110 169.8,116.5 176.3,116.5 182.8,116.5 189.4,116.5 195.9,110 195.9,103.4 195.9,96.9 195.9,90.4 195.9,83.8 195.9,77.3 195.9,70.7 195.9,64.2 195.9,57.6 195.9,51.1 195.9,44.6 195.9,38 195.9,31.5 "></polygon> <polygon class="st2" points="150.1,57.6 150.1,51.1 150.1,44.6 150.1,38 156.7,38 163.2,31.5 156.7,31.5 150.1,31.5 143.6,31.5 143.6,38 143.6,44.6 143.6,51.1 143.6,57.6 143.6,64.2 143.6,70.7 143.6,77.3 143.6,83.8 143.6,90.4 143.6,96.9 143.6,103.4 143.6,110 150.1,110 150.1,103.4 150.1,96.9 150.1,90.4 150.1,83.8 150.1,77.3 150.1,70.7 150.1,64.2 156.7,64.2 163.2,57.6 156.7,57.6 "></polygon> <polygon class="st0" points="91.2,70.8 84.7,70.8 84.7,77.3 "></polygon> <polygon class="st1" points="78.2,70.8 71.6,70.8 71.6,77.3 "></polygon> <polygon class="st3" points="65.1,70.8 58.5,70.8 58.5,77.3 "></polygon> <polygon class="st2" points="110.9,77.3 110.9,83.9 110.9,90.4 110.9,96.9 110.9,103.5 110.9,110 104.3,110 97.8,110 91.2,110 84.7,110 78.2,110 78.2,116.6 84.7,116.6 91.2,116.6 97.8,116.6 104.3,116.6 110.9,116.6 117.4,116.6 117.4,110 117.4,103.5 117.4,96.9 117.4,90.4 117.4,83.9 117.4,77.3 "></polygon> <polygon class="st2" points="65.1,110 58.5,110 52,110 45.4,110 38.9,110 38.9,103.5 38.9,96.9 38.9,90.4 38.9,83.9 38.9,77.3 32.4,77.3 32.4,83.9 32.4,90.4 32.4,96.9 32.4,103.5 32.4,110 32.4,116.6 38.9,116.6 45.4,116.6 52,116.6 58.5,116.6 65.1,116.6 71.6,116.6 71.6,110 "></polygon> <polygon class="st2" points="110.9,31.5 104.3,31.5 97.8,31.5 91.2,31.5 84.7,31.5 78.2,31.5 78.2,38.1 84.7,38.1 91.2,38.1 97.8,38.1 104.3,38.1 110.9,38.1 110.9,44.6 110.9,51.1 110.9,57.7 110.9,64.2 110.9,70.8 117.4,70.8 117.4,64.2 117.4,57.7 117.4,51.1 117.4,44.6 117.4,38.1 117.4,31.5 "></polygon> <polygon class="st2" points="65.1,31.5 58.5,31.5 52,31.5 45.4,31.5 38.9,31.5 32.4,31.5 32.4,38.1 32.4,44.6 32.4,51.1 32.4,57.7 32.4,64.2 32.4,70.8 38.9,70.8 38.9,64.2 38.9,57.7 45.4,57.7 52,51.1 45.4,51.1 38.9,51.1 38.9,44.6 38.9,38.1 45.4,38.1 52,38.1 58.5,38.1 65.1,38.1 71.6,31.5 "></polygon> <g> <polygon class="st2" points="474,31.5 470.9,31.5 467.7,34.6 464.6,37.8 464.6,40.9 467.7,40.9 467.7,37.8 470.9,34.6 474,34.6 474,37.8 474,40.9 470.9,44.1 467.7,47.2 464.6,50.4 464.6,53.5 464.6,56.7 464.6,59.8 464.6,63 464.6,66.1 464.6,69.3 464.6,72.4 467.7,72.4 470.9,72.4 474,72.4 477.2,72.4 477.2,69.3 477.2,66.1 477.2,63 477.2,59.8 477.2,56.7 477.2,53.5 477.2,50.4 474,53.5 474,56.7 474,59.8 474,63 474,66.1 474,69.3 470.9,69.3 467.7,69.3 467.7,66.1 467.7,63 467.7,59.8 467.7,56.7 467.7,53.5 467.7,50.4 470.9,47.2 474,44.1 477.2,40.9 477.2,37.8 477.2,34.6 477.2,31.5 "></polygon> <path class="st2" d="M490.8,31.5h-3.2h-3.2h-3.2v3.2v3.2v3.2v3.2v3.2v3.2v3.2v3.2v3.2V63v3.2v3.2v3.2h3.2h3.2h3.2h3.2v-3.2v-3.2V63 v-3.2v-3.2v-3.2v-3.2v-3.2v-3.2v-3.2v-3.2v-3.2v-3.2H490.8z M490.8,44.1v3.2v3.2v3.2v3.2v3.2V63v3.2v3.2h-3.2h-3.2v-3.2V63v-3.2 v-3.2v-3.2v-3.2v-3.2l3.2-3.2l3.2-3.2V44.1z M490.8,37.8l-3.2,3.2l-3.2,3.2v-3.2v-3.2v-3.2h3.2h3.2V37.8z"></path> <path class="st2" d="M490.7,75.6h-3.2h-3.2l-3.2,3.2v3.2v3.2v3.2v3.2h3.2h3.2h3.2v3.2v3.2v3.2v3.2v3.2v3.2v3.2h-3.2h-3.2v-3.2v-3.2 V104v-3.2v-3.2v-3.2l-3.2,3.2v3.2v3.2v3.2v3.2v3.2v3.2h3.2h3.2h3.2h3.2v-3.2v-3.2v-3.2V104v-3.2v-3.2v-3.2v-3.2v-3.2v-3.2v-3.2 v-3.2v-3.2H490.7z M490.7,81.9v3.2v3.2h-3.2h-3.2v-3.2v-3.2v-3.2h3.2h3.2V81.9z"></path> <polygon class="st2" points="473.9,113.4 473.9,110.3 473.9,107.1 473.9,104 473.9,100.8 473.9,97.7 473.9,94.5 473.9,91.4 473.9,88.2 473.9,85.1 473.9,81.9 473.9,78.8 473.9,75.6 470.8,75.6 467.6,78.8 470.8,78.8 470.8,81.9 470.8,85.1 470.8,88.2 470.8,91.4 470.8,94.5 470.8,97.7 470.8,100.8 470.8,104 470.8,107.1 470.8,110.3 470.8,113.4 467.6,113.4 467.6,116.6 470.8,116.6 473.9,116.6 477.1,116.6 477.1,113.4 "></polygon> <rect x="464.6" y="88.2" class="st2" width="3.2" height="3.2"></rect> </g> <rect x="431.5" y="110" class="st0" width="6.5" height="6.5"></rect> <rect x="281" y="110" class="st1" width="6.5" height="6.5"></rect> <g> <polygon class="st2" points="418.4,51.1 418.4,44.6 418.4,38 418.4,31.5 411.8,31.5 411.8,38 411.8,44.6 411.8,51.1 411.8,57.6 411.8,64.2 411.8,70.7 411.8,77.3 411.8,83.8 411.8,90.4 411.8,96.9 411.8,103.4 411.8,110 411.8,116.5 418.4,116.5 418.4,110 418.4,103.4 418.4,96.9 418.4,90.4 418.4,83.8 418.4,77.3 418.4,70.7 418.4,64.2 418.4,57.6 424.9,57.6 424.9,51.1 "></polygon> <polygon class="st2" points="431.5,31.5 431.5,38 431.5,44.6 431.5,51.1 431.5,57.6 424.9,57.6 424.9,64.2 431.5,64.2 431.5,70.7 431.5,77.3 431.5,83.8 431.5,90.4 431.5,96.9 431.5,103.4 431.5,110 438,110 438,103.4 438,96.9 438,90.4 438,83.8 438,77.3 438,70.7 438,64.2 438,57.6 438,51.1 438,44.6 438,38 438,31.5 "></polygon> </g> <polygon class="st2" points="392.2,44.6 392.2,38 398.7,38 405.3,38 405.3,31.5 398.7,31.5 392.2,31.5 385.7,31.5 385.7,38 385.7,44.6 385.7,51.1 385.7,57.6 385.7,64.2 385.7,70.7 385.7,77.3 385.7,83.8 385.7,90.4 385.7,96.9 385.7,103.4 385.7,110 385.7,116.5 392.2,116.5 398.7,116.5 405.3,116.5 405.3,110 398.7,110 392.2,110 392.2,103.4 392.2,96.9 392.2,90.4 392.2,83.8 392.2,77.3 392.2,70.7 392.2,64.2 398.7,64.2 405.3,57.6 398.7,57.6 392.2,57.6 392.2,51.1 "></polygon> <polygon class="st2" points="366,44.6 366,38 372.6,38 379.1,38 379.1,31.5 372.6,31.5 366,31.5 359.5,31.5 359.5,38 359.5,44.6 359.5,51.1 359.5,57.6 359.5,64.2 359.5,70.7 359.5,77.3 359.5,83.8 359.5,90.4 359.5,96.9 359.5,103.4 359.5,110 359.5,116.5 366,116.5 372.6,116.5 379.1,116.5 379.1,110 372.6,110 366,110 366,103.4 366,96.9 366,90.4 366,83.8 366,77.3 366,70.7 366,64.2 372.6,64.2 379.1,57.6 372.6,57.6 366,57.6 366,51.1 "></polygon> <g> <polygon class="st2" points="346.4,77.3 346.4,83.8 346.4,90.4 346.4,96.9 346.4,103.4 346.4,110 346.4,116.5 352.9,116.5 352.9,110 352.9,103.4 352.9,96.9 352.9,90.4 352.9,83.8 352.9,77.3 352.9,70.7 352.9,64.2 346.4,64.2 346.4,70.7 "></polygon> <polygon class="st2" points="346.4,31.5 339.9,31.5 333.3,31.5 326.8,31.5 326.8,38 326.8,44.6 326.8,51.1 326.8,57.6 326.8,64.2 326.8,70.7 326.8,77.3 326.8,83.8 326.8,90.4 326.8,96.9 326.8,103.4 326.8,110 326.8,116.5 333.3,116.5 333.3,110 333.3,103.4 333.3,96.9 333.3,90.4 333.3,83.8 333.3,77.3 333.3,70.7 333.3,64.2 339.9,64.2 346.4,64.2 346.4,57.6 339.9,57.6 333.3,57.6 333.3,51.1 333.3,44.6 333.3,38 339.9,38 346.4,38 346.4,44.6 346.4,51.1 346.4,57.6 352.9,51.1 352.9,44.6 352.9,38 352.9,31.5 "></polygon> </g> <polygon class="st2" points="313.7,31.5 307.2,31.5 300.6,31.5 294.1,38 294.1,44.6 294.1,51.1 294.1,57.6 294.1,64.2 294.1,70.7 294.1,77.3 294.1,83.8 294.1,90.4 294.1,96.9 294.1,103.4 294.1,110 294.1,116.5 300.6,116.5 307.2,116.5 313.7,116.5 320.2,110 320.2,103.4 320.2,96.9 320.2,90.4 320.2,83.8 320.2,77.3 320.2,70.7 313.7,77.3 313.7,83.8 313.7,90.4 313.7,96.9 313.7,103.4 313.7,110 307.2,110 300.6,110 300.6,103.4 300.6,96.9 300.6,90.4 300.6,83.8 300.6,77.3 300.6,70.7 300.6,64.2 300.6,57.6 300.6,51.1 300.6,44.6 300.6,38 307.2,38 313.7,38 313.7,44.6 313.7,51.1 320.2,44.6 320.2,38 320.2,31.5 "></polygon> <g> <polygon class="st2" points="267.9,110 267.9,103.4 267.9,96.9 267.9,90.4 267.9,83.8 267.9,77.3 267.9,70.7 261.4,77.3 261.4,83.8 261.4,90.4 261.4,96.9 261.4,103.4 261.4,110 261.4,116.5 267.9,116.5 274.4,116.5 281,116.5 281,110 274.4,110 "></polygon> <polygon class="st2" points="281,31.5 274.4,31.5 267.9,31.5 261.4,31.5 261.4,38 261.4,44.6 261.4,51.1 261.4,57.6 261.4,64.2 267.9,64.2 274.4,64.2 281,64.2 281,70.7 281,77.3 281,83.8 281,90.4 281,96.9 281,103.4 281,110 287.5,110 287.5,103.4 287.5,96.9 287.5,90.4 287.5,83.8 287.5,77.3 287.5,70.7 287.5,64.2 287.5,57.6 281,57.6 274.4,57.6 267.9,57.6 267.9,51.1 267.9,44.6 267.9,38 274.4,38 281,38 281,44.6 281,51.1 287.5,44.6 287.5,38 287.5,31.5 "></polygon> </g> <rect x="143.6" y="110" class="st3" width="6.5" height="6.5"></rect> <polygon class="st2" points="248.3,110 241.7,110 235.2,110 235.2,103.4 235.2,96.9 235.2,90.4 235.2,83.8 235.2,77.3 235.2,70.7 235.2,64.2 235.2,57.6 235.2,51.1 235.2,44.6 235.2,38 235.2,31.5 228.6,31.5 228.6,38 228.6,44.6 228.6,51.1 228.6,57.6 228.6,64.2 228.6,70.7 228.6,77.3 228.6,83.8 228.6,90.4 228.6,96.9 228.6,103.4 228.6,110 228.6,116.5 235.2,116.5 241.7,116.5 248.3,116.5 254.8,110 "></polygon> <polygon class="st2" points="215.6,110 209,110 209,103.4 209,96.9 209,90.4 209,83.8 209,77.3 209,70.7 209,64.2 209,57.6 209,51.1 209,44.6 209,38 209,31.5 202.5,31.5 202.5,38 202.5,44.6 202.5,51.1 202.5,57.6 202.5,64.2 202.5,70.7 202.5,77.3 202.5,83.8 202.5,90.4 202.5,96.9 202.5,103.4 202.5,110 202.5,116.5 209,116.5 215.6,116.5 222.1,116.5 222.1,110 "></polygon> <polygon class="st2" points="189.4,31.5 189.4,38 189.4,44.6 189.4,51.1 189.4,57.6 189.4,64.2 189.4,70.7 189.4,77.3 189.4,83.8 189.4,90.4 189.4,96.9 189.4,103.4 189.4,110 182.8,110 176.3,110 176.3,103.4 176.3,96.9 176.3,90.4 176.3,83.8 176.3,77.3 176.3,70.7 176.3,64.2 176.3,57.6 176.3,51.1 176.3,44.6 176.3,38 176.3,31.5 169.8,31.5 169.8,38 169.8,44.6 169.8,51.1 169.8,57.6 169.8,64.2 169.8,70.7 169.8,77.3 169.8,83.8 169.8,90.4 169.8,96.9 169.8,103.4 169.8,110 169.8,116.5 176.3,116.5 182.8,116.5 189.4,116.5 195.9,110 195.9,103.4 195.9,96.9 195.9,90.4 195.9,83.8 195.9,77.3 195.9,70.7 195.9,64.2 195.9,57.6 195.9,51.1 195.9,44.6 195.9,38 195.9,31.5 "></polygon> <polygon class="st2" points="150.1,57.6 150.1,51.1 150.1,44.6 150.1,38 156.7,38 163.2,31.5 156.7,31.5 150.1,31.5 143.6,31.5 143.6,38 143.6,44.6 143.6,51.1 143.6,57.6 143.6,64.2 143.6,70.7 143.6,77.3 143.6,83.8 143.6,90.4 143.6,96.9 143.6,103.4 143.6,110 150.1,110 150.1,103.4 150.1,96.9 150.1,90.4 150.1,83.8 150.1,77.3 150.1,70.7 150.1,64.2 156.7,64.2 163.2,57.6 156.7,57.6 "></polygon> <polygon class="st0" points="91.2,70.8 84.7,70.8 84.7,77.3 "></polygon> <polygon class="st1" points="78.2,70.8 71.6,70.8 71.6,77.3 "></polygon> <polygon class="st3" points="65.1,70.8 58.5,70.8 58.5,77.3 "></polygon> <polygon class="st2" points="110.9,77.3 110.9,83.9 110.9,90.4 110.9,96.9 110.9,103.5 110.9,110 104.3,110 97.8,110 91.2,110 84.7,110 78.2,110 78.2,116.6 84.7,116.6 91.2,116.6 97.8,116.6 104.3,116.6 110.9,116.6 117.4,116.6 117.4,110 117.4,103.5 117.4,96.9 117.4,90.4 117.4,83.9 117.4,77.3 "></polygon> <polygon class="st2" points="65.1,110 58.5,110 52,110 45.4,110 38.9,110 38.9,103.5 38.9,96.9 38.9,90.4 38.9,83.9 38.9,77.3 32.4,77.3 32.4,83.9 32.4,90.4 32.4,96.9 32.4,103.5 32.4,110 32.4,116.6 38.9,116.6 45.4,116.6 52,116.6 58.5,116.6 65.1,116.6 71.6,116.6 71.6,110 "></polygon> <polygon class="st2" points="110.9,31.5 104.3,31.5 97.8,31.5 91.2,31.5 84.7,31.5 78.2,31.5 78.2,38.1 84.7,38.1 91.2,38.1 97.8,38.1 104.3,38.1 110.9,38.1 110.9,44.6 110.9,51.1 110.9,57.7 110.9,64.2 110.9,70.8 117.4,70.8 117.4,64.2 117.4,57.7 117.4,51.1 117.4,44.6 117.4,38.1 117.4,31.5 "></polygon> <polygon class="st2" points="65.1,31.5 58.5,31.5 52,31.5 45.4,31.5 38.9,31.5 32.4,31.5 32.4,38.1 32.4,44.6 32.4,51.1 32.4,57.7 32.4,64.2 32.4,70.8 38.9,70.8 38.9,64.2 38.9,57.7 45.4,57.7 52,51.1 45.4,51.1 38.9,51.1 38.9,44.6 38.9,38.1 45.4,38.1 52,38.1 58.5,38.1 65.1,38.1 71.6,31.5 "></polygon> <g> <polygon class="st2" points="474,31.5 470.9,31.5 467.7,34.6 464.6,37.8 464.6,40.9 467.7,40.9 467.7,37.8 470.9,34.6 474,34.6 474,37.8 474,40.9 470.9,44.1 467.7,47.2 464.6,50.4 464.6,53.5 464.6,56.7 464.6,59.8 464.6,63 464.6,66.1 464.6,69.3 464.6,72.4 467.7,72.4 470.9,72.4 474,72.4 477.2,72.4 477.2,69.3 477.2,66.1 477.2,63 477.2,59.8 477.2,56.7 477.2,53.5 477.2,50.4 474,53.5 474,56.7 474,59.8 474,63 474,66.1 474,69.3 470.9,69.3 467.7,69.3 467.7,66.1 467.7,63 467.7,59.8 467.7,56.7 467.7,53.5 467.7,50.4 470.9,47.2 474,44.1 477.2,40.9 477.2,37.8 477.2,34.6 477.2,31.5 "></polygon> <path class="st2" d="M490.8,31.5h-3.2h-3.2h-3.2v3.2v3.2v3.2v3.2v3.2v3.2v3.2v3.2v3.2V63v3.2v3.2v3.2h3.2h3.2h3.2h3.2v-3.2v-3.2V63 v-3.2v-3.2v-3.2v-3.2v-3.2v-3.2v-3.2v-3.2v-3.2v-3.2H490.8z M490.8,44.1v3.2v3.2v3.2v3.2v3.2V63v3.2v3.2h-3.2h-3.2v-3.2V63v-3.2 v-3.2v-3.2v-3.2v-3.2l3.2-3.2l3.2-3.2V44.1z M490.8,37.8l-3.2,3.2l-3.2,3.2v-3.2v-3.2v-3.2h3.2h3.2V37.8z"></path> <path class="st2" d="M490.7,75.6h-3.2h-3.2l-3.2,3.2v3.2v3.2v3.2v3.2h3.2h3.2h3.2v3.2v3.2v3.2v3.2v3.2v3.2v3.2h-3.2h-3.2v-3.2v-3.2 V104v-3.2v-3.2v-3.2l-3.2,3.2v3.2v3.2v3.2v3.2v3.2v3.2h3.2h3.2h3.2h3.2v-3.2v-3.2v-3.2V104v-3.2v-3.2v-3.2v-3.2v-3.2v-3.2v-3.2 v-3.2v-3.2H490.7z M490.7,81.9v3.2v3.2h-3.2h-3.2v-3.2v-3.2v-3.2h3.2h3.2V81.9z"></path> <polygon class="st2" points="473.9,113.4 473.9,110.3 473.9,107.1 473.9,104 473.9,100.8 473.9,97.7 473.9,94.5 473.9,91.4 473.9,88.2 473.9,85.1 473.9,81.9 473.9,78.8 473.9,75.6 470.8,75.6 467.6,78.8 470.8,78.8 470.8,81.9 470.8,85.1 470.8,88.2 470.8,91.4 470.8,94.5 470.8,97.7 470.8,100.8 470.8,104 470.8,107.1 470.8,110.3 470.8,113.4 467.6,113.4 467.6,116.6 470.8,116.6 473.9,116.6 477.1,116.6 477.1,113.4 "></polygon> <rect x="464.6" y="88.2" class="st2" width="3.2" height="3.2"></rect> </g> </svg> 